<svg width="16" height="16" viewBox="0 0 16 16" fill="none" xmlns="http://www.w3.org/2000/svg">
<g clip-path="url(#clip0_198_2393)">
<path d="M15.9922 8.1497C15.9922 7.49419 15.9377 7.01584 15.8199 6.51978H8.15918V9.47843H12.6559C12.5652 10.2137 12.0757 11.321 10.9877 12.0651L10.9725 12.1641L13.3947 13.9976L13.5625 14.0139C15.1037 12.6232 15.9922 10.5769 15.9922 8.1497Z" fill="#4285F4"/>
<path d="M8.15918 15.945C10.3622 15.945 12.2116 15.2363 13.5625 14.0139L10.9877 12.065C10.2987 12.5345 9.37399 12.8623 8.15918 12.8623C6.00149 12.8623 4.17018 11.4716 3.51737 9.54932L3.42168 9.55726L0.903055 11.4618L0.870117 11.5513C2.21187 14.1556 4.96793 15.945 8.15918 15.945Z" fill="#34A853"/>
<path d="M3.51756 9.54936C3.34531 9.0533 3.24563 8.52176 3.24563 7.97257C3.24563 7.42332 3.34531 6.89184 3.5085 6.39577L3.50394 6.29013L0.95375 4.35498L0.870313 4.39376C0.317313 5.47449 0 6.68811 0 7.97257C0 9.25703 0.317313 10.4706 0.870313 11.5513L3.51756 9.54936Z" fill="#FBBC05"/>
<path d="M8.15918 3.08269C9.69131 3.08269 10.7248 3.72934 11.3141 4.26974L13.6169 2.07286C12.2026 0.788397 10.3622 0 8.15918 0C4.96793 0 2.21187 1.78937 0.870117 4.39371L3.5083 6.39573C4.17018 4.47347 6.00149 3.08269 8.15918 3.08269Z" fill="#EB4335"/>
</g>
<defs>
<clipPath id="clip0_198_2393">
<rect width="16" height="16" fill="white"/>
</clipPath>
</defs>
</svg>
