<svg width="20" height="14" viewBox="0 0 20 14" fill="none" xmlns="http://www.w3.org/2000/svg">
<path d="M9.998 0C5.92 0 2.256 3.093 0.145 6.483C0.049 6.642 0 6.821 0 7C0 7.179 0.0480001 7.358 0.144 7.517C2.256 10.907 5.92 14 9.998 14C14.141 14 17.794 10.91 19.862 7.507C19.954 7.351 20 7.175 20 7C20 6.825 19.954 6.649 19.862 6.493C17.794 3.09 14.141 0 9.998 0ZM10 3C12.208 3 14 4.792 14 7C14 9.208 12.208 11 10 11C7.792 11 6 9.208 6 7C6 4.792 7.792 3 10 3ZM10 4.5C11.38 4.5 12.5 5.62 12.5 7C12.5 8.38 11.38 9.5 10 9.5C8.62 9.5 7.5 8.38 7.5 7C7.5 5.62 8.62 4.5 10 4.5Z" fill="white"/>
</svg>
