<svg width="1388" height="926" viewBox="0 0 1388 926" fill="none" xmlns="http://www.w3.org/2000/svg">
<g clip-path="url(#clip0_18_886)">
<path d="M440.396 925.054C439.716 924.78 438.188 924.444 437 924.309C435.813 924.173 433.666 923.733 432.23 923.331C430.184 922.758 428.78 922.74 425.735 923.244C422.595 923.765 421.627 923.742 420.686 923.125C419.634 922.436 414.749 911.439 414.749 909.76C414.749 909.396 414.381 908.296 413.93 907.315C412.74 904.725 410.79 898.922 410.77 897.911C410.76 897.433 410.126 895.769 409.36 894.213C408.594 892.656 407.966 890.442 407.963 889.292C407.957 887.573 408.255 887.026 409.635 886.211C411.648 885.022 411.775 884.523 411.274 879.775C410.148 869.097 409.997 865.802 409.979 851.483C409.957 833.36 410.471 823.241 411.678 818.091C412.153 816.068 413.027 812.375 413.622 809.884C414.627 805.677 415.3 801.243 417.015 787.529C418.016 779.522 419.091 775.435 421.928 768.852C425.246 761.153 425.317 760.892 426.349 752.495C428.55 734.595 428.86 731.163 429.148 721.594C429.316 715.991 429.614 706.314 429.811 700.088C430.193 687.978 430.171 673.953 429.754 664.212C429.613 660.909 429.355 647.383 429.181 634.153C428.986 619.269 428.541 606.864 428.014 601.611C425.672 578.263 424.7 570.02 424.108 568.476C423.931 568.015 423.005 567.293 422.05 566.87C420.175 566.04 419.532 566.178 406.259 570.26C400.103 572.154 379.278 576.594 366.536 578.729C364.766 579.026 360.309 580.056 356.632 581.018C348.781 583.073 344.145 583.99 334.012 585.494C329.917 586.102 325.099 586.981 323.306 587.448C321.512 587.916 316.967 588.69 313.206 589.17C309.445 589.65 301.783 591.17 296.18 592.548C290.577 593.927 280.262 595.957 273.259 597.06C266.255 598.163 259.378 599.306 257.978 599.601C252.119 600.836 245.366 601.936 238.452 602.783C234.405 603.278 229.184 604.045 226.85 604.486C224.515 604.928 221.077 605.308 219.209 605.331C213.971 605.396 204.191 607.16 203.665 608.135C203.218 608.963 202.337 621.877 202.468 625.664C202.506 626.754 202.816 630.828 203.157 634.719C203.499 638.61 203.849 642.813 203.936 644.058C204.023 645.303 204.646 648.359 205.32 650.849C206.16 653.949 206.621 657.609 206.784 662.452C206.914 666.343 207.278 671.309 207.593 673.488C208.286 678.281 209.786 692.781 210.434 700.937C210.945 707.378 211.419 710.101 213.536 718.765C215.688 727.567 216.665 733.455 217.218 740.953C217.498 744.752 217.989 748.349 218.309 748.947C218.629 749.545 219.387 752.167 219.993 754.774C220.6 757.381 221.353 760.533 221.667 761.778C222.248 764.084 222.401 765.367 223.457 776.718C223.787 780.266 224.154 783.327 224.273 783.519C224.668 784.157 223.448 813.667 222.587 824.316C221.783 834.273 221.016 839.238 218.395 851.483C217.761 854.44 217.24 857.724 217.236 858.782C217.232 859.839 216.491 863.022 215.59 865.856C214.411 869.566 213.839 872.79 213.548 877.375L213.143 883.742H215.909C218.703 883.742 221.207 884.902 221.171 886.18C221.145 887.119 219.409 889.104 217.913 889.905C216.91 890.441 216.663 891.073 216.663 893.101C216.663 896.323 215.556 896.434 215.454 893.222C215.411 891.899 215.266 891.39 215.131 892.09C214.996 892.791 214.655 893.364 214.373 893.364C213.501 893.364 204.777 903.96 204.777 905.018C204.777 905.225 203.933 906.329 202.902 907.47C201.87 908.612 199.296 912.418 197.182 915.928C195.019 919.517 192.826 922.498 192.17 922.741C191.528 922.978 189.963 922.939 188.693 922.654C187.423 922.368 184.908 922.062 183.105 921.973C181.038 921.871 179.574 921.498 179.143 920.964C178.295 919.911 174.911 918.106 170.82 916.524C168.057 915.455 166.046 915 159.783 914.024C151.315 912.706 150.494 912.482 149.706 911.28C147.386 907.739 148.248 903.999 151.551 903.274C153.693 902.803 154.341 901.879 152.601 901.776C151.882 901.734 152.858 901.52 154.771 901.301C158.626 900.861 163.465 898.744 171.952 893.782C180.403 888.842 184.774 886.068 188.371 883.365L191.703 880.86L198.936 881.697C204.036 882.287 206.38 882.358 206.888 881.937C207.879 881.114 207.793 877.81 206.758 876.951C205.534 875.935 205.721 872.775 207.296 867.844C208.051 865.481 209.074 861.407 209.571 858.789C210.067 856.171 210.847 852.629 211.304 850.917C212.859 845.091 213.717 840.458 214.919 831.391C215.579 826.411 216.364 820.553 216.662 818.374C216.96 816.195 217.356 806.899 217.543 797.716C217.85 782.652 217.775 780.453 216.781 775.216C216.175 772.024 215.797 768.402 215.939 767.168C216.082 765.933 215.811 763.706 215.337 762.219C214.864 760.731 214.301 758.368 214.086 756.967C213.871 755.566 213.193 753.711 212.58 752.845C211.666 751.554 211.37 749.763 210.944 742.94C210.4 734.226 209.62 727.86 208.745 724.99C206.152 716.488 203.649 694.244 202.231 667.086C201.891 660.578 201.512 656.466 200.812 651.698C198.991 639.287 198.301 629.171 198.342 615.477C198.397 597.497 198.807 592.583 200.387 591.003L201.549 589.841L199.975 581.294C199.109 576.593 198.076 571.855 197.679 570.766C197.281 569.676 196.667 567.13 196.312 565.106C194.776 556.334 193.87 553.567 191.933 551.739C190.904 550.769 190.062 549.438 190.062 548.781C190.062 548.125 188.318 542.297 186.187 535.831C180.693 519.166 179.415 514.986 178.436 510.491C176.081 499.679 175.207 496.204 171.956 484.74C170.063 478.068 169.331 475.226 168.017 469.459C167.344 466.502 166.058 461.663 165.161 458.706C160.614 443.724 160.143 441.676 158.918 431.539C158.222 425.781 157.455 420.542 157.214 419.899C156.974 419.255 156.482 416.199 156.122 413.107C155.762 410.016 154.983 404.303 154.392 400.412C152.31 386.718 151.662 381.369 151.03 372.68C150.417 364.26 149.781 356.735 148.754 345.796C148.492 342.995 148.264 336.808 148.247 332.048C148.231 327.288 148.078 323.166 147.906 322.888C147.735 322.61 147.484 320.942 147.348 319.18C146.735 311.182 146.073 309.719 144.094 311.98C142.847 313.405 137.994 321.558 137.994 322.229C137.994 322.54 137.604 323.184 137.127 323.661C136.268 324.52 133.73 328.746 130.461 334.76C129.531 336.472 128.317 338.382 127.763 339.005C127.21 339.627 125.854 342.026 124.749 344.336C123.645 346.645 122.105 349.199 121.327 350.011C120.548 350.823 119.604 352.372 119.227 353.453C118.851 354.534 117.571 356.922 116.383 358.76C115.195 360.598 114.224 362.698 114.224 363.427C114.224 364.156 113.345 366.6 112.271 368.858C110.099 373.424 104.61 387.408 103.439 391.356C103.024 392.757 102.234 394.985 101.683 396.308C100.829 398.359 100.437 398.714 99.032 398.714C97.3128 398.714 95.8168 397.527 96.5422 396.739C96.7729 396.488 96.325 396.472 95.5468 396.703C91.6774 397.85 91.3435 397.765 86.7827 394.493C84.3395 392.74 80.6639 390.395 78.6149 389.282C76.5658 388.168 71.3237 384.915 66.9658 382.054C62.6079 379.192 58.151 376.303 57.0615 375.635C53.257 373.301 42.6134 368.254 40.6486 367.852C39.5591 367.629 37.4218 366.819 35.8989 366.051C33.9067 365.047 31.6049 364.516 27.6925 364.157C24.7018 363.883 21.0737 363.504 19.63 363.314C16.6059 362.917 15.8583 363.474 12.5259 368.609C11.4537 370.261 10.2452 371.74 9.84025 371.895C9.43534 372.051 8.2814 373.447 7.27593 374.999C6.27046 376.551 4.83808 378.22 4.09288 378.708C1.51747 380.396 1.18111 379.627 0.791544 371.164C0.593484 366.862 0.353552 361.686 0.258372 359.663C0.163172 357.639 0.399737 354.118 0.784007 351.838C1.27016 348.954 1.3125 347.077 0.923182 345.667C0.252252 343.237 0.905372 341.465 2.97155 340.112C4.32951 339.222 4.47478 339.241 6.02386 340.506C6.91843 341.237 7.93818 342.472 8.28997 343.25C8.64175 344.028 10.369 347.084 12.1284 350.041C13.8877 352.999 15.7064 356.21 16.17 357.179C16.9854 358.882 17.1625 358.951 21.6147 359.298C24.1457 359.495 27.3708 359.657 28.7816 359.659C35.6368 359.668 54.9299 367.587 65.0052 374.527C70.9438 378.618 75.9824 381.837 78.257 382.994C79.5175 383.635 82.7543 385.631 85.4499 387.429C88.1455 389.227 91.706 391.346 93.3622 392.139C96.8658 393.816 96.5336 394.093 98.9393 387.48C100.298 383.745 103.998 374.842 107.304 367.355C107.841 366.138 108.979 363.846 109.831 362.261C110.684 360.676 112.043 357.979 112.852 356.267C113.66 354.555 114.881 352.39 115.565 351.456C116.249 350.522 117.131 349.018 117.526 348.112C117.92 347.207 120.361 343.259 122.951 339.34C125.54 335.42 128.231 331.068 128.93 329.667C129.629 328.266 130.953 326.101 131.871 324.856C134.31 321.548 143.786 308.104 144.839 306.458C145.503 305.42 145.839 302.883 146.112 296.841C146.316 292.328 146.741 286.852 147.058 284.673C148.257 276.401 151.72 264.513 153.729 261.766C154.304 260.98 156.078 258.426 157.67 256.092C160.584 251.819 165.777 246.405 169.971 243.268C173.66 240.509 183.935 234.86 187.259 233.763C188.957 233.204 192.383 232.043 194.873 231.185C197.363 230.327 200.929 229.098 202.796 228.455C208.576 226.464 212.625 225.945 222.888 225.878C235.674 225.794 261.707 227.039 274.674 228.354C296.575 230.575 299.226 230.762 304.234 230.433C307.174 230.239 311.022 229.829 312.784 229.52C314.547 229.211 319.3 228.559 323.346 228.07C327.393 227.582 331.85 227.04 333.251 226.867C336.642 226.449 350.351 224.003 353.908 223.182C355.465 222.822 357.884 222.033 359.285 221.427C360.686 220.822 363.232 219.944 364.944 219.476C366.656 219.009 370.222 218.042 372.868 217.328C375.514 216.614 381.371 214.706 385.885 213.088C402.492 207.135 415.554 203.771 420.454 204.186C426.133 204.666 429.964 208.245 431.183 214.211C431.533 215.923 432.066 218.441 432.367 219.807C432.929 222.354 432.173 237.097 431.132 243.879C430.802 246.03 430.819 247.472 431.178 247.904C431.485 248.275 433.836 249.796 436.402 251.283C438.967 252.771 441.678 254.398 442.425 254.899C444.511 256.296 446.415 257.431 450.122 259.487C451.989 260.522 454.154 261.808 454.932 262.343C459.372 265.398 466.2 269.682 467.667 270.335C468.6 270.75 469.818 271.472 470.371 271.939C471.595 272.97 477.264 276.188 479.41 277.07C480.266 277.421 480.967 277.939 480.967 278.22C480.967 278.501 481.239 278.73 481.572 278.73C481.905 278.73 483.242 279.45 484.543 280.33C486.672 281.769 492.006 284.951 500.368 289.771C501.993 290.707 504.723 292.37 506.435 293.467C508.147 294.563 510.293 295.835 511.205 296.292C512.116 296.75 514.093 298.27 515.598 299.671C517.103 301.072 519.616 303.236 521.183 304.482C522.75 305.727 524.717 307.382 525.555 308.16C526.392 308.938 527.751 310.085 528.576 310.707C529.401 311.33 533.427 314.513 537.522 317.782C541.618 321.05 546.04 324.568 547.35 325.6C548.659 326.632 550.192 327.853 550.756 328.313C551.32 328.773 552.912 329.699 554.293 330.37C555.675 331.041 556.805 331.805 556.805 332.066C556.805 333.208 554.233 335.89 553.162 335.865C551.031 335.815 546.332 332.616 540.392 327.171C539.302 326.172 535.737 323.346 532.469 320.891C526.245 316.216 520.726 311.608 515.49 306.715C511.665 303.14 503.665 297.406 500.058 295.653C498.585 294.937 497.379 294.166 497.379 293.94C497.379 293.714 496.042 292.91 494.408 292.154C492.774 291.398 489.684 289.597 487.542 288.151C485.399 286.705 483.558 285.522 483.449 285.522C483.341 285.522 481.789 284.567 480.001 283.399C478.212 282.232 474.514 280.004 471.783 278.447C465.269 274.736 454.233 268.065 447.858 263.985C442.398 260.491 432.642 254.839 431.029 254.237C429.877 253.807 428.898 255.28 428.898 257.443C428.898 258.227 428.673 259.453 428.397 260.168C427.342 262.904 425.448 270.679 424.977 274.203C424.707 276.226 423.732 280.046 422.811 282.692C420.898 288.184 418.528 295.909 415.865 305.33C413.428 313.95 412.279 317.486 410.806 320.894C410.133 322.451 409.314 324.361 408.987 325.139C408.66 325.917 408.167 326.996 407.892 327.537C407.617 328.077 407.392 328.799 407.392 329.14C407.392 329.86 404.399 337.082 403.068 339.571C401.424 342.647 396.072 355.157 396.072 355.924C396.072 356.337 395.022 358.939 393.739 361.706C392.455 364.473 390.781 368.393 390.017 370.416C388.595 374.187 383.179 386.512 380.082 393.024C378.903 395.503 378.563 396.745 379.021 396.897C380.14 397.271 382.278 402.163 383.027 406.067C383.835 410.279 386.628 418.995 389.284 425.597C390.286 428.087 391.808 432.29 392.666 434.936C393.525 437.581 394.707 440.765 395.294 442.01L396.361 444.274L401.169 444.69C405.876 445.098 613.269 444.813 703.389 444.275C747.886 444.009 808.449 443.731 967.976 443.061C1019.53 442.844 1046.89 442.533 1047.35 442.159C1048.35 441.353 1048.24 435.937 1047.15 432.035L1046.23 428.777L1048.98 425.632C1052.83 421.234 1058.6 416.619 1059.5 417.206C1060.33 417.742 1069.17 418.312 1084.28 418.802C1090.04 418.99 1095.07 419.25 1095.46 419.381C1095.85 419.513 1101.58 419.374 1108.19 419.073C1114.81 418.772 1126.33 418.401 1133.8 418.249C1141.27 418.096 1150.57 417.721 1154.46 417.415C1158.35 417.11 1165.5 416.852 1170.35 416.842C1181.57 416.82 1181.43 416.722 1181.51 425.031C1181.54 428.144 1181.73 432.925 1181.94 435.656C1182.26 439.855 1182.49 440.716 1183.47 441.24C1184.62 441.853 1230.04 441.743 1291.99 440.977C1305.84 440.806 1325.07 440.711 1334.72 440.767C1364.13 440.937 1374.16 440.637 1375.4 439.547C1376.39 438.682 1376.43 438.083 1376 431.257C1375.34 420.961 1375.3 408.92 1375.9 403.242C1376.72 395.575 1376.49 384.321 1375.18 367.586C1374.52 359.026 1373.87 349.985 1373.74 347.495C1373.61 345.004 1373.19 340.42 1372.8 337.307C1372.41 334.195 1372.14 331.266 1372.21 330.799C1372.27 330.332 1372.34 323.866 1372.37 316.431C1372.41 305.523 1372.2 301.534 1371.3 295.773C1368.92 280.689 1368.78 278.27 1368.62 248.734C1368.53 232.704 1368.31 214.494 1368.13 208.268C1367.94 202.043 1367.67 192.747 1367.52 187.611C1367.36 182.391 1367.57 173.155 1368 166.67C1368.7 156.119 1368.75 134.685 1368.08 132.783C1367.93 132.354 1367.67 121.148 1367.49 107.88C1367.2 85.4835 1366.65 72.1856 1365.88 68.7587C1365.4 66.6426 1364.3 48.6286 1364.57 47.4365C1364.7 46.8682 1364.97 47.804 1365.17 49.5161C1365.37 51.2281 1365.79 54.921 1366.11 57.7225C1366.43 60.524 1366.95 64.5989 1367.26 66.7779C1367.57 68.9568 1368.09 72.873 1368.41 75.4805C1369.41 83.6705 1370.38 131.71 1370.2 163.885C1370.09 183.188 1370.27 197.835 1370.66 202.936C1371.01 207.425 1371.41 225.36 1371.54 242.792C1371.78 275.213 1372.38 285.801 1374.87 301.652C1375.46 305.392 1375.59 309.828 1375.36 318.348C1375.11 327.853 1375.27 331.74 1376.21 339.854C1376.84 345.301 1377.52 352.56 1377.71 355.984C1377.91 359.408 1378.31 364.629 1378.61 367.586C1378.91 370.543 1379.17 373.6 1379.19 374.378C1379.27 377.177 1379.21 387.904 1379.05 399.846C1378.79 420.157 1378.84 425.899 1379.34 432.266L1379.82 438.369L1382.49 439.721C1383.96 440.464 1385.44 441.411 1385.78 441.824C1386.15 442.269 1386.66 448.129 1387.05 456.157L1387.7 469.739L1386.47 470.731C1385.8 471.277 1384.8 471.723 1384.25 471.723C1382.48 471.723 1379.29 473.344 1377.09 475.359C1375.92 476.436 1374.31 477.478 1373.51 477.675C1372.72 477.872 1371.56 478.496 1370.94 479.062C1370.32 479.627 1368.03 481.17 1365.86 482.489C1363.68 483.809 1360.8 485.734 1359.44 486.768L1356.98 488.649L1308.21 488.705C1281.39 488.735 1251.42 488.858 1241.62 488.977C1231.81 489.096 1196.54 489.345 1163.23 489.53C1129.93 489.715 1094.02 489.98 1083.43 490.12C1072.85 490.259 1038.85 490.51 1007.88 490.678C976.904 490.846 933.862 491.103 912.228 491.248C890.594 491.394 841.186 491.645 802.432 491.806C763.678 491.967 713.887 492.223 691.786 492.376C669.686 492.528 610.727 492.786 560.766 492.95C438.744 493.35 410.794 493.684 410.387 494.745C410.216 495.192 410.633 497.436 411.314 499.732C412.094 502.359 412.492 505.026 412.388 506.924C412.25 509.447 412.465 510.264 413.701 511.914C414.513 512.999 415.508 514.906 415.91 516.151C416.313 517.396 417.273 519.816 418.044 521.528C419.743 525.301 421.752 531.009 423.52 537.091C424.244 539.582 425.696 543.784 426.746 546.43C427.796 549.076 429.141 552.863 429.736 554.846C430.73 558.164 430.742 558.506 429.894 559.126C429.387 559.497 428.8 560.488 428.589 561.329C428.378 562.169 427.788 563.098 427.278 563.391C426.437 563.875 426.47 564.137 427.624 566.185C428.325 567.427 428.898 569.077 428.898 569.851C428.898 570.625 429.144 571.907 429.446 572.701C429.747 573.494 430.388 577.904 430.87 582.5C431.352 587.097 432.019 592.131 432.352 593.688C433.475 598.929 434.525 617.886 434.843 638.682C435.017 650.043 435.391 664.815 435.673 671.507C435.955 678.2 436.097 687.241 435.988 691.599C435.879 695.957 435.641 706.23 435.46 714.429C434.992 735.505 433.537 751.911 431.15 763.042C430.534 765.916 430.03 768.937 430.03 769.757C430.03 770.762 429.309 771.917 427.817 773.304C426.482 774.545 425.259 776.402 424.733 777.985C423.806 780.776 422.417 790.331 421.782 798.283C421.571 800.928 420.528 806.786 419.465 811.3C418.148 816.889 417.34 822.123 416.933 827.713C416.18 838.044 416.277 868.483 417.08 874.121C419.022 887.745 419.117 887.996 422.031 887.16C422.983 886.887 424.777 886.952 426.376 887.318C429.227 887.971 430.052 888.644 436.555 895.637C438.432 897.655 441.361 900.45 443.064 901.848C444.766 903.246 447.93 906.112 450.094 908.215C452.258 910.319 454.223 912.041 454.461 912.041C455.213 912.041 458.894 915.68 458.894 916.423C458.894 917.28 459.476 917.315 461.422 916.575C463.283 915.868 465.119 916.897 465.119 918.647C465.119 920.402 462.51 922.052 459.175 922.407C457.619 922.573 455.503 923.013 454.471 923.385C453.439 923.758 451.736 923.923 450.687 923.753C449.053 923.487 445.52 924.129 442.481 925.242C442.014 925.413 441.075 925.329 440.396 925.055L440.396 925.054ZM447.009 919.489C453.205 918.692 454.036 917.772 450.829 915.264C448.105 913.134 431.114 896.21 429.403 893.922C428.028 892.084 427.699 891.943 424.592 891.862C422.758 891.814 420.239 891.607 418.994 891.402C417.749 891.196 416.157 890.933 415.457 890.818C414.423 890.648 414.183 890.872 414.183 892.006C414.183 892.775 414.54 893.967 414.977 894.657C415.413 895.346 415.937 896.802 416.142 897.891C416.577 900.214 416.953 901.246 418.614 904.683C419.291 906.084 420.595 909.356 421.513 911.954C424.119 919.334 424.172 919.386 429.336 919.465C431.741 919.502 434.473 919.739 435.407 919.993C437.152 920.467 440.567 920.318 447.009 919.489V919.489ZM192.07 915.385C192.567 914.423 192.852 913.316 192.702 912.926C192.552 912.536 192.931 911.858 193.543 911.421C194.156 910.983 196.223 908.588 198.137 906.098C200.051 903.607 201.772 901.443 201.961 901.287C203.051 900.392 206.185 895.119 206.805 893.139C207.205 891.862 207.549 891.039 207.57 891.31C207.59 891.582 207.989 891.487 208.456 891.1C209.395 890.321 209.643 888.56 208.735 889.122C208.421 889.315 207.797 889.107 207.347 888.657C206.257 887.566 198.941 885.806 197.458 886.277C196.66 886.53 196.173 886.365 195.942 885.762C195.754 885.274 195.368 884.874 195.082 884.874C194.414 884.874 189.561 888.213 186.182 890.997C184.737 892.188 181.538 894.12 179.075 895.292C176.611 896.463 173.683 898.131 172.566 898.999C170.406 900.679 169.415 901.212 163.179 904.055C156.768 906.978 155.355 907.763 155.427 908.362C155.464 908.673 156.077 908.996 156.79 909.079C162.138 909.703 169.743 911.155 171.386 911.865C172.475 912.336 173.876 912.927 174.499 913.179C175.121 913.43 176.874 914.208 178.394 914.906C181.979 916.553 183.965 917.005 187.926 917.076C190.998 917.131 191.212 917.044 192.07 915.385ZM183.638 914.603C182.886 912.642 183.309 912.408 185.726 913.449C186.298 913.696 187.635 913.631 188.697 913.305C189.759 912.979 190.752 912.914 190.905 913.161C191.411 913.98 189.788 914.792 186.878 915.178C184.48 915.497 183.945 915.402 183.638 914.603V914.603ZM217.512 599.058C220.313 598.761 223.497 598.257 224.586 597.937C225.676 597.617 231.788 596.704 238.169 595.907C244.551 595.111 251.936 593.984 254.582 593.403C257.228 592.822 262.194 591.943 265.618 591.449C269.043 590.956 273.117 590.309 274.674 590.013C280.968 588.816 291.822 586.472 294.482 585.736C298.475 584.631 308.005 582.798 312.027 582.362C313.895 582.159 317.97 581.4 321.083 580.675C324.195 579.95 328.016 579.193 329.572 578.994C333.412 578.502 342.677 576.639 348.532 575.18C351.178 574.521 355.507 573.655 358.153 573.255C365.826 572.096 371.512 570.98 379.094 569.144C382.985 568.201 387.187 567.256 388.432 567.043C394.194 566.06 417.611 559.353 421.887 557.462L424.841 556.155L424.364 554.04C423.335 549.478 412.479 516.805 411.75 516.076C411.603 515.928 409.734 516.201 407.597 516.682C405.461 517.163 401.293 518.043 398.336 518.636C395.379 519.23 392.196 519.981 391.262 520.307C390.328 520.633 387.526 521.297 385.036 521.784C367.858 525.142 361.752 526.432 352.493 528.658C338.777 531.955 333.285 533.408 324.761 535.995C322.427 536.704 317.46 537.964 313.725 538.795C309.99 539.626 303.75 541.05 299.859 541.959C295.968 542.869 291.384 543.85 289.672 544.14C275.922 546.467 271.457 547.345 264.813 549.03C260.635 550.09 256.291 550.957 255.159 550.957C254.028 550.957 250.316 551.485 246.909 552.13C229.037 555.516 219.022 556.697 207.089 556.824C201.704 556.882 200.002 557.08 199.804 557.673C199.513 558.545 200.844 564.729 202.861 571.873C203.604 574.506 204.212 577.467 204.212 578.454C204.212 579.441 204.572 581.112 205.013 582.167C205.454 583.221 206.329 587.453 206.957 591.569C207.586 595.686 208.275 599.337 208.489 599.682C208.721 600.059 209.585 600.167 210.647 599.953C211.621 599.757 214.71 599.354 217.512 599.058V599.058ZM218.078 551.051C222.124 550.69 229.001 549.759 233.359 548.984C237.717 548.209 244.211 547.17 247.791 546.675C254.015 545.815 263.74 543.872 270.466 542.145C272.199 541.7 274.364 541.333 275.277 541.329C276.19 541.323 278.338 540.941 280.05 540.476C281.762 540.01 284.894 539.375 287.009 539.066C290.431 538.565 304.389 535.473 317.97 532.207C320.616 531.571 326.219 530.068 330.421 528.867C334.623 527.667 339.08 526.436 340.325 526.132C345.715 524.817 350.213 523.671 353.908 522.674C356.087 522.086 360.29 521.189 363.247 520.68C366.204 520.171 370.533 519.269 372.868 518.675C379.309 517.038 391.072 514.281 398.26 512.724C408.573 510.491 409.684 509.584 407.771 504.955C407.357 503.953 406.551 501.059 405.98 498.525C405.021 494.269 404.797 493.847 403.054 493.016C400.859 491.969 400.714 491.237 402.357 489.487C403.505 488.266 403.516 488.118 402.659 485.489C402.17 483.987 401.528 481.74 401.234 480.495C400.939 479.25 400.211 476.954 399.615 475.393C399.019 473.832 398.086 470.521 397.543 468.036C396.999 465.55 396.209 462.115 395.788 460.403C395.366 458.691 394.721 455.762 394.354 453.895C393.986 452.027 393.505 450.244 393.283 449.933C393.062 449.622 392.564 448.221 392.178 446.82C391.791 445.42 391.078 443.127 390.594 441.727C390.109 440.326 389.137 437.27 388.433 434.935C387.73 432.6 385.944 427.252 384.465 423.05C381.606 414.927 380.756 411.953 379.17 404.527C378.623 401.966 378.031 399.727 377.856 399.551C377.431 399.126 370.822 409.561 367.491 415.916C366.456 417.891 365.121 418.328 363.394 417.256C362.535 416.723 361.884 416.09 361.948 415.848C362.665 413.14 364.716 408.893 366.961 405.465C368.476 403.152 371.79 397.058 374.325 391.922C379.172 382.105 379.458 381.49 382.763 373.811C383.901 371.165 385.062 368.491 385.342 367.869C385.621 367.246 388.129 361.388 390.913 354.852C393.698 348.315 396.987 340.802 398.222 338.156C400.284 333.739 402.839 327.69 407.664 315.8C408.675 313.31 410.19 308.853 411.032 305.896C411.874 302.939 412.779 299.883 413.045 299.104C413.31 298.326 413.951 296.161 414.469 294.294C414.988 292.426 416.384 287.969 417.572 284.389C418.761 280.81 420.25 275.843 420.881 273.353C422.899 265.393 425.502 253.498 425.502 252.235C425.502 251.414 424.712 250.509 423.097 249.48C419.908 247.45 407.222 241.942 405.735 241.942C405.053 241.942 404.562 241.575 404.562 241.065C404.562 240.104 406.116 236.849 406.576 236.849C407.58 236.849 416.98 240.711 421.142 242.834C423.88 244.231 426.341 245.237 426.611 245.07C427.563 244.481 428.11 239.764 428.685 227.182C429.152 216.982 428.388 211.814 426.203 210.382C423.032 208.304 413.623 209.673 400.034 214.19C398.322 214.759 395.648 215.624 394.092 216.113C389.986 217.403 385.36 219.058 382.839 220.138C381.63 220.656 378.192 221.713 375.198 222.488C368.237 224.289 367.493 224.512 360.7 226.841C355.294 228.694 345.301 230.569 329.572 232.682C326.148 233.142 321.691 233.752 319.668 234.038C313.178 234.955 300.248 235.808 296.746 235.551C294.879 235.414 292.332 235.031 291.087 234.7C286.671 233.525 238.404 230.627 222.321 230.571C215.815 230.548 209.101 231.459 205.627 232.837C205.004 233.084 203.221 233.731 201.665 234.275C190.465 238.188 186.122 239.941 182.705 241.925C182.238 242.196 180.837 242.889 179.592 243.465C174.259 245.931 165.062 253.444 163.442 256.657C163.05 257.436 162.115 258.836 161.365 259.77C158.35 263.524 156.198 267.358 154.691 271.659C153.82 274.147 152.605 277.187 151.992 278.414C151.08 280.239 150.789 282.501 150.387 290.865C150.095 296.954 150.108 302.801 150.419 305.33C150.706 307.665 151.102 312.121 151.299 315.234C151.497 318.347 151.887 321.785 152.167 322.875C152.447 323.964 152.785 330.331 152.919 337.024C153.052 343.716 153.441 350.391 153.781 351.857C154.122 353.322 154.787 359.562 155.258 365.723C155.729 371.883 156.352 378.834 156.643 381.169C156.934 383.503 157.448 387.833 157.786 390.79C158.123 393.747 158.762 397.695 159.204 399.562C159.647 401.43 160.269 405.505 160.587 408.618C161.153 414.154 162.409 422.062 163.488 426.878C163.785 428.206 164.028 430.261 164.028 431.446C164.028 434.957 167.302 448.583 170.101 456.725C170.743 458.592 172.203 464.263 173.345 469.327C174.487 474.39 176.049 480.375 176.815 482.627C177.582 484.878 178.703 489.013 179.307 491.814C180.456 497.141 184.02 511.528 184.915 514.453C185.201 515.386 185.993 518.061 186.676 520.395C188.471 526.536 188.588 526.885 191.077 533.412C196.232 546.937 196.954 549.042 196.905 550.414L196.854 551.851L203.787 551.78C207.6 551.741 214.031 551.413 218.078 551.051H218.078ZM747.534 488.432C762.009 488.275 820.84 488.016 878.271 487.858C1038.91 487.414 1098.68 487.099 1204.83 486.137C1221.8 485.983 1254.01 485.742 1276.43 485.602C1298.84 485.461 1325.83 485.168 1336.4 484.949L1355.63 484.553L1359.61 482.481C1361.79 481.342 1364.7 479.665 1366.07 478.754C1367.44 477.844 1368.97 476.845 1369.47 476.534C1373.11 474.263 1376.19 471.543 1376.07 470.705C1375.93 469.805 1372.2 469.746 1319.1 469.802C1259.23 469.866 1155.37 470.428 1120.5 470.878C1088.37 471.293 1019.56 471.697 924.963 472.026C877.337 472.191 818.378 472.434 793.943 472.566C769.508 472.698 682.024 472.945 599.535 473.115C454.772 473.414 422.684 473.636 413.617 474.401C411.283 474.598 408.408 474.718 407.228 474.667C405.867 474.609 404.975 474.858 404.787 475.349C404.453 476.219 407.768 487.434 408.707 488.61C409.21 489.24 435.414 489.313 565.264 489.042C651.038 488.864 733.06 488.589 747.534 488.432V488.432ZM531.099 470.028C541.347 470.001 574.053 469.977 603.78 469.975C633.507 469.975 674.384 469.875 694.617 469.758C714.85 469.641 778.903 469.4 836.956 469.223C1029.51 468.636 1105.71 468.334 1140.31 468.018C1159.14 467.847 1198.49 467.594 1227.75 467.456C1346.93 466.895 1378.88 466.593 1380.68 466.012C1381.67 465.69 1382.62 464.997 1382.77 464.472C1382.92 463.946 1383.13 459.912 1383.22 455.506L1383.39 447.496L1381.81 446.026L1380.22 444.557L1352.94 444.551C1241.74 444.525 935.618 445.687 929.491 446.157C928.868 446.205 906.202 446.246 879.12 446.247C785.375 446.253 623.585 446.963 556.805 447.661C541.708 447.818 507.963 447.971 481.816 447.999C455.668 448.027 426.193 448.196 416.315 448.375C399.996 448.671 398.327 448.79 398.046 449.674C397.876 450.21 398.218 452.524 398.806 454.818C399.393 457.112 400.177 460.262 400.546 461.819C400.916 463.375 401.461 465.565 401.757 466.685L402.296 468.722L406.294 468.796C408.493 468.837 410.595 469.066 410.964 469.306C411.525 469.67 511.143 470.543 512.139 470.193C512.32 470.129 520.852 470.056 531.099 470.029V470.028ZM1059.27 442.179C1059.74 441.702 1059.94 438.503 1059.94 431.408C1059.94 419.41 1059.75 419.066 1055.37 423.376C1053.84 424.885 1052.59 426.345 1052.59 426.62C1052.59 426.895 1052.08 427.838 1051.45 428.715C1050.54 429.99 1050.43 430.608 1050.88 431.788C1051.19 432.601 1051.71 434.969 1052.04 437.05C1052.73 441.366 1053.2 442.133 1055.32 442.457C1058.15 442.89 1058.59 442.859 1059.27 442.179ZM1169.04 441.95C1173.16 441.763 1176.65 441.423 1176.8 441.194C1176.94 440.965 1177.23 437.091 1177.44 432.585L1177.83 424.391L1176.21 423.123C1174.7 421.933 1174.2 421.872 1168.07 422.13C1164.48 422.282 1152.11 422.664 1140.59 422.979C1129.08 423.295 1117.62 423.721 1115.13 423.925C1101.13 425.077 1080.68 424.652 1070.04 422.987C1064.17 422.07 1064.05 422.218 1064.28 429.954C1064.52 437.594 1064.95 441.181 1065.77 442.19C1066.26 442.801 1074.96 442.877 1113.95 442.612C1140.12 442.435 1164.91 442.136 1169.04 441.95V441.95ZM8.24761 369.325C9.57054 368.128 10.6529 366.885 10.6529 366.562C10.6529 366.239 11.2548 365.255 11.9904 364.375C14.2179 361.71 14.2357 360.761 12.1214 357.375C11.0605 355.676 9.22451 352.694 8.04132 350.748C6.85814 348.803 5.71591 347.211 5.50306 347.211C3.72217 347.211 3.15527 363.735 4.7118 370.274C5.11385 371.963 5.42331 371.88 8.24761 369.325V369.325ZM206.475 906.22C206.475 905.377 209.34 903.551 210.661 903.551C211.155 903.551 211.878 903.042 212.266 902.419C212.655 901.796 213.182 901.287 213.437 901.287C213.691 901.287 213.732 901.559 213.527 901.891C213.052 902.658 215.089 902.353 215.664 901.57C215.925 901.214 216.083 901.254 216.088 901.678C216.093 902.049 215.826 902.519 215.496 902.724C215.165 902.928 214.66 903.713 214.373 904.468C213.957 905.562 213.574 905.771 212.488 905.499C211.706 905.302 210.388 905.538 209.394 906.052C207.296 907.137 206.475 907.184 206.475 906.22H206.475ZM157.803 896.193C157.803 895.882 158.376 895.631 159.076 895.636C160.106 895.646 160.187 895.75 159.501 896.193C158.403 896.902 157.803 896.902 157.803 896.193ZM215.922 870.9C215.748 870.618 215.812 870.055 216.063 869.647C216.315 869.24 216.664 869.137 216.838 869.418C217.012 869.7 216.948 870.264 216.696 870.671C216.444 871.079 216.096 871.182 215.922 870.9V870.9ZM563.738 335.308C562.919 334.979 562.478 334.335 562.5 333.505C562.556 331.44 568.557 327.937 593.918 315.161C606.657 308.743 617.462 303.18 617.929 302.798C620.018 301.091 631.505 294.933 637.034 292.557C646.951 288.295 667.74 280.994 669.956 280.994C670.565 280.994 671.208 280.759 671.386 280.471C671.563 280.184 672.533 279.769 673.541 279.55C674.549 279.33 676.892 278.668 678.748 278.077C684.401 276.277 694.287 274.673 700.635 274.525L706.653 274.385L709.974 271.466C711.8 269.86 714.312 268.004 715.557 267.341C716.803 266.678 718.713 265.441 719.802 264.591C722.487 262.497 723.15 262.192 730.001 259.889C740.013 256.524 742.47 256.056 750.836 255.928C757.163 255.831 758.876 255.978 760.008 256.716C760.774 257.215 762.627 257.806 764.125 258.029C766.661 258.407 767.106 258.275 770.525 256.132C772.546 254.864 774.317 253.828 774.46 253.828C774.603 253.828 776.979 252.554 779.74 250.998C782.501 249.441 785.079 248.168 785.469 248.168C785.859 248.168 786.461 247.793 786.806 247.336C787.575 246.318 808.983 235.168 819.977 230.058C822.934 228.684 825.999 227.125 826.787 226.594C827.575 226.063 831.501 223.92 835.512 221.833C839.522 219.746 844.226 217.119 845.964 215.996C850.96 212.767 852.201 212.071 857.614 209.46C860.415 208.109 867.282 204.783 872.874 202.069C878.465 199.356 885.851 195.855 889.287 194.29C892.722 192.725 898.381 189.945 901.862 188.113C905.343 186.28 908.696 184.78 909.312 184.78C909.928 184.78 911.786 183.889 913.44 182.799C915.094 181.71 916.767 180.819 917.157 180.819C917.826 180.819 920.152 184.703 920.152 185.82C920.152 186.106 918.688 187.071 916.898 187.965C915.108 188.859 913.517 189.727 913.361 189.893C913.205 190.059 911.295 190.926 909.116 191.82C898.343 196.239 892.961 198.883 887.985 202.203C885.985 203.537 882.282 205.662 879.754 206.925C877.227 208.188 874.394 209.704 873.461 210.293C872.527 210.882 871.126 211.627 870.348 211.949C866.362 213.598 859.014 217.555 856.69 219.304C855.242 220.393 852.311 222.242 850.176 223.411C848.041 224.58 845.913 225.75 845.446 226.01C844.979 226.271 843.323 227.087 841.767 227.825C840.211 228.562 838.173 229.73 837.239 230.419C836.305 231.108 830.594 234.506 824.548 237.971C818.502 241.436 812.825 244.885 811.932 245.636C811.04 246.388 808.135 248.219 805.478 249.707C802.821 251.195 800.197 252.671 799.647 252.987C789.57 258.772 771.97 271.514 771.617 273.279C771.485 273.942 771.242 278.032 771.078 282.368C770.726 291.652 770.208 292.822 767.374 290.728C766.448 290.043 765.451 289.483 765.157 289.483C764.864 289.483 764.357 288.719 764.032 287.785C763.706 286.851 763.223 286.087 762.958 286.087C762.693 286.087 762.165 285.224 761.783 284.169C760.874 281.655 757.914 280.225 756.999 281.859C756.135 283.403 754.5 284.781 750.364 287.453C747.724 289.159 746.635 290.22 746.508 291.212C746.368 292.306 745.564 292.94 742.673 294.239C739.22 295.79 738.848 295.845 736.009 295.209C732.422 294.407 730.062 292.229 728.298 288.095C727.249 285.636 727.18 284.965 727.742 282.624C728.094 281.156 728.871 279.513 729.469 278.972C730.066 278.431 730.555 277.773 730.555 277.51C730.555 276.866 728.268 276.907 725.328 277.605C716.171 279.778 710.929 280.56 704.521 280.707C697.136 280.877 689.743 281.968 682.84 283.906C680.601 284.534 677.306 285.185 675.516 285.353C673.726 285.52 672.261 285.881 672.261 286.155C672.261 286.429 671.857 286.653 671.362 286.653C669.951 286.653 660.453 289.978 656.698 291.786C654.83 292.686 650.12 294.589 646.231 296.017C642.343 297.444 637.122 299.707 634.629 301.045C627.35 304.953 622.065 307.96 620.362 309.162C617.558 311.144 610.845 314.284 608.553 314.686C607.329 314.901 605.468 315.568 604.417 316.168C603.367 316.769 600.947 317.913 599.041 318.71C594.731 320.513 579.264 328.243 574.437 331.006C572.462 332.137 570.642 333.062 570.393 333.062C570.145 333.062 569.342 333.694 568.609 334.467C567.215 335.937 565.877 336.168 563.738 335.308V335.308ZM741.265 287.991C742.378 286.859 745.582 284.589 748.383 282.947C751.185 281.304 753.403 279.747 753.312 279.487C753.012 278.621 749.167 277.62 745.639 277.488C742.33 277.364 741.97 277.488 738.364 279.981C736.278 281.425 733.986 282.689 733.271 282.79C732.315 282.926 731.921 283.405 731.785 284.599C731.337 288.514 732.72 289.944 737.02 290.013C738.849 290.043 739.596 289.686 741.265 287.991V287.991ZM767.541 275.334C767.687 271.754 767.893 268.066 767.999 267.138C768.188 265.484 768.092 265.417 763.098 263.684C758.057 261.936 757.915 261.92 749.232 262.187C743.681 262.358 739.759 262.743 738.551 263.236C737.502 263.664 736.218 264.015 735.7 264.015C735.181 264.015 733.757 264.524 732.536 265.147C731.315 265.769 729.973 266.279 729.554 266.279C728.697 266.279 719.548 270.93 717.863 272.222C717.263 272.682 716.889 273.176 717.033 273.319C717.176 273.462 720.341 273.101 724.066 272.516C738.57 270.237 748.061 270.695 755.913 274.052C759.847 275.733 761.086 276.604 763.51 279.391C765.104 281.223 766.602 282.524 766.841 282.282C767.08 282.04 767.395 278.914 767.541 275.334V275.334ZM777.371 261.044C779.526 259.409 781.781 257.75 782.381 257.357C786.917 254.383 786.901 254.397 785.737 254.408C785.114 254.414 783.968 254.917 783.19 255.525C782.412 256.134 781.457 256.638 781.067 256.645C780.678 256.652 780.36 256.861 780.36 257.11C780.36 257.358 779.524 257.864 778.503 258.234C777.481 258.603 775.42 259.682 773.923 260.632C771.663 262.065 771.317 262.499 771.888 263.186C772.266 263.642 772.772 264.015 773.013 264.015C773.254 264.015 775.215 262.678 777.371 261.044V261.044ZM942.914 233.319C942.571 232.905 942.034 231.892 941.721 231.068C941.202 229.705 941.289 229.539 942.678 229.238C943.518 229.056 945.917 228.975 948.008 229.058C953.437 229.273 954.091 228.511 954.51 221.486C954.75 217.451 954.59 215.187 953.855 212.257C953.05 209.046 953.005 208.143 953.597 207.036C954.148 206.008 954.159 205.543 953.646 205.03C952.754 204.138 952.814 201.015 953.795 197.328C954.859 193.331 954.234 186.684 952.688 185.553C951.297 184.536 947.96 184.571 945.428 185.628C943.507 186.431 943.338 186.41 942.247 185.239C941.612 184.558 941.094 183.781 941.094 183.513C941.094 182.585 945.224 181.304 948.217 181.304C952.544 181.304 955.141 182.71 956.503 185.789C957.896 188.937 958.529 194.906 957.884 198.801C957.53 200.936 957.583 202.019 958.07 202.606C958.445 203.057 960.759 203.858 963.212 204.385C966.368 205.063 968.049 205.743 968.957 206.71C970.218 208.052 970.221 208.09 969.142 208.879C968.461 209.377 966.524 209.704 964.048 209.739C958.27 209.821 957.26 210.204 957.046 212.398C956.935 213.537 957.22 214.571 957.807 215.158C958.584 215.935 958.694 216.889 958.443 220.672C958.037 226.799 957.308 230.913 956.444 231.954C955.929 232.575 954.299 232.866 950.536 233.009C947.677 233.118 944.933 233.401 944.439 233.639C943.9 233.897 943.288 233.768 942.915 233.319L942.914 233.319ZM291.197 223.769C290.072 223.115 289.011 220.932 288.749 218.738C288.492 216.586 287.475 209.502 286.49 203.015C285.452 196.172 285.377 184.111 286.335 178.037C286.708 175.676 287.611 172.487 288.342 170.95C289.073 169.413 289.672 167.976 289.672 167.757C289.672 167.538 288.682 166.962 287.471 166.478C285.233 165.582 278.44 161.42 273.825 158.117C266.868 153.138 258.803 141.421 255.557 131.58C253.911 126.589 253.522 122.949 253.17 109.224C253.027 103.621 252.638 94.5802 252.308 89.1328C251.885 82.1638 251.884 77.635 252.305 73.8519C254.655 52.7356 255.903 46.9883 259.788 39.391C260.66 37.6862 261.374 36.0195 261.374 35.6874C261.374 35.3553 262.648 32.9433 264.204 30.3274C265.76 27.7116 267.033 25.3674 267.033 25.1182C267.033 24.8689 268.244 23.0616 269.725 21.1019C278.594 9.36017 280.313 7.92367 288.22 5.64198C293.31 4.17327 296.485 3.99089 296.863 5.14546C296.99 5.53293 295.72 5.89991 293.511 6.11409C289.697 6.48384 285.047 7.93477 282.831 9.44658C275.413 14.507 264.742 31.4913 260.5 44.9879C259.962 46.6999 259.157 48.8229 258.71 49.7058C258.264 50.5886 257.679 53.5174 257.41 56.2143C257.142 58.9112 256.625 63.5372 256.262 66.4944C255.848 69.8615 255.729 75.3613 255.944 81.2094C256.133 86.3455 256.539 97.5515 256.845 106.112C257.513 124.816 258.146 128.535 262.016 136.509C266.289 145.316 271.767 152.01 278.352 156.47C287.842 162.898 292.805 165.017 300.261 165.827C305.509 166.398 310.672 164.432 319.378 158.548C325.481 154.422 328.461 150.533 331.295 142.988C332.424 139.982 333.851 136.249 334.465 134.693C335.079 133.136 336.092 129.443 336.715 126.486C339.527 113.143 339.575 112.414 339.648 81.7753L339.718 52.6283L337.554 45.9682C336.008 41.2072 334.448 37.8039 332.083 34.0327C330.264 31.1312 328.236 27.3155 327.576 25.5533C326.917 23.7912 326.174 22.3494 325.926 22.3494C325.677 22.3494 325.163 21.2376 324.782 19.8787C323.328 14.6839 316.464 8.22779 309.197 5.22054C306.548 4.12418 300.069 2.50791 297.444 2.28879C294.865 2.07346 294.765 2.04075 294.765 1.40887C294.765 0.289435 302.432 0.805139 307.462 2.26297C319.314 5.69729 325.04 10.2148 329.774 19.8639C333.595 27.6517 334.978 30.3976 338.411 37.0136C339.931 39.9429 341.174 42.9303 341.174 43.6523C341.174 44.9133 342.417 48.7758 343.454 50.739C343.727 51.2563 344.081 64.7545 344.241 80.7349C344.475 104.247 344.373 110.978 343.705 116.016C342.13 127.898 341.684 129.845 338.452 138.937C337.843 140.649 336.925 143.466 336.411 145.196C335.87 147.019 334.533 149.484 333.232 151.058C331.997 152.553 330.987 153.975 330.987 154.218C330.987 154.461 329.522 156.183 327.733 158.044C323.411 162.536 314.83 167.601 309.636 168.724C306.032 169.504 300.18 169.443 295.756 168.581C294.565 168.349 294.199 168.496 294.199 169.209C294.199 169.722 293.584 170.952 292.831 171.942C291.255 174.018 290.196 178.978 289.909 185.629C289.721 190.01 291.43 207.619 292.491 212.229C292.778 213.474 293.272 215.707 293.59 217.19C293.908 218.673 294.4 220.328 294.683 220.868C295.384 222.207 294.474 224.402 293.227 224.38C292.672 224.37 291.759 224.096 291.197 223.769H291.197ZM373.807 213.484L372.199 212.197L372.542 203.441C372.73 198.625 373.038 193.341 373.226 191.699C373.414 190.058 373.624 188.02 373.692 187.172C373.76 186.323 374.105 184.928 374.46 184.072C375.148 182.41 375.383 173.836 375.28 154.218C375.187 136.609 375.547 116.67 376.211 102.716C376.529 96.0231 377.05 80.3601 377.369 67.909C377.687 55.4578 378.205 40.0789 378.521 33.7336C378.836 27.3883 379.094 21.4669 379.094 20.575C379.094 19.2225 379.329 18.9533 380.509 18.9533C381.956 18.9533 382.396 18.1806 381.326 17.5191C380.998 17.316 380.807 16.7913 380.902 16.3528C381.038 15.7259 382.827 15.5039 389.281 15.3127C393.795 15.1791 403.472 14.7888 410.787 14.4456C418.102 14.1023 428.927 13.8619 434.841 13.9113C440.755 13.9605 451.579 13.651 458.894 13.223C475.282 12.2641 508.579 12.4317 517.471 13.5177C520.895 13.9358 524.954 14.3254 526.49 14.3833C528.026 14.4413 529.513 14.6304 529.793 14.8037C530.073 14.977 538.24 15.2124 547.94 15.3269C566.655 15.5478 588.672 16.379 598.97 17.2533C618.957 18.9504 649.646 19.4211 670.847 18.3556C686.031 17.5924 701.11 17.9013 710.464 19.1671C717.337 20.0973 720.846 20.2177 737.913 20.1098C744.294 20.0696 752.953 20.2385 757.156 20.4853C761.358 20.7322 768.871 20.8946 773.851 20.8461C778.832 20.7974 795.641 20.7413 811.205 20.7208C826.769 20.7004 844.563 20.6761 850.747 20.667C856.931 20.658 865.972 20.9071 870.838 21.2208C875.705 21.5346 884.78 21.9186 891.005 22.074C897.231 22.2295 903.535 22.4913 905.015 22.6557C906.495 22.8202 912.225 23.0667 917.749 23.2035C927.054 23.434 944.441 24.1662 958.638 24.9253C965.125 25.2723 1015.56 25.9259 1035.04 25.9157C1046.54 25.9097 1051.65 25.7146 1063.62 24.8244C1066.43 24.6162 1069.86 24.3727 1071.26 24.2834C1072.66 24.1941 1077.5 23.7468 1082.02 23.2895C1093.08 22.1688 1129.01 21.5632 1141.16 22.2927C1149.59 22.7988 1174.33 23.7101 1179.08 23.6891C1183.95 23.6676 1213.36 22.8982 1218.98 22.645C1236.92 21.8372 1252.67 21.8203 1263.69 22.5975C1270.07 23.0472 1280.26 23.563 1286.33 23.7438C1298.65 24.111 1310.35 24.9728 1313.78 25.7658C1315.02 26.054 1322.79 26.688 1331.04 27.1745C1339.29 27.661 1346.42 28.1703 1346.89 28.3062C1347.35 28.4421 1351.64 28.6015 1356.42 28.6604C1364.97 28.7659 1365.11 28.7879 1366.01 30.1656C1367.18 31.9422 1367.05 35.7343 1365.78 37.1385C1364.84 38.1827 1364.77 38.1634 1363.3 36.4043C1361.86 34.6763 1361.57 34.5846 1356.75 34.2998C1353.97 34.1359 1349.72 33.9906 1347.31 33.9768C1344.9 33.9632 1342.93 33.8017 1342.93 33.6184C1342.93 33.4351 1341.98 33.318 1340.82 33.3582C1339.66 33.3984 1337.18 33.2305 1335.3 32.9851C1333.42 32.7396 1329.72 32.3989 1327.08 32.2279C1324.43 32.057 1317.43 31.5475 1311.51 31.0956C1305.6 30.6437 1295.03 30.0195 1288.03 29.7084C1281.02 29.3973 1271.09 28.902 1265.95 28.6077C1256.48 28.0652 1231.52 28.1958 1206.81 28.9173C1184.14 29.5793 1148.84 29.2374 1142.29 28.2926C1139.91 27.9488 1115.6 27.9393 1102.39 28.2773C1090.41 28.5837 1078.3 29.4388 1073.81 30.2946C1072.25 30.5916 1067.8 30.9526 1063.91 31.0968C1060.02 31.241 1055.18 31.6089 1053.15 31.9142C1049.34 32.4904 1019.7 32.2912 1012.69 31.6422C1010.51 31.4406 1008.44 31.0436 1008.08 30.76C1007.67 30.4307 1007.33 30.5251 1007.14 31.021C1006.9 31.6654 1003.1 31.765 984.865 31.6057C964.544 31.4283 954.319 31.189 953.969 30.8827C953.891 30.8146 950.143 30.7358 945.641 30.7076C941.138 30.6793 937.955 30.4606 938.566 30.2215C939.514 29.851 939.448 29.7809 938.122 29.747C937.266 29.7249 936.565 29.9891 936.565 30.3337C936.565 30.698 936.151 30.801 935.575 30.5798C935.03 30.3705 928.09 30.0943 920.152 29.966C912.215 29.8377 902.282 29.5967 898.08 29.4305C890.929 29.1475 888.299 29.013 876.008 28.3015C869.074 27.9001 827.865 26.6593 824.505 26.7508C823.727 26.7717 817.569 26.941 810.82 27.1264C803.629 27.3241 798.418 27.2498 798.231 26.947C798.038 26.6357 796.984 26.6386 795.58 26.954C791.034 27.9755 722.485 27.4858 714.889 26.3776C705.971 25.0765 685.628 24.4899 677.072 25.287C668.024 26.1299 619.954 26.0338 611.421 25.1557C605.828 24.5802 598.93 24.0246 594.442 23.7883C592.574 23.6899 585.952 23.3443 579.727 23.0201C573.501 22.6961 560.894 22.4042 551.712 22.3715C542.529 22.3387 533.36 22.0814 531.337 21.7994C529.314 21.5175 525.366 21.1469 522.565 20.976C519.763 20.805 514.797 20.4241 511.529 20.1294C500.605 19.1447 477.336 18.7941 467.742 19.4696C447.703 20.8808 441.993 21.0957 436.766 20.6353C423.047 19.4269 384.924 20.406 383.256 22.0096C382.462 22.7737 381.99 34.7484 381.705 61.401C381.488 81.7495 380.861 107.949 380.487 112.337C380.214 115.543 379.912 158.507 380.035 176.574C380.086 184.045 380.109 191.049 380.086 192.138C380.063 193.227 380.247 196.686 380.496 199.823C380.745 202.961 380.771 206.717 380.553 208.171C380.213 210.435 379.97 210.815 378.858 210.815C377.885 210.815 377.431 211.265 377.045 212.61C376.386 214.908 375.788 215.069 373.807 213.484L373.807 213.484ZM1097.04 192.37C1094.55 191.459 1092.2 189.512 1092.2 188.36C1092.2 187.363 1093.29 187.398 1093.68 188.407C1094.18 189.726 1097.37 190.716 1100.98 190.672C1107.54 190.592 1113.71 186.219 1113.71 181.648C1113.71 179.992 1112.26 174.913 1109.98 168.559C1109.51 167.263 1108.77 166.066 1108.33 165.898C1107.9 165.73 1106.03 166.371 1104.18 167.323C1100.45 169.25 1098.97 169.153 1097.95 166.915C1096.83 164.46 1097.17 161.916 1098.96 159.457C1101.25 156.294 1102.8 155.35 1105.7 155.35H1108.19L1107.84 157.14C1107.6 158.319 1107.75 159.237 1108.27 159.829C1109.28 160.966 1114.77 177.331 1115.41 181.101C1115.9 184.029 1115.24 188.316 1114.05 189.822C1113.71 190.261 1112.15 191.214 1110.6 191.939C1107.25 193.499 1100.69 193.708 1097.04 192.37V192.37ZM1104.2 163.75C1106.18 162.358 1106.74 160.586 1105.57 159.422C1104.76 158.605 1104.55 158.648 1103.2 159.91C1101.66 161.343 1100.13 163.881 1100.13 164.981C1100.13 165.794 1102.17 165.175 1104.2 163.75ZM1145.76 173.013C1145.61 172.767 1144.85 170.03 1144.07 166.929C1142.49 160.651 1141.46 153.939 1141.4 149.508C1141.38 147.896 1141.16 146.068 1140.92 145.446C1140.67 144.823 1140.59 143.995 1140.73 143.606C1141.34 142 1156.92 143.57 1158.99 145.446C1160.23 146.571 1159.95 147.615 1158.52 147.198C1158 147.047 1156.17 146.785 1154.46 146.616C1152.75 146.447 1150.07 146.155 1148.5 145.969C1146.18 145.692 1145.4 145.835 1144.28 146.738C1142.97 147.803 1142.94 147.967 1143.59 150.793C1143.97 152.413 1144.27 154.562 1144.27 155.568C1144.27 158.633 1145.12 159.145 1150.78 159.487C1156.74 159.847 1157.86 160.185 1157.86 161.636C1157.86 162.596 1157.4 162.707 1153.44 162.707C1151.01 162.707 1148.33 163.026 1147.48 163.415C1146.13 164.035 1145.97 164.367 1146.22 166.103C1147.15 172.559 1147.2 173.461 1146.63 173.461C1146.31 173.461 1145.91 173.259 1145.76 173.013V173.013ZM1268.15 170.242C1263.95 166.234 1262.56 163.674 1262.56 159.947C1262.56 156.587 1263.9 153.27 1266.87 149.303C1268.08 147.689 1269.34 145.924 1269.67 145.381C1270.38 144.218 1272.18 144.67 1272.18 146.012C1272.18 146.498 1270.81 148.735 1269.13 150.982C1265.23 156.213 1264.34 158.022 1264.01 161.376L1263.74 164.104L1267.49 167.65C1269.55 169.601 1271.42 171.197 1271.65 171.197C1272.33 171.197 1272.74 172.832 1272.15 173.196C1271.85 173.381 1270.05 172.052 1268.15 170.242V170.242ZM1165.22 171.886C1164.26 171.105 1163.96 170.215 1163.89 167.957C1163.81 165.332 1164 164.828 1165.78 162.974C1167.61 161.073 1167.96 160.933 1170.31 161.185C1172.61 161.432 1173.21 161.845 1176.63 165.578C1178.88 168.022 1181.16 169.946 1182.25 170.306C1184.33 170.995 1185 172.154 1183.62 172.684C1183.05 172.906 1181.52 172.23 1179.57 170.889L1176.45 168.739L1172.6 170.817C1168.28 173.155 1167.02 173.337 1165.22 171.886V171.886ZM1170.89 168.226C1174.76 166.277 1174.56 163.076 1170.63 164.061C1169.01 164.47 1165.78 167.549 1165.78 168.694C1165.78 169.885 1168.01 169.68 1170.89 168.226V168.226ZM1210.51 171.234C1210.19 170.632 1209.92 169.613 1209.92 168.97C1209.92 167.161 1207.93 165.537 1205.71 165.537C1204.63 165.537 1203.11 165.243 1202.32 164.882C1200.12 163.882 1201.52 162.707 1204.92 162.707C1208.33 162.707 1208.5 162.357 1207.78 156.931C1207.48 154.661 1207.34 152.693 1207.46 152.558C1208.1 151.842 1208.94 153.963 1209.37 157.384C1209.92 161.879 1210.69 162.707 1214.28 162.707C1217.15 162.707 1217.68 164.083 1215.16 164.997C1211.19 166.436 1211.01 166.647 1211.41 169.598C1211.79 172.483 1211.48 173.046 1210.51 171.234ZM1290.58 171.553C1289.64 170.869 1289.71 170.62 1291.63 167.832C1293.85 164.605 1294.22 162.119 1293.1 158.065C1292.42 155.61 1288.94 150.964 1285.25 147.593C1283.6 146.078 1282.98 145.204 1283.56 145.188C1284.66 145.157 1289.35 150.463 1292.44 155.247C1294.38 158.242 1294.78 159.399 1295.11 162.891C1295.4 165.989 1295.28 167.511 1294.64 169.055C1293.57 171.605 1291.99 172.582 1290.58 171.553V171.553ZM1224.92 171.377C1222.64 170.911 1221.27 169.295 1220.93 166.669C1220.63 164.39 1220.77 163.929 1222.3 162.283C1223.67 160.811 1224.45 160.444 1226.23 160.444C1228.78 160.444 1231.43 162.196 1231.43 163.88C1231.43 164.825 1231.01 164.971 1228.32 164.971C1225.96 164.971 1224.93 165.246 1224.07 166.103C1221.76 168.42 1222.8 168.933 1229.83 168.933C1233.65 168.933 1234.86 169.11 1234.69 169.64C1234.12 171.365 1229.17 172.245 1224.92 171.377V171.377ZM1121.76 169.916C1118.94 166.911 1117.9 161.048 1119.8 158.866C1120.44 158.13 1121.81 157.604 1123.7 157.376C1126.38 157.052 1126.8 157.171 1129.07 158.901C1133.3 162.124 1133.42 165.123 1129.48 168.948C1126.67 171.672 1123.75 172.037 1121.76 169.916V169.916ZM1127.48 166.036C1130.29 163.72 1130.19 161.783 1127.18 160.171L1125.08 159.049L1123.3 160.736C1120.83 163.078 1120.25 164.783 1121.35 166.463C1122.59 168.351 1124.86 168.193 1127.48 166.036V166.036ZM1193.16 170.595C1191.48 170.096 1189.69 168.603 1190.18 168.11C1190.31 167.984 1191.64 168.144 1193.15 168.465C1195.02 168.863 1196.07 168.864 1196.47 168.471C1197.34 167.595 1194.45 164.974 1192.61 164.974C1190.77 164.974 1187.5 163.036 1186.64 161.43C1186.13 160.473 1186.2 160.111 1187.05 159.495C1189.4 157.771 1196.36 156.893 1196.32 158.323C1196.31 158.713 1195.1 159.768 1193.64 160.668L1190.96 162.306L1193.78 163.26C1195.82 163.95 1197.04 164.825 1198.19 166.409C1200.41 169.465 1200.1 170.886 1197.19 171.02C1195.95 171.077 1194.13 170.887 1193.16 170.597V170.595ZM1073.53 168.367C1072.91 167.745 1072.4 167.001 1072.4 166.715C1072.4 166.43 1072.24 165.793 1072.05 165.301C1071.52 163.91 1073.69 164.183 1075.07 165.679C1075.95 166.641 1076.12 167.263 1075.75 168.226C1075.15 169.784 1074.96 169.797 1073.53 168.367ZM1246.46 167.859C1244.17 163.432 1244.32 156.066 1246.72 154.78C1247.95 154.123 1253.28 153.804 1253.83 154.355C1254.69 155.219 1253.45 156.346 1251.25 156.698C1247.93 157.228 1246.34 158.436 1245.98 160.71C1245.69 162.479 1246.95 167.093 1248.01 168.152C1248.59 168.733 1248.5 169.499 1247.86 169.499C1247.56 169.499 1246.93 168.761 1246.46 167.859ZM996.539 165.078C995.439 164.152 993.813 161.958 992.925 160.202C991.514 157.414 991.349 156.58 991.619 153.604C992.172 147.498 996.588 142.197 1002.95 139.999C1004.51 139.46 1005.36 139.423 1006.06 139.865C1007.55 140.804 1007.54 142.152 1006.04 142.529C1005.31 142.712 1003.14 143.877 1001.22 145.118C998.356 146.971 997.424 147.983 996.013 150.78C994.831 153.121 994.294 155.01 994.294 156.823C994.294 159.115 994.559 159.711 996.315 161.367C997.782 162.751 998.856 163.273 1000.24 163.273C1003.63 163.273 1010.95 162.081 1012.63 161.252C1014.93 160.121 1015.52 160.23 1016.29 161.925C1016.87 163.182 1016.82 163.519 1015.96 164.16C1014.42 165.311 1009.87 166.193 1003.91 166.493C998.604 166.76 998.514 166.743 996.539 165.078H996.539ZM1020.78 165.679C1020.31 165.134 1019.46 163.877 1018.9 162.885C1018.01 161.339 1017.96 160.775 1018.53 158.924C1019.44 155.986 1022.26 151.633 1023.99 150.498C1025.49 149.514 1028.25 149.769 1028.25 150.891C1028.25 151.229 1027.07 152.816 1025.62 154.418C1022.73 157.614 1020.61 161.725 1021.14 163.107C1021.41 163.803 1022.02 163.916 1024.03 163.641C1029.52 162.888 1031.68 160.565 1030.65 156.51C1030.33 155.246 1030.27 154.086 1030.52 153.934C1030.96 153.662 1033.15 156.026 1035.24 159.027C1036.61 160.982 1039.46 162.703 1041.34 162.705C1042.97 162.705 1044.41 164.008 1043.83 164.947C1042.94 166.388 1037.95 165.133 1036.21 163.028C1035.17 161.78 1033.19 161.927 1032.32 163.315C1030.54 166.167 1022.6 167.793 1020.78 165.679V165.679ZM1050.96 164.768C1050.6 164.345 1049.8 162.499 1049.16 160.665C1048.24 158.005 1048.09 156.587 1048.38 153.652C1049.02 147.418 1050.9 146.706 1058.49 149.837C1065.43 152.699 1064.53 154.409 1057.38 151.949C1053.71 150.686 1052.18 150.883 1051.49 152.71C1050.91 154.271 1051.26 160.723 1052.01 162.129C1053.26 164.45 1052.42 166.533 1050.96 164.768ZM1322.27 129.849C1321.33 129.63 1319.14 129.42 1317.39 129.383C1311.03 129.249 1310.82 129.116 1309.53 124.576C1306.59 114.251 1306.43 114.035 1301.66 114.035C1298.03 114.035 1296.87 113.276 1297.18 111.095C1297.35 109.918 1297.7 109.776 1300.76 109.644C1307.85 109.34 1307.96 109.167 1308.25 98.4709C1308.52 88.6015 1308.56 88.3297 1309.86 88.0757C1311.12 87.8293 1318.44 89.0976 1319.86 89.8084C1321.87 90.8157 1320.79 91.3481 1317.32 91.0547C1314.35 90.8039 1313.47 90.9512 1311.86 91.9658L1309.94 93.1759L1310.25 103.181C1310.54 112.55 1310.49 113.262 1309.46 114.379C1308.36 115.565 1308.37 115.606 1309.98 120.459C1310.87 123.146 1311.78 125.526 1312 125.747C1312.22 125.968 1315.13 126.288 1318.47 126.459C1324.31 126.758 1324.54 126.818 1324.72 128.108C1324.97 129.877 1324.33 130.334 1322.27 129.849ZM939.323 128.949C938.831 128.358 938.42 125.813 938.201 122.016C938.011 118.716 937.585 113.596 937.253 110.639C936.922 107.682 936.528 103.161 936.378 100.593C936.14 96.5057 936.224 95.924 937.049 95.924C938.728 95.924 939.389 98.0455 939.999 105.4C940.328 109.371 940.829 113.511 941.112 114.601C941.394 115.69 941.781 118.492 941.972 120.826C942.163 123.161 942.542 125.779 942.814 126.643C943.086 127.508 943.165 128.591 942.989 129.049C942.56 130.169 940.287 130.107 939.323 128.949V128.949ZM962.179 128.042C961.871 127.653 961.447 124.546 961.235 121.137C961.024 117.728 960.554 114.581 960.191 114.143C959.722 113.579 958.828 113.444 957.109 113.68C954.486 114.039 951.564 113.252 952.129 112.338C952.321 112.026 953.847 111.771 955.518 111.771C959.259 111.771 960.323 110.863 960.371 107.627C960.39 106.327 960.709 103.379 961.079 101.076C961.641 97.5748 962.006 96.6996 963.313 95.726C966.396 93.4292 976.183 94.1316 976.183 96.6498C976.183 97.9557 975.552 98.1713 974.242 97.313C973.557 96.8642 971.809 96.3344 970.359 96.1355C967.926 95.8021 967.595 95.9092 966.093 97.5172C964.442 99.2848 963.732 102.576 963.732 108.458C963.732 110.496 963.841 110.639 965.403 110.639C966.322 110.639 967.683 110.362 968.427 110.022C970.222 109.205 974.768 110.065 974.768 111.223C974.768 111.794 973.882 112.169 971.938 112.421C967.786 112.96 964.764 113.851 964.209 114.701C963.94 115.113 963.839 116.341 963.985 117.431C964.131 118.52 964.415 121.513 964.616 124.081C964.96 128.481 964.917 128.75 963.86 128.75C963.243 128.75 962.486 128.431 962.179 128.042V128.042ZM995.142 125.227C992.871 124.42 989.2 121.496 989.2 120.494C989.2 120.052 988.69 118.74 988.068 117.578C987.445 116.417 986.936 114.922 986.936 114.256C986.936 113.59 986.554 111.962 986.087 110.639C984.305 105.587 985.538 100.389 989.784 95.0521C994.474 89.1585 997.021 87.8952 1002.15 88.9203C1004.64 89.419 1004.35 90.0528 1001.74 89.8041C999.684 89.6079 999.386 89.7981 996.125 93.412C991.005 99.085 989.6 102.007 989.307 107.59C989.062 112.254 989.49 114.494 991.464 118.877C992.745 121.721 993.369 122.242 996.5 123.079C998.737 123.678 999.15 123.626 1000.58 122.569C1003.8 120.188 1006.11 122.094 1003.24 124.766C1001.85 126.058 998.085 126.273 995.142 125.227ZM1229.51 121.911C1228.86 119.955 1228.04 114.926 1228.04 112.963C1228.04 110.278 1226.67 108.941 1223.92 108.941C1220.23 108.941 1220.82 107.922 1225.36 106.46C1227.34 105.821 1227.44 104.271 1226.03 95.3581C1225.66 92.9897 1225.7 92.8742 1226.58 93.7096C1227.2 94.3003 1227.79 96.5073 1228.3 100.157C1228.75 103.356 1229.4 105.921 1229.83 106.214C1230.24 106.494 1231.75 106.582 1233.17 106.411C1235.41 106.141 1235.93 106.286 1237.09 107.521C1238.54 109.073 1239.92 109.387 1239.92 108.169C1239.92 107.744 1240.45 106.717 1241.11 105.888C1241.76 105.059 1242.16 104.037 1242 103.617C1241.23 101.603 1244.32 100.958 1246.51 102.678L1247.9 103.772L1246.05 103.951C1243.32 104.214 1242.71 105.858 1242.84 112.471C1242.94 117.487 1242.67 119.237 1241.9 118.469C1241.75 118.314 1241.2 116.479 1240.68 114.39C1239.27 108.679 1236.62 106.847 1232.07 108.435C1229.37 109.377 1229.13 110.33 1230.13 116.233C1230.77 120.029 1230.84 121.645 1230.39 122.094C1229.94 122.543 1229.7 122.492 1229.51 121.911V121.911ZM1275.3 120.838C1274.83 120.072 1276.46 115.456 1277.89 113.526C1278.97 112.066 1279.05 111.308 1278.88 104.239C1278.7 97.1757 1278.76 96.6686 1279.53 98.0728C1280.17 99.2341 1280.37 101.654 1280.38 108.113L1280.39 116.624L1278.5 119.008C1276.58 121.44 1275.91 121.821 1275.3 120.838H1275.3ZM1050.61 120.283C1047.78 119.106 1045.23 114.718 1045.23 111.029C1045.23 106.627 1050.61 101.82 1054.17 103.041C1056.43 103.815 1060.16 111.285 1059.65 114.016C1058.76 118.773 1054.34 121.837 1050.61 120.283ZM1054.7 116.561C1056.63 114.634 1056.69 114.443 1056.38 111.409C1055.68 104.671 1051.28 104.237 1048.62 110.645C1048.04 112.053 1048.04 112.861 1048.6 114.772C1049.93 119.231 1051.55 119.709 1054.7 116.561H1054.7ZM1071.01 119.025C1070.85 118.304 1070.58 116.215 1070.43 114.383C1070.08 110.302 1069.55 109.615 1066.59 109.396C1063.32 109.153 1063.23 107.979 1066.46 107.496C1069.61 107.023 1070.5 105.531 1069.58 102.229C1069.26 101.096 1069.01 99.2531 1069 98.1341C1069 96.8213 1068.6 95.7361 1067.87 95.0751C1065.77 93.1762 1066.89 91.2496 1069.34 92.5571C1070.32 93.0842 1070.7 93.7674 1070.7 95.0293C1070.7 95.9883 1071.08 98.9378 1071.55 101.584C1072.01 104.23 1072.39 106.483 1072.4 106.59C1072.4 106.838 1077.18 106.318 1079.61 105.805C1081.21 105.467 1081.45 105.567 1081.45 106.572C1081.45 107.521 1080.87 107.853 1078.2 108.427C1072.72 109.604 1072.82 109.465 1073.05 115.066C1073.22 119.332 1073.12 119.984 1072.27 120.148C1071.64 120.271 1071.2 119.882 1071.01 119.025ZM1095.79 119.553C1095.39 118.93 1094.21 107.591 1093.62 98.7539C1093.24 93.0196 1092.66 89.4287 1091.87 87.8918C1091.43 87.0531 1091.28 86.2411 1091.53 86.0872C1091.78 85.9334 1093.64 85.8075 1095.66 85.8075C1097.69 85.8075 1100.5 85.5175 1101.9 85.1631C1104.85 84.422 1108.15 84.5991 1108.45 85.514C1108.57 85.8867 1107.45 86.3115 1105.67 86.5632C1104.02 86.7958 1101.4 87.1634 1099.85 87.38C1098.29 87.5967 1096.41 88.1044 1095.68 88.5082C1094.44 89.1875 1094.37 89.4612 1094.76 92.1588C1095 93.7628 1095.34 96.8579 1095.54 99.0368L1095.88 102.999L1098.61 103.173C1100.21 103.275 1102.37 102.952 1103.84 102.391C1105.86 101.617 1106.5 101.57 1107.2 102.144C1107.67 102.535 1108.05 103.049 1108.05 103.286C1108.05 104.181 1104.1 105.546 1101.46 105.563C1099.95 105.573 1098.23 105.947 1097.64 106.394C1096.68 107.121 1096.61 107.64 1097.01 111.328C1097.8 118.631 1097.75 120.26 1096.71 120.26C1096.45 120.26 1096.03 119.942 1095.79 119.553V119.553ZM1144.44 119.634C1141.42 118.76 1141.92 118.281 1145.88 118.26C1150.53 118.236 1152.98 117.165 1153.22 115.052C1153.36 113.824 1152.98 113.255 1151.24 112.104C1150.05 111.319 1148.26 110.389 1147.24 110.037C1146.03 109.614 1145.41 109.027 1145.41 108.31C1145.41 106.971 1150.33 102.15 1151.7 102.15C1153.57 102.15 1153.31 103.148 1150.77 105.687C1149.38 107.084 1148.23 108.51 1148.23 108.857C1148.23 109.204 1149.52 110.138 1151.09 110.932C1154.08 112.45 1156.29 115.217 1156.03 117.13C1155.92 117.938 1155.02 118.511 1152.76 119.218C1149.29 120.303 1147.13 120.411 1144.44 119.634V119.634ZM1118.18 118.769C1117.4 117.835 1117 106.111 1117.75 106.111C1118.76 106.111 1119.28 108.076 1119.65 113.259C1120.06 119.11 1119.67 120.567 1118.18 118.769V118.769ZM1131.52 116.708C1129.82 112.981 1128.67 101.105 1129.97 100.607C1131.77 99.9165 1139.18 102.608 1139.18 103.952C1139.18 104.628 1138.45 104.517 1137.18 103.649C1135.11 102.23 1133.17 102.08 1131.75 103.228C1130.48 104.255 1130.46 104.412 1131.17 107.045C1132.89 113.384 1133.95 119.147 1133.45 119.454C1133.16 119.631 1132.3 118.396 1131.52 116.708V116.708ZM1164.34 118.987C1164.19 118.598 1163.88 116.761 1163.65 114.905C1163.21 111.367 1163.08 111.213 1158.99 109.614C1157.49 109.029 1157.77 108.796 1160.76 108.146C1162.74 107.715 1163.08 106.131 1162.08 101.914C1161.63 100.02 1161.27 98.0888 1161.28 97.6219C1161.3 95.8201 1162.91 98.9363 1163.58 102.084C1164.66 107.116 1164.88 107.363 1167.8 106.925C1169.79 106.627 1170.31 106.719 1170.31 107.371C1170.31 107.823 1169.69 108.475 1168.94 108.818C1165.46 110.403 1164.36 113.06 1165.73 116.573C1166.24 117.871 1165.89 119.694 1165.13 119.694C1164.85 119.694 1164.49 119.376 1164.34 118.987V118.987ZM1036.01 116.905C1035.2 115.936 1034.45 114.12 1034.21 112.536C1033.8 109.822 1031.44 104.458 1030.35 103.758C1029.43 103.172 1028.47 103.78 1027.68 105.435C1025.62 109.774 1023.16 116.101 1023.16 117.045C1023.16 117.791 1022.88 118.013 1022.26 117.774C1021.77 117.585 1021.25 117.431 1021.11 117.431C1020.72 117.431 1017.5 110.47 1017.5 109.626C1017.5 108.464 1015.46 104.796 1014.18 103.63C1012.84 102.426 1013.07 101.584 1014.71 101.584C1016 101.584 1018.88 105.782 1019.88 109.098C1020.23 110.274 1020.74 111.163 1021.01 111.073C1021.28 110.982 1022.6 108.874 1023.95 106.388C1026.18 102.285 1026.58 101.85 1028.28 101.682C1029.3 101.58 1030.74 101.818 1031.48 102.21C1033.64 103.369 1038.41 113.516 1038.43 117.006C1038.44 119.004 1037.75 118.975 1036.01 116.905V116.905ZM1265.59 115.209C1263.39 114.208 1263.23 113.984 1263 111.402C1262.8 109.294 1262.97 108.461 1263.72 107.809C1264.25 107.342 1264.99 106.372 1265.36 105.653C1265.81 104.776 1266.44 104.403 1267.26 104.521C1269.04 104.775 1269.09 106.43 1267.38 108.462C1266.26 109.796 1265.94 110.732 1266.07 112.274C1266.22 114.073 1266.44 114.341 1267.92 114.509C1268.84 114.614 1270.56 114.382 1271.74 113.993C1274.36 113.128 1275.2 113.75 1273.39 115.215C1271.69 116.594 1268.63 116.591 1265.59 115.209V115.209ZM1252.79 114.176C1252.27 113.597 1251.86 112.012 1251.8 110.356C1251.67 106.5 1251.69 106.44 1252.68 107.261C1253.34 107.812 1253.46 108.6 1253.18 110.585L1252.81 113.186L1255.66 110.42C1258.83 107.34 1260.3 107.217 1260.3 110.029C1260.3 110.958 1260.59 112.367 1260.95 113.162C1261.8 115.011 1261.39 115.383 1259.48 114.512C1258.29 113.97 1257.71 113.965 1256.87 114.491C1255.34 115.446 1253.83 115.329 1252.79 114.176V114.176ZM1184.03 113.067C1183.33 112.933 1182.76 112.612 1182.76 112.353C1182.76 111.618 1190.62 109.411 1191.85 109.801C1193.75 110.403 1193.06 111.141 1189.69 112.115C1185.37 113.366 1185.49 113.345 1184.03 113.067ZM1204.02 110.703C1203.57 109.973 1204.8 109.146 1207.38 108.437C1210.11 107.688 1212.75 107.623 1212.75 108.306C1212.75 109.969 1204.9 112.125 1204.02 110.703V110.703ZM1183.34 103.303C1182.25 102.613 1183.04 102.338 1187.29 101.936C1189 101.774 1191.12 101.466 1192.01 101.253C1193.38 100.924 1193.59 101.024 1193.42 101.907C1193.31 102.48 1192.59 103.126 1191.81 103.342C1189.7 103.929 1184.29 103.905 1183.34 103.303V103.303ZM1203.27 102.881C1201.49 102.538 1201.69 101.592 1203.56 101.54C1204.41 101.517 1205.62 101.404 1206.25 101.29C1206.87 101.176 1208.17 100.936 1209.14 100.757C1210.93 100.425 1212.87 101.662 1211.7 102.387C1210.97 102.834 1204.89 103.19 1203.27 102.881V102.881ZM1116.61 97.6619C1116.12 97.3612 1116.06 97.0695 1116.44 96.8345C1116.76 96.6349 1117.2 96.7473 1117.41 97.0844C1117.93 97.9255 1117.51 98.2232 1116.61 97.6619V97.6619ZM1363.96 41.0258C1363.96 40.2476 1364.08 39.9293 1364.24 40.3184C1364.4 40.7075 1364.4 41.3442 1364.24 41.7333C1364.08 42.1224 1363.96 41.804 1363.96 41.0258V41.0258Z" fill="white"/>
</g>
<defs>
<clipPath id="clip0_18_886">
<rect width="1388" height="926" fill="white"/>
</clipPath>
</defs>
</svg>
