<svg width="1484" height="871" viewBox="0 0 1484 871" fill="none" xmlns="http://www.w3.org/2000/svg">
<g clip-path="url(#clip0_18_892)">
<path d="M300.223 870.56C298.809 870.25 295.893 869.98 293.742 869.96C291.592 869.939 289.642 869.733 289.409 869.5C289.177 869.267 289.285 868.717 289.65 868.278L290.314 867.478L286.109 862.441C283.797 859.671 281.905 857.094 281.905 856.714C281.905 856.334 281.037 855.192 279.977 854.176C278.916 853.16 278.049 851.66 278.049 850.842C278.049 849.993 278.436 849.356 278.953 849.356H279.857L279.553 845.66C279.386 843.627 279.218 839.216 279.18 835.858C279.142 832.5 279.438 826.571 279.837 822.682C280.237 818.794 280.878 811.997 281.264 807.578C281.649 803.159 282.374 795.494 282.875 790.545C283.376 785.596 284.231 776.63 284.775 770.621C285.32 764.611 286.053 758.086 286.406 756.12C286.759 754.155 287.047 750.72 287.047 748.487C287.047 746.254 287.508 739.619 288.071 733.743L289.094 723.058L288.743 706.026L288.392 688.993L286.811 679.352C285.942 674.05 284.793 667.79 284.258 665.441C283.724 663.092 282.072 657.452 280.587 652.908C279.103 648.363 276.738 642.042 275.332 638.86C273.926 635.679 271.044 629.46 268.926 625.042C266.809 620.623 264.191 615.272 263.11 613.151C262.028 611.03 259.553 606.981 257.61 604.153C255.667 601.325 253.729 598.577 253.304 598.047C252.878 597.516 251.837 595.781 250.989 594.19C250.141 592.6 249.283 591.153 249.083 590.977C248.883 590.8 247.746 589.209 246.556 587.442C245.367 585.674 243.37 582.926 242.12 581.336C240.87 579.745 238.681 577.132 237.256 575.529C235.83 573.925 233.73 571.25 232.589 569.583C231.447 567.917 230.218 566.553 229.857 566.553C229.496 566.553 229.201 567.252 229.201 568.107C229.201 568.962 229.032 570.1 228.827 570.637C228.621 571.174 226.668 572.774 224.488 574.194C222.308 575.614 218.546 577.519 216.129 578.428C213.712 579.338 210.539 580.691 209.078 581.437L206.421 582.792L199.654 582.355C195.932 582.115 190.766 581.624 188.175 581.264C185.583 580.904 180.377 579.661 176.605 578.501C172.834 577.341 168.013 575.601 165.892 574.634C163.771 573.667 161.457 572.623 160.75 572.314C160.043 572.005 157.584 570.989 155.287 570.056C152.989 569.123 148.94 567.186 146.288 565.751C143.637 564.315 139.154 561.548 136.326 559.601C133.498 557.654 128.973 554.228 126.271 551.988C123.568 549.748 119.109 545.529 116.361 542.612C113.613 539.695 108.916 534.206 105.923 530.414C102.93 526.623 100.258 523.659 99.9854 523.827C99.7126 523.996 99.3018 525.652 99.0728 527.507C98.8436 529.363 97.6809 536.232 96.4888 542.772C95.2968 549.311 93.99 557.265 93.5849 560.447C93.1797 563.628 92.5994 567.388 92.2951 568.802C91.9909 570.216 91.4068 573.253 90.9972 575.551C90.5876 577.849 89.9912 580.452 89.6718 581.336C89.3525 582.219 88.488 586.269 87.7507 590.334C87.0134 594.399 85.872 600.907 85.2142 604.795C84.5564 608.684 83.8815 612.444 83.7145 613.151C83.5474 613.858 82.9503 616.75 82.3875 619.578C81.8248 622.406 80.4641 629.348 79.3639 635.004C78.2637 640.66 76.9518 647.457 76.4485 650.108C75.9452 652.759 74.6823 659.556 73.6421 665.212C72.6019 670.868 71.1522 679.486 70.4206 684.362C69.6891 689.238 69.0023 694.733 68.8945 696.573C68.7867 698.414 68.1095 701.366 67.3897 703.134C66.6698 704.901 65.6149 707.938 65.0454 709.882C64.4758 711.827 63.128 721.082 62.0503 730.45C60.9726 739.818 59.6638 751.387 59.1419 756.159C58.62 760.931 57.9373 767.485 57.6248 770.723C57.3123 773.96 56.7431 777.195 56.3598 777.911C55.9766 778.627 55.6548 780.317 55.6447 781.666C55.6347 783.014 54.9253 788.746 54.0684 794.402C53.2116 800.058 52.064 807.433 51.5185 810.792C50.9728 814.15 50.1637 820.657 49.7204 825.253L48.9143 833.609L47.4732 833.408L46.032 833.208L46.4052 834.181C46.6105 834.716 47.6981 835.457 48.8222 835.828C49.9463 836.199 52.873 838.454 55.3261 840.84L59.7863 845.178L60.0366 843.892C60.1743 843.185 60.5481 842.332 60.8673 841.996C61.2208 841.624 61.4486 842.002 61.4501 842.96V844.535L64.3639 846.893C66.0422 848.251 68.3279 849.428 69.7545 849.669C71.194 849.912 72.8665 850.779 73.7477 851.738C74.6103 852.677 74.8483 853.227 74.2998 853.015C73.7696 852.81 72.1065 852.302 70.6041 851.887C69.1017 851.471 67.8725 850.899 67.8725 850.616C67.8725 850.332 66.9325 849.901 65.7836 849.656C64.6347 849.412 63.1886 848.766 62.5699 848.22C61.9513 847.675 61.4452 847.517 61.4452 847.871C61.4452 848.224 62.0549 849.065 62.8 849.738C63.5452 850.411 64.6876 851.71 65.3386 852.623C66.0451 853.614 66.3757 854.845 66.1585 855.676L65.7943 857.068H62.9771C61.4275 857.068 60.1597 856.848 60.1597 856.578C60.1597 856.309 56.4725 856.333 51.966 856.632C47.1797 856.949 42.5419 856.932 40.8133 856.591C39.1297 856.258 37.2088 856.244 36.3565 856.56C35.4866 856.882 31.6461 856.818 27.1956 856.409C22.9809 856.021 19.3725 855.864 19.1771 856.059C18.9816 856.255 18.4335 856.093 17.9591 855.699C17.4847 855.305 17.0965 854.44 17.0965 853.776C17.0965 853.112 17.4179 852.569 17.8108 852.569C18.2036 852.569 19.8667 851.466 21.5065 850.117C23.1463 848.769 26.5126 846.353 28.9871 844.75C31.4616 843.147 34.6432 841.252 36.0572 840.538C37.4712 839.825 39.4104 838.872 40.3666 838.421C41.3227 837.97 42.574 836.612 43.1472 835.404L44.1894 833.208L43.5859 831.477C43.254 830.525 43.1909 829.169 43.4455 828.464C43.7003 827.758 44.2504 823.164 44.6681 818.254C45.0858 813.344 45.6718 808.861 45.9703 808.292C46.2687 807.723 46.7058 805.955 46.9414 804.364C47.1771 802.774 47.826 798.724 48.3833 795.366C48.9408 792.008 49.4976 788.682 49.6206 787.975C49.7437 787.268 50.2637 784.63 50.7762 782.113C51.2888 779.595 52.4801 771.352 53.4236 763.795C54.3671 756.237 55.3776 747.595 55.6691 744.59C55.9607 741.585 56.7963 734.499 57.5262 728.843C58.2561 723.187 59.1521 716.535 59.5174 714.06C59.8827 711.586 60.5777 708.115 61.0618 706.348C61.5459 704.58 62.2959 701.254 62.7285 698.956C63.1611 696.658 63.7402 692.609 64.0155 689.958C64.2907 687.307 65.2543 681.377 66.1567 676.782C67.0592 672.186 68.2767 665.823 68.8624 662.642C69.448 659.46 70.4587 654.109 71.1083 650.751C71.7579 647.393 72.5871 643.67 72.9511 642.477C73.315 641.285 74.1929 637.236 74.9019 633.479C75.611 629.722 76.6179 624.335 77.1395 621.507C77.6611 618.679 79.0832 611.448 80.2996 605.438C81.5161 599.429 82.9441 592.198 83.4731 589.37C84.002 586.542 85.0169 581.914 85.7284 579.086C86.44 576.258 87.7717 569.461 88.6878 563.982C89.6039 558.503 90.778 551.417 91.2969 548.235C91.8157 545.054 92.9745 539.124 93.8718 535.059C94.7692 530.994 95.5049 526.626 95.5067 525.353C95.5067 524.08 95.8245 522.137 96.2088 521.035L96.9075 519.03L95.3107 515.636C94.4325 513.769 93.3415 510.987 92.8863 509.453L92.0586 506.664L92.7393 505.574C93.1749 504.877 93.2316 503.335 92.8965 501.293C92.6085 499.538 92.3558 494.765 92.3347 490.686C92.3137 486.607 92.7158 479.955 93.2283 475.903C93.7408 471.851 94.4569 467.015 94.8195 465.156C95.1821 463.298 96.225 458.959 97.1369 455.516C98.0488 452.072 99.6258 446.651 100.641 443.469C101.656 440.288 103.68 434.969 105.139 431.65C106.597 428.331 109.362 422.402 111.284 418.474C113.206 414.546 115.773 409.453 116.99 407.155C118.207 404.857 120.217 400.808 121.456 398.157C122.695 395.505 124.639 391.89 125.777 390.123C126.914 388.355 129.676 384.104 131.914 380.676C134.151 377.248 136.833 373.474 137.873 372.289L139.765 370.135L134.731 362.775C131.962 358.727 127.097 351.944 123.919 347.702C120.742 343.46 117.286 338.399 116.24 336.454C115.194 334.51 113.331 331.328 112.1 329.384C110.869 327.44 108.791 323.733 107.484 321.145C106.177 318.558 104.854 315.955 104.544 315.361C104.235 314.766 103.283 312.545 102.43 310.424C101.577 308.303 99.6836 302.807 98.2222 298.212C96.7608 293.616 94.8296 286.624 93.9307 282.674C93.0319 278.724 92.2964 274.892 92.2964 274.158C92.2964 273.424 92.1115 272.824 91.8856 272.824C91.6597 272.824 89.5711 274.487 87.2443 276.519C84.9175 278.552 79.9685 283.265 76.2465 286.992C72.5246 290.72 67.4547 296.172 64.9802 299.109C62.5057 302.046 58.9731 306.371 57.1302 308.721C55.2873 311.072 52.6078 314.441 51.1758 316.208C49.7439 317.976 47.6364 320.694 46.4925 322.248C45.3486 323.802 44.0871 325.538 43.6891 326.104C43.2911 326.671 41.1942 329.84 39.0292 333.147C36.8644 336.453 35.0931 339.262 35.0931 339.387C35.0931 339.512 32.7069 343.227 29.7905 347.641C26.8741 352.055 23.5318 357.201 22.3631 359.076C21.1944 360.951 19.976 362.919 19.6555 363.449C19.3351 363.979 17.9052 366.961 16.4779 370.075C15.0506 373.189 13.8829 376.118 13.8829 376.583C13.8829 377.049 13.1988 378.984 12.3627 380.884C11.5266 382.784 10.7112 385.955 10.5508 387.931L10.2591 391.524L15.4453 391.466C18.2978 391.434 22.367 391.792 24.488 392.26C26.609 392.729 31.2367 393.815 34.7717 394.675C38.7821 395.649 43.3626 397.353 46.9527 399.206C50.1172 400.839 55.0342 403.696 57.8792 405.556C60.7242 407.415 65.0195 410.744 67.4241 412.954C69.8288 415.164 73.6588 419.357 75.9354 422.273C78.212 425.188 80.892 429.126 81.891 431.023C82.89 432.919 84.9726 436.226 86.519 438.37L89.3307 442.269L92.8115 441.981L96.2924 441.692L95.8353 443.866C95.5839 445.062 94.7571 447.093 93.9979 448.379C93.2388 449.664 90.9659 452.888 88.9469 455.542C86.9279 458.195 82.4241 463.015 78.9383 466.253C75.4526 469.49 71.7068 472.683 70.6143 473.347C69.5219 474.011 68.3858 474.956 68.0896 475.446C67.7934 475.936 65.9309 477.402 63.9507 478.703C61.8113 480.108 59.1931 481.227 57.4985 481.459L54.6466 481.85L53.7439 480.762L52.8411 479.674L55.2445 475.069C56.5664 472.537 58.5746 468.856 59.7072 466.889C60.8398 464.923 62.6993 462.143 63.8393 460.711C64.9793 459.28 68.4501 456.42 71.5521 454.357C74.6541 452.293 78.4338 449.658 79.9515 448.5C81.4691 447.342 83.2045 446.116 83.8079 445.776L84.9049 445.157L84.1015 444.345C83.6596 443.899 83.2981 443.155 83.2981 442.693C83.2981 442.23 81.6667 439.323 79.6726 436.233C77.6786 433.143 75.1101 429.153 73.965 427.367C72.8198 425.58 70.0406 421.982 67.7888 419.372C65.5371 416.761 60.9043 412.548 57.4938 410.009C54.0832 407.47 48.5879 404.066 45.2818 402.445C41.9758 400.823 36.957 398.781 34.129 397.906C31.301 397.03 26.2673 395.823 22.943 395.223C19.0302 394.516 15.3674 394.259 12.5557 394.495C10.1005 394.701 7.08108 395.436 5.60998 396.187C4.17868 396.917 2.57928 397.514 2.05578 397.514C1.53238 397.514 0.901772 397.187 0.654472 396.787C0.407272 396.387 0.723476 395.736 1.35638 395.341C1.98968 394.945 3.69337 393.979 5.14237 393.194C6.63757 392.383 7.29048 391.758 6.65208 391.748C6.03348 391.738 5.52727 391.588 5.52727 391.416C5.52727 391.243 6.13937 388.857 6.88737 386.113C7.63537 383.369 9.65338 377.509 11.3717 373.09C13.09 368.672 15.8532 362.742 17.5122 359.914C19.1711 357.086 23.5447 350 27.2313 344.167C30.9178 338.335 35.2204 331.682 36.7926 329.385C38.3648 327.087 40.7225 323.659 42.032 321.767C43.3413 319.875 45.2804 317.228 46.3409 315.884C47.4014 314.541 49.7141 311.606 51.4802 309.362C53.2462 307.118 56.8517 302.679 59.4925 299.497C62.1332 296.316 67.5704 290.242 71.5752 286C75.5798 281.758 80.9404 276.472 83.4875 274.253C86.0346 272.034 89.0586 269.62 90.2075 268.887L92.2964 267.555V264.785V262.016L95.9921 260.711C98.0247 259.994 102.725 258.272 106.436 256.885C110.148 255.498 115.448 253.311 118.213 252.024C120.979 250.738 123.357 249.686 123.498 249.686C123.64 249.686 125.281 248.974 127.147 248.104C129.013 247.234 136.902 244.464 144.679 241.948C152.456 239.432 162.145 236.275 166.211 234.934C170.276 233.592 177.217 231.34 181.636 229.928C186.055 228.516 191.261 226.907 193.205 226.353C195.15 225.798 199.777 224.712 203.489 223.939C207.201 223.165 211.059 222.062 212.063 221.487C213.067 220.912 216.243 217.26 219.122 213.371C222.001 209.483 226.009 203.035 228.03 199.043C230.051 195.051 233.286 187.097 235.22 181.367C237.154 175.638 239.354 168.348 240.11 165.166C240.866 161.985 241.769 157.935 242.118 156.168C242.466 154.4 243.282 149.917 243.931 146.205C244.579 142.494 244.968 138.517 244.794 137.368C244.62 136.219 244.728 135.288 245.033 135.299C245.339 135.31 246.128 136.06 246.788 136.965L247.988 138.612L247.19 144.819C246.751 148.233 245.682 154.063 244.813 157.775C243.945 161.486 242.964 166.259 242.634 168.38C242.305 170.501 241.482 173.415 240.807 174.857C240.133 176.298 239.133 179.643 238.586 182.289C238.04 184.936 236.826 188.819 235.889 190.917C234.952 193.015 232.919 197.412 231.371 200.688C229.823 203.964 228.556 206.77 228.556 206.924C228.556 207.078 227.251 209.07 225.656 211.352C224.061 213.634 222.322 216.54 221.791 217.81L220.826 220.12H222.096C222.795 220.12 228.367 218.847 234.478 217.291C240.589 215.736 249.348 213.719 253.944 212.81C258.539 211.902 265.77 210.597 270.012 209.912C274.254 209.226 280.039 208.334 282.867 207.93C285.695 207.525 294.796 206.8 303.091 206.318C311.486 205.83 318.623 205.681 319.187 205.983C319.744 206.281 322.299 207.031 324.865 207.651L329.529 208.777L332.514 211.556C334.33 213.247 336.108 214.335 337.055 214.335C337.911 214.335 339.952 213.904 341.591 213.377C343.229 212.85 346.688 211.807 349.277 211.059C351.866 210.312 355.77 209.472 357.953 209.193C360.137 208.914 363.225 208.2 364.815 207.605C366.406 207.011 368.915 206.27 370.39 205.959C371.866 205.648 374.91 204.561 377.155 203.543C379.4 202.526 382.097 201.471 383.149 201.2C384.201 200.929 386.508 200.466 388.275 200.172C390.043 199.877 394.236 199.009 397.595 198.241C400.953 197.474 405.581 196.515 407.879 196.11C410.176 195.706 412.384 195.161 412.786 194.9C413.187 194.64 415.5 194.117 417.927 193.74C420.354 193.362 423.642 192.904 425.232 192.721C426.823 192.538 428.703 192.144 429.41 191.846C430.117 191.548 432.053 190.991 433.712 190.608C435.371 190.225 438.046 189.911 439.657 189.911C441.268 189.911 442.586 189.648 442.586 189.327C442.586 189.005 444.683 188.422 447.246 188.031C449.809 187.64 453.93 186.889 456.405 186.363C458.879 185.836 463.218 184.945 466.046 184.382C468.874 183.82 474.369 182.674 478.258 181.836C482.146 180.998 488.06 179.58 491.4 178.684C494.74 177.789 498.388 177.057 499.508 177.057C500.628 177.057 504.838 176.338 508.862 175.459C512.886 174.581 517.625 173.58 519.393 173.236C521.16 172.892 524.4 172.298 526.591 171.915L530.575 171.22L531.844 172.013L533.112 172.805L538.786 171.995C541.906 171.55 547.496 170.773 551.208 170.268C554.92 169.763 558.841 169.179 559.922 168.971C561.189 168.726 562.127 168.896 562.563 169.45C562.935 169.922 563.417 171.248 563.635 172.397C563.903 173.811 563.776 174.517 563.243 174.583C562.81 174.636 561.588 174.734 560.528 174.8C559.467 174.867 555.578 175.259 551.886 175.673C548.193 176.087 542.843 176.863 539.995 177.397C537.148 177.931 533.951 178.635 532.89 178.96C531.83 179.285 529.227 179.849 527.106 180.213C524.985 180.577 521.225 181.162 518.75 181.514C516.276 181.867 511.069 182.482 507.181 182.883C503.292 183.284 498.375 183.996 496.254 184.466C494.133 184.936 490.373 185.66 487.899 186.074C485.424 186.488 478.338 187.84 472.152 189.077C465.966 190.315 459.169 191.997 457.048 192.814C454.927 193.632 452.179 194.487 450.942 194.714C449.704 194.942 448.114 195.389 447.407 195.707C446.7 196.026 443.663 197.192 440.658 198.298C437.653 199.405 433.315 200.97 431.017 201.777C428.719 202.584 425.827 203.602 424.59 204.039C423.352 204.476 420.749 205.256 418.805 205.772C416.861 206.289 413.245 207.316 410.771 208.055C408.296 208.794 404.717 210.076 402.817 210.903C400.917 211.73 398.828 212.407 398.175 212.407C397.521 212.407 395.749 212.955 394.238 213.626C392.726 214.296 388.163 215.773 384.097 216.908C380.032 218.043 374.681 219.65 372.207 220.478C369.732 221.307 366.695 222.17 365.458 222.397C364.221 222.623 362.196 223.449 360.959 224.233C359.722 225.017 357.842 225.981 356.781 226.375C355.721 226.77 353.841 227.262 352.603 227.468C351.366 227.675 348.806 228.732 346.914 229.817L343.475 231.79L343.864 233.507C344.078 234.451 344.571 238.116 344.959 241.651L345.665 248.079L344.916 253.589C344.503 256.619 344.363 259.882 344.603 260.839C344.843 261.796 344.704 265.969 344.293 270.112C343.882 274.255 343.284 278.801 342.964 280.215C342.645 281.629 341.937 285.389 341.392 288.571C340.847 291.752 339.65 299.562 338.734 305.925C337.817 312.288 336.369 320.038 335.516 323.147C334.662 326.256 333.959 329.726 333.952 330.859C333.942 331.992 333.098 336.101 332.068 339.99C331.037 343.878 329.851 348.361 329.43 349.952C329.01 351.543 328.247 354.146 327.734 355.737C327.221 357.327 326.545 359.93 326.231 361.521C325.917 363.112 325.215 365.833 324.671 367.569C324.126 369.304 323.68 371.56 323.68 372.582C323.68 373.604 323.294 375.221 322.822 376.175C322.35 377.13 321.603 379.646 321.162 381.767C320.721 383.888 319.664 387.871 318.813 390.618C317.962 393.364 316.845 396.257 316.331 397.045C315.817 397.833 314.548 400.937 313.512 403.942C312.476 406.946 309.962 414.611 307.925 420.974C305.888 427.337 303.573 433.989 302.78 435.757C301.987 437.524 300.138 442.27 298.672 446.303C297.205 450.335 294.822 456.12 293.375 459.157C291.928 462.195 289.36 467.572 287.669 471.107C285.978 474.642 283.135 480.572 281.353 484.283C279.57 487.995 277.374 492.334 276.472 493.924C275.571 495.515 274.012 498.552 273.007 500.673C272.003 502.794 269.797 507.132 268.106 510.314C266.415 513.496 264.489 516.866 263.826 517.805C263.163 518.743 262.621 519.929 262.621 520.44C262.621 520.952 261.204 523.241 259.473 525.528C257.742 527.815 255.233 531.401 253.899 533.497C252.564 535.594 250.293 538.889 248.852 540.82C247.41 542.751 245.797 545.114 245.267 546.07C244.737 547.026 242.235 550.941 239.708 554.77C237.181 558.6 234.657 562.232 234.099 562.843C233.487 563.513 232.632 563.792 231.945 563.547C231.318 563.323 230.444 562.86 230.002 562.518C229.56 562.176 229.199 561.404 229.199 560.802C229.199 560.2 229.949 559.006 230.867 558.149C231.784 557.292 233.296 555.289 234.226 553.699C235.157 552.108 237.66 548.229 239.789 545.078C241.918 541.928 245.399 536.721 247.525 533.509C249.651 530.296 252.94 525.499 254.834 522.847C256.728 520.196 258.862 516.736 259.576 515.159C260.289 513.581 261.99 510.467 263.354 508.237C264.719 506.008 267.682 500.502 269.939 496.001C272.195 491.501 276.134 483.625 278.692 478.499C281.249 473.373 284.28 467.154 285.428 464.68C286.576 462.205 288.99 457.144 290.793 453.432C292.597 449.72 294.774 444.514 295.63 441.863C296.487 439.212 298.345 434.15 299.758 430.615C301.171 427.08 302.754 422.452 303.275 420.331C303.796 418.21 305.166 414.016 306.32 411.012C307.473 408.007 308.94 404.102 309.577 402.335C310.215 400.567 311.643 396.663 312.75 393.658C313.857 390.653 315.312 386.529 315.983 384.494C316.654 382.459 317.975 377.542 318.918 373.568C319.862 369.593 321.895 361.714 323.437 356.058C324.978 350.402 326.956 343.171 327.832 339.99C328.708 336.808 330.151 331.023 331.04 327.135C331.929 323.246 333.519 314.859 334.574 308.496C335.629 302.133 337.505 290.853 338.744 283.429C339.983 276.006 341.294 266.75 341.657 262.862C342.021 258.973 342.309 251.742 342.296 246.793C342.282 241.307 341.925 236.415 341.38 234.26C340.888 232.316 339.658 228.7 338.645 226.226C337.632 223.751 336.01 220.198 335.04 218.33C334.071 216.462 332.183 213.839 330.845 212.501C329.319 210.976 327.283 209.752 325.386 209.221L322.36 208.374L311.612 208.796C305.7 209.028 297.537 209.48 293.472 209.802C289.407 210.123 283.622 210.674 280.617 211.026C277.612 211.378 271.539 212.263 267.12 212.993C262.701 213.723 256.916 214.778 254.265 215.337C251.614 215.896 246.986 216.94 243.981 217.658C240.977 218.376 236.554 219.529 234.152 220.22C231.751 220.911 227.412 221.887 224.511 222.389C221.61 222.892 218.079 223.586 216.665 223.932C215.251 224.278 210.772 225.166 206.711 225.904C202.65 226.642 197.299 227.835 194.82 228.556C192.341 229.276 187.855 230.589 184.85 231.472C181.845 232.356 175.627 234.257 171.031 235.695C166.436 237.135 157.18 240.119 150.464 242.328C143.747 244.536 136.95 246.69 135.359 247.113C133.769 247.537 131.31 248.396 129.896 249.023C128.482 249.65 124.867 251.249 121.862 252.577C118.857 253.904 114.919 255.656 113.11 256.468C111.301 257.281 108.553 258.285 107.004 258.7C105.455 259.115 102.452 260.171 100.33 261.048C98.2095 261.924 96.1126 263.107 95.6707 263.677C95.1589 264.338 94.8673 266.9 94.8673 270.735V276.756L96.7708 284.295C97.8176 288.442 99.5729 294.571 100.671 297.916C101.77 301.26 102.937 304.575 103.266 305.282C103.595 305.989 104.425 308.223 105.11 310.245C105.795 312.268 108.148 317.041 110.339 320.851C112.53 324.66 115.111 328.935 116.074 330.349C117.037 331.763 118.336 333.932 118.961 335.169C119.586 336.406 122.178 340.311 124.721 343.846C127.264 347.381 131.638 353.6 134.441 357.665L139.537 365.056L149.176 374.883L158.815 384.709L157.853 385.317C157.324 385.652 156.627 385.93 156.305 385.935C155.982 385.941 152.651 382.745 148.902 378.835L142.086 371.725L140.725 373.211C139.976 374.028 136.921 378.457 133.936 383.053C130.951 387.648 126.842 394.879 124.805 399.121C122.768 403.363 118.849 411.317 116.095 416.796C113.342 422.276 110.642 428.06 110.096 429.651C109.55 431.242 108.083 434.736 106.836 437.417C105.589 440.097 103.669 445.592 102.57 449.629C101.47 453.665 99.6818 460.582 98.5961 465.001L96.622 473.035L96.3679 489.104C96.2282 497.941 95.9515 506.213 95.7531 507.484L95.3924 509.796L97.3291 513.633C98.3943 515.743 101.962 520.776 105.258 524.818C108.554 528.86 114.722 535.744 118.966 540.115C123.21 544.487 128.749 549.727 131.274 551.76C133.8 553.793 138.34 557.085 141.364 559.076C144.387 561.068 147.027 562.697 147.229 562.697C147.431 562.697 148.676 563.378 149.994 564.21C151.313 565.042 153.115 565.933 153.999 566.189C154.883 566.446 156.473 567.034 157.534 567.496C158.594 567.959 162.065 569.497 165.247 570.915C168.428 572.334 173.056 574.149 175.53 574.949C178.005 575.749 181.186 576.643 182.6 576.935C184.014 577.227 189.076 577.79 193.848 578.188C198.621 578.585 203.523 578.873 204.742 578.828C205.961 578.783 207.551 578.372 208.277 577.914C209.002 577.457 211.041 576.551 212.809 575.902C214.576 575.253 217.469 574.008 219.236 573.135C221.004 572.262 223.666 570.207 225.153 568.568C226.639 566.93 227.868 565.228 227.884 564.786C227.9 564.344 228.511 563.982 229.241 563.982C229.971 563.982 231.081 564.257 231.708 564.592C232.335 564.928 234.119 566.88 235.672 568.931C237.225 570.981 240.299 574.636 242.502 577.051C244.705 579.467 247.832 583.455 249.451 585.913C251.071 588.371 252.575 590.877 252.794 591.483C253.014 592.088 254.076 593.885 255.155 595.476C256.234 597.067 257.739 599.092 258.499 599.975C259.26 600.859 261.502 603.973 263.482 606.895C265.462 609.817 269.575 617.337 272.621 623.606C275.668 629.875 278.981 636.74 279.985 638.861C280.988 640.982 282.429 644.163 283.188 645.931C283.946 647.698 285.098 650.88 285.749 653.001C286.399 655.122 287.419 658.737 288.017 661.035C288.614 663.333 289.532 666.643 290.056 668.39C290.58 670.138 291.101 673.753 291.215 676.424C291.328 679.096 291.736 682.091 292.121 683.081C292.507 684.071 292.983 687.542 293.179 690.794C293.375 694.046 293.525 703.648 293.512 712.132C293.499 720.616 293.181 731.752 292.805 736.878C292.429 742.003 291.824 748.945 291.461 752.303C291.098 755.662 290.387 762.748 289.881 768.05C289.375 773.353 288.706 779.86 288.394 782.512C288.083 785.163 287.493 792.105 287.083 797.937C286.674 803.77 285.896 811.579 285.354 815.291C284.813 819.003 284.237 826.512 284.075 831.979L283.781 841.918L282.729 843.081C282.087 843.791 281.908 844.471 282.271 844.825C282.599 845.145 286.475 846.583 290.885 848.022C295.295 849.46 300.642 850.953 302.768 851.338C304.895 851.724 308.807 852.768 311.462 853.658C314.117 854.548 316.434 855.463 316.61 855.69C316.787 855.918 317.944 856.49 319.181 856.96C320.419 857.43 322.299 858.089 323.359 858.423C324.42 858.758 326.697 860.277 328.42 861.8L331.553 864.568L330.839 865.902L330.125 867.236L324.493 867.693C321.395 867.945 318.417 868.382 317.876 868.663C317.335 868.944 314.732 869.5 312.092 869.897C309.451 870.294 306.278 870.732 305.041 870.871C303.804 871.01 301.635 870.871 300.221 870.56L300.223 870.56ZM306.31 867.377C306.83 867.048 307.09 866.613 306.887 866.41C306.684 866.207 304.151 865.858 301.259 865.635C298.368 865.412 295.877 865.028 295.725 864.782C295.572 864.536 297.568 864.47 300.159 864.637C303.276 864.837 305.022 864.693 305.32 864.212C305.567 863.812 305.586 862.908 305.364 862.204C305.091 861.344 304.393 860.926 303.233 860.929C302.285 860.929 300.681 861.365 299.668 861.893C298.656 862.421 297.426 862.853 296.936 862.853C296.447 862.853 296.046 862.564 296.046 862.21C296.046 861.857 296.607 861.567 297.293 861.567C297.98 861.567 298.72 861.278 298.938 860.925C299.157 860.571 300.041 860.282 300.904 860.282C301.767 860.282 302.473 859.993 302.473 859.639C302.473 859.286 301.678 858.992 300.706 858.986C299.734 858.98 296.335 858.434 293.154 857.773L287.369 856.571L289.092 856.118C290.094 855.855 292.245 856.075 294.234 856.643C296.114 857.18 299.388 857.96 301.509 858.377C303.63 858.794 306.812 859.378 308.579 859.676C310.347 859.974 313.334 860.482 315.217 860.804L318.641 861.391L317.788 860.592C317.319 860.153 314.964 859.019 312.556 858.073C310.147 857.126 306.07 855.813 303.495 855.155C300.921 854.496 296.239 853.184 293.092 852.237C289.944 851.291 286.314 850.125 285.025 849.647L282.682 848.777L282.328 850.129L281.974 851.481L284.19 854.069C285.408 855.492 286.405 856.987 286.405 857.39C286.405 857.794 288.374 860.033 290.78 862.366C293.361 864.869 296.062 866.869 297.368 867.244C298.585 867.593 300.882 867.901 302.473 867.927C304.064 867.953 305.791 867.706 306.311 867.377H306.31ZM46.022 852.815C50.0873 852.696 54.4257 852.333 55.663 852.007L57.9126 851.415L56.4866 851.349C55.6346 851.31 55.1792 850.96 55.3551 850.48C55.517 850.038 55.4361 849.356 55.1742 848.964C54.9128 848.572 53.2745 847.498 51.5335 846.577L48.3681 844.902L49.4446 844.489C50.0367 844.262 51.0268 844.27 51.6448 844.507C52.3439 844.775 52.0404 844.173 50.8414 842.914C49.7815 841.8 48.4013 840.611 47.7743 840.271L46.6344 839.653L45.6396 840.648C45.0924 841.195 43.9854 841.643 43.1795 841.643C42.3736 841.643 40.3596 842.363 38.7039 843.243C37.0482 844.124 32.9416 846.646 29.5783 848.848L23.4632 852.851L24.6196 853.353C25.2555 853.629 28.6682 853.669 32.2032 853.442C35.7383 853.216 41.9567 852.933 46.022 852.815V852.815ZM62.5232 475.503C64.2293 474.209 67.7693 471.244 70.3898 468.915C73.0102 466.585 76.6256 463.133 78.4239 461.243C80.2223 459.353 83.3556 455.593 85.3869 452.888C87.4182 450.182 88.8005 447.875 88.4589 447.76C88.1172 447.646 86.8619 448.297 85.6691 449.207C84.4764 450.116 83.2017 450.861 82.8366 450.861C82.4713 450.861 81.832 451.271 81.4157 451.773C80.9995 452.274 78.5779 453.914 76.0344 455.416C73.491 456.918 70.1754 459.15 68.6665 460.376L65.9231 462.604L62.0725 470.23C59.9547 474.424 58.4917 477.856 58.8214 477.856C59.1512 477.856 60.817 476.797 62.5232 475.503ZM346.96 224.985C349.181 223.773 356.144 220.881 362.432 218.558C368.72 216.235 374.277 214.335 374.781 214.335C375.285 214.335 377.184 213.749 379.001 213.032C380.819 212.316 385.096 211 388.505 210.108C391.915 209.215 396.232 207.777 398.098 206.911C399.964 206.044 403.821 204.549 406.67 203.587C409.519 202.626 411.523 201.73 411.124 201.597C410.724 201.464 408.458 201.8 406.086 202.344C403.715 202.889 399.895 203.514 397.597 203.734C395.299 203.954 390.238 204.974 386.349 206C382.461 207.027 378.267 208.239 377.03 208.695C375.792 209.152 374.491 209.702 374.137 209.918C373.784 210.134 372.049 210.645 370.281 211.052C368.514 211.46 363.597 212.674 359.355 213.749C355.113 214.825 350.346 215.979 348.763 216.314C347.179 216.648 344.214 217.39 342.174 217.963C340.135 218.535 338.466 219.246 338.466 219.543C338.466 219.84 339.173 221.682 340.037 223.636C340.901 225.59 341.904 227.189 342.265 227.189C342.625 227.189 344.738 226.198 346.96 224.985V224.985ZM1369.41 564.643C1366.05 564.456 1355.06 564.368 1344.99 564.447C1334.91 564.527 1324.64 564.321 1322.17 563.99C1319.7 563.66 1312.32 563.077 1305.78 562.695C1299.24 562.313 1293.02 561.866 1291.96 561.702L1290.03 561.404L1288.81 559.319L1287.59 557.233L1287.35 547.271C1287.22 541.791 1286.85 534.995 1286.54 532.167C1286.22 529.338 1286.05 523.292 1286.15 518.73L1286.33 510.435L1290.75 509.266C1293.19 508.624 1297.06 508.09 1299.37 508.081C1301.68 508.072 1305.87 507.796 1308.69 507.469C1311.51 507.142 1327.82 506.693 1344.94 506.47C1362.06 506.248 1376.27 505.941 1376.52 505.789C1376.77 505.637 1384.16 505.795 1392.95 506.139C1401.75 506.483 1412.99 507.076 1417.94 507.457C1422.89 507.837 1430.84 508.821 1435.61 509.643C1440.38 510.464 1446.02 511.741 1448.15 512.481C1450.63 513.348 1452.63 514.564 1453.77 515.902C1454.74 517.044 1455.54 518.475 1455.54 519.082C1455.54 519.703 1454.96 520.276 1454.21 520.392L1452.88 520.597L1452.63 530.238C1452.48 535.541 1452.31 543.265 1452.24 547.402C1452.17 551.54 1452.4 555.3 1452.74 555.758C1453.08 556.216 1453.29 557.313 1453.21 558.197C1453.12 559.081 1452.81 560.816 1452.5 562.054L1451.95 564.303L1447.48 564.747C1445.02 564.991 1427.82 565.144 1409.26 565.087C1390.7 565.03 1372.77 564.83 1369.41 564.643V564.643ZM1447.7 558.553C1448.2 558.084 1448.79 555.098 1449.12 551.385C1449.44 547.885 1449.78 539.986 1449.89 533.831L1450.07 522.641L1449.27 522.369C1448.83 522.219 1448.47 521.687 1448.47 521.186C1448.47 520.686 1448.76 520.276 1449.11 520.276C1449.46 520.276 1449.75 519.859 1449.75 519.35C1449.75 518.84 1449.41 518.214 1449 517.958C1448.58 517.701 1447.21 517.273 1445.95 517.005C1444.68 516.737 1440.9 515.916 1437.54 515.18C1434.18 514.444 1428.69 513.565 1425.33 513.226C1421.97 512.887 1415.75 512.428 1411.51 512.205C1407.27 511.982 1399.75 511.564 1394.8 511.276C1389.85 510.987 1375.39 510.926 1362.66 511.14C1349.94 511.354 1332.58 511.545 1324.1 511.564C1315.61 511.583 1306.21 511.829 1303.21 512.11C1300.2 512.39 1296.09 512.935 1294.06 513.321C1292.03 513.706 1290.12 514.344 1289.81 514.738C1289.5 515.133 1288.97 517.266 1288.63 519.478L1288 523.501L1289.16 532.654C1289.79 537.689 1290.32 544.411 1290.34 547.592C1290.36 550.774 1290.54 554 1290.74 554.762C1290.99 555.685 1291.79 556.273 1293.14 556.523C1294.26 556.73 1301.39 557.187 1308.99 557.538C1316.59 557.89 1332.65 558.358 1344.67 558.578C1356.68 558.798 1374.91 559.192 1385.16 559.455C1395.41 559.717 1413.49 559.803 1425.33 559.645L1446.86 559.358L1447.7 558.553ZM1306.26 549.36C1305.71 548.741 1304.95 547.078 1304.58 545.664C1304.2 544.25 1303.6 539.911 1303.23 536.023C1302.87 532.134 1302.28 527.942 1301.93 526.707C1301.57 525.473 1301.28 524.243 1301.28 523.976C1301.28 523.708 1301.68 523.49 1302.17 523.49C1302.66 523.49 1303.57 524.556 1304.19 525.859C1304.83 527.209 1305.42 530.319 1305.58 533.089C1305.72 535.763 1306.14 539.465 1306.5 541.314C1306.86 543.164 1307.36 544.809 1307.62 544.969C1307.88 545.129 1308.82 544.339 1309.7 543.213C1310.58 542.086 1312.85 538.562 1314.73 535.38C1316.62 532.199 1318.6 529.089 1319.14 528.471C1319.68 527.852 1320.64 527.346 1321.28 527.346C1321.92 527.346 1322.78 527.964 1323.18 528.72C1323.59 529.475 1323.77 531.018 1323.58 532.149C1323.4 533.28 1323.47 534.562 1323.74 534.999L1324.23 535.792L1326.82 532.855L1329.4 529.917H1331.12H1332.85L1334.08 532.699C1334.75 534.228 1335.92 536.253 1336.66 537.198L1338.01 538.915H1340.08C1341.22 538.915 1344.9 538.201 1348.26 537.328L1354.37 535.74L1363.33 535.444C1368.27 535.282 1374.62 534.954 1377.44 534.716C1380.48 534.461 1389.32 534.738 1398.98 535.391C1407.99 536.001 1417.28 536.57 1419.62 536.655C1421.96 536.74 1424.21 537.011 1424.6 537.258C1425 537.504 1425.33 538.267 1425.33 538.953V540.201L1421.63 540.191C1419.6 540.185 1411.86 539.766 1404.44 539.258C1397.02 538.75 1388.63 538.33 1385.8 538.325C1382.97 538.319 1375.16 538.44 1368.45 538.593L1356.23 538.871L1352.7 539.917C1350.76 540.492 1347.72 541.382 1345.95 541.895C1344.01 542.456 1341.65 542.671 1339.99 542.436C1338.48 542.221 1336.55 541.414 1335.69 540.641C1334.83 539.868 1333.59 538.243 1332.94 537.03C1332.28 535.816 1331.43 534.717 1331.04 534.587C1330.65 534.458 1329.56 535.45 1328.62 536.794C1327.68 538.137 1326.35 540.176 1325.67 541.325L1324.44 543.414H1322.89C1322.04 543.414 1321.19 543.025 1321.01 542.55C1320.83 542.076 1320.48 540.051 1320.23 538.051C1319.98 536.052 1319.52 534.415 1319.2 534.415C1318.89 534.415 1318.63 534.829 1318.63 535.334C1318.63 535.839 1318.27 536.634 1317.83 537.101C1317.39 537.568 1316.51 539.073 1315.87 540.444C1315.24 541.816 1313.81 544.325 1312.7 546.019C1311.59 547.713 1310 549.411 1309.17 549.792C1308.33 550.172 1307.56 550.484 1307.46 550.484C1307.35 550.484 1306.81 549.978 1306.26 549.359V549.36ZM1071.72 559.18C1071.48 558.935 1067.72 558.679 1063.36 558.61C1059 558.542 1055.07 558.259 1054.63 557.982C1054.19 557.705 1053.83 556.973 1053.83 556.356C1053.83 555.738 1053.09 554.237 1052.19 553.02L1050.56 550.806L1050.95 548.482C1051.16 547.205 1051.03 543.3 1050.65 539.805C1050.27 536.311 1049.64 529.403 1049.25 524.454C1048.85 519.505 1048.45 514.443 1048.36 513.206C1048.26 511.969 1048.15 510.18 1048.12 509.232C1048.07 508.112 1047.59 507.365 1046.76 507.1C1046.05 506.876 1045.29 505.968 1045.07 505.082C1044.85 504.196 1044.93 503.204 1045.26 502.878C1045.59 502.552 1048.88 501.828 1052.57 501.269C1056.27 500.71 1061.61 499.992 1064.43 499.672C1067.26 499.353 1075.65 498.488 1083.07 497.751L1096.57 496.41L1118.42 496.138C1130.44 495.989 1143.31 495.635 1147.02 495.352C1150.74 495.069 1162.91 495.047 1174.07 495.303C1185.24 495.559 1196.37 495.935 1198.82 496.138C1201.26 496.341 1207.02 496.956 1211.62 497.505C1216.21 498.054 1222.53 498.905 1225.65 499.397C1228.77 499.889 1232.24 500.825 1233.36 501.478L1235.4 502.664L1235.6 504.721L1235.8 506.779L1234.32 506.779L1232.83 506.779L1233 510.796C1233.1 513.005 1233.29 521.465 1233.42 529.596C1233.55 537.726 1233.83 546.403 1234.03 548.878C1234.23 551.352 1234.18 554.386 1233.91 555.619L1233.42 557.86L1219.58 557.744C1211.97 557.681 1201.71 557.326 1196.79 556.957C1191.87 556.588 1184.66 556.294 1180.77 556.303C1176.88 556.313 1172.54 556.423 1171.13 556.548C1169.71 556.674 1163.25 557.096 1156.76 557.486C1150.28 557.876 1144.71 558.033 1144.39 557.834C1144.06 557.635 1136.58 557.467 1127.76 557.461C1118.94 557.455 1111.41 557.645 1111.02 557.882C1110.64 558.119 1104.34 558.412 1097.02 558.533C1089.7 558.655 1081.11 558.95 1077.93 559.19C1074.75 559.429 1071.95 559.425 1071.72 559.18V559.18ZM1101.07 553.088C1104.6 552.738 1110.24 552.225 1113.6 551.95C1116.96 551.674 1127.37 551.536 1136.74 551.643C1146.11 551.75 1159.24 551.549 1165.91 551.196C1173.77 550.781 1182.74 550.768 1191.3 551.16C1198.59 551.494 1210.23 551.84 1217.16 551.929L1229.78 552.091L1230.18 545.343C1230.4 541.631 1230.58 534.111 1230.59 528.631C1230.6 523.152 1230.31 515.665 1229.96 511.993C1229.62 508.322 1229.25 505.23 1229.14 505.122C1229.03 505.014 1223.6 504.317 1217.07 503.571C1210.54 502.826 1199.55 501.822 1192.66 501.34C1185.77 500.858 1173.91 500.305 1166.31 500.112C1158.31 499.908 1150.59 500.034 1147.99 500.41C1145.51 500.768 1133.37 501.068 1120.99 501.077C1108.62 501.086 1097.32 501.351 1095.87 501.666C1094.43 501.98 1089.8 502.411 1085.59 502.624C1081.38 502.836 1072.16 503.715 1065.1 504.577C1058.05 505.438 1052.01 506.408 1051.69 506.732C1051.37 507.056 1051.28 509.295 1051.5 511.709C1051.72 514.123 1052.18 519.569 1052.53 523.811C1052.87 528.053 1053.3 532.391 1053.47 533.452C1053.64 534.512 1054.09 537.839 1054.47 540.843C1054.85 543.848 1055.46 547.825 1055.83 549.681L1056.49 553.055L1060.46 553.093C1062.65 553.113 1065.59 553.349 1067 553.617C1068.42 553.885 1075.22 554.019 1082.11 553.914C1089 553.81 1097.53 553.438 1101.07 553.088V553.088ZM1076.47 541.647C1075.8 540.675 1074.64 538.578 1073.89 536.987C1073.14 535.396 1072.27 531.781 1071.95 528.953C1071.63 526.125 1071.15 523.305 1070.89 522.686L1070.4 521.561H1072.05C1072.98 521.561 1073.96 522.056 1074.29 522.686C1074.6 523.305 1075.05 525.469 1075.28 527.495C1075.5 529.521 1076 532.633 1076.38 534.411C1076.81 536.412 1077.54 537.89 1078.29 538.292L1079.5 538.942L1083.98 534.829C1086.45 532.567 1089.24 530.523 1090.18 530.287C1091.28 530.011 1092.43 530.215 1093.41 530.858C1094.25 531.407 1095.38 532.722 1095.93 533.779C1096.48 534.837 1097.1 535.702 1097.32 535.702C1097.53 535.702 1099.86 533.66 1102.48 531.164L1107.26 526.626L1108.92 526.825C1109.83 526.935 1110.79 527.458 1111.05 527.989C1111.31 528.519 1111.99 530.062 1112.58 531.417L1113.63 533.881L1116.17 533.452C1117.57 533.217 1120.52 532.465 1122.74 531.782C1124.96 531.099 1129.38 530.368 1132.56 530.157C1135.74 529.946 1145.29 530.163 1153.77 530.635C1162.26 531.109 1176.86 531.45 1186.23 531.392C1195.6 531.334 1204.13 531.196 1205.19 531.084L1207.12 530.881L1207.31 532.188L1207.49 533.496L1205.38 534.253C1204.22 534.669 1200.52 535.062 1197.16 535.126C1193.8 535.19 1188.59 535.267 1185.59 535.298C1182.58 535.329 1174.63 535.004 1167.91 534.576C1161.2 534.148 1151.51 533.559 1146.38 533.267L1137.06 532.736L1131.6 533.503C1128.59 533.925 1124.61 534.881 1122.74 535.628C1120.85 536.382 1117.9 536.987 1116.1 536.987H1112.86L1111.14 535.195C1110.2 534.209 1109.11 532.85 1108.73 532.176L1108.04 530.949L1104 535.877C1101.77 538.587 1099.39 540.982 1098.71 541.199C1098.03 541.415 1096.82 541.166 1096.02 540.645C1095.23 540.124 1094.04 538.509 1093.39 537.057C1092.73 535.604 1091.81 534.416 1091.34 534.416C1090.88 534.416 1088.43 536.441 1085.92 538.915L1081.35 543.414H1079.52H1077.7L1076.47 541.647ZM781.309 549.342C781.309 548.96 780.924 548.262 780.452 547.791L779.595 546.934L780.069 530.552C780.33 521.51 780.279 510.57 779.954 506.136C779.63 501.717 779.04 497.039 778.643 495.739C778.246 494.44 778.089 492.939 778.294 492.405C778.499 491.87 779.768 491.124 781.113 490.746C782.458 490.368 786.162 489.779 789.343 489.437C792.525 489.095 801.202 488.508 808.625 488.133C816.049 487.758 825.738 487.161 830.157 486.807C834.576 486.453 841.463 485.85 845.462 485.467C849.461 485.084 854.13 484.956 855.837 485.182C857.544 485.409 871.915 485.55 887.773 485.496C903.63 485.442 917.328 485.392 918.211 485.386C919.095 485.38 924.735 485.567 930.745 485.804C936.754 486.041 942.539 486.372 943.599 486.541C944.66 486.71 947.842 487.162 950.67 487.546C953.498 487.929 959.499 488.605 964.006 489.048C968.513 489.49 972.331 489.984 972.492 490.144C972.653 490.305 972.948 492.126 973.149 494.192C973.35 496.257 973.656 498.177 973.83 498.459C974.004 498.741 974.321 502.566 974.535 506.96L974.923 514.949L973.877 516.545L972.832 518.141L972.418 529.096L972.004 540.052L973.291 540.46C973.998 540.684 974.91 541.599 975.317 542.493C975.724 543.386 976.057 544.241 976.057 544.392C976.057 544.543 975.21 545.105 974.175 545.64C973.102 546.195 972.204 547.239 972.086 548.067L971.88 549.52L970.112 549.724L968.345 549.927V547.985V546.044L966.256 545.723C965.107 545.547 958.672 545.172 951.955 544.89C945.238 544.609 930.198 544.386 918.533 544.396C906.867 544.406 893.129 544.522 888.003 544.655C882.877 544.788 876.37 545.132 873.542 545.42C870.713 545.708 862.181 546.291 854.581 546.714C846.981 547.138 835.122 547.531 828.229 547.587C821.335 547.644 810.779 548.015 804.769 548.411C798.759 548.807 791.023 549.335 787.576 549.583L781.309 550.036V549.342ZM793.2 544.731C795.321 544.399 800.961 543.807 805.733 543.414C810.505 543.021 822.653 542.583 832.728 542.441C844.185 542.28 856.221 541.694 864.865 540.875C872.465 540.156 882.733 539.552 887.682 539.533C892.631 539.514 901.261 539.261 906.86 538.97C912.46 538.679 923.45 538.684 931.284 538.981C939.118 539.279 950.615 539.719 956.833 539.959L968.139 540.396L968.581 530.175C968.824 524.554 969.449 517.93 969.969 515.455C970.49 512.981 970.916 508.374 970.916 505.217C970.916 502.061 970.573 498.531 970.154 497.372C969.694 496.1 968.74 495.027 967.744 494.661C966.837 494.328 962.769 493.715 958.704 493.301C954.638 492.886 949.143 492.257 946.492 491.903C943.84 491.55 938.676 491.146 935.016 491.007C931.355 490.868 927.809 490.579 927.135 490.365C926.462 490.151 907.909 489.868 885.907 489.735L845.904 489.494L833.371 490.721C826.477 491.396 816.065 492.253 810.232 492.624C804.399 492.996 797.408 493.295 794.695 493.29C791.982 493.284 788.299 493.619 786.509 494.032C784.412 494.516 783.127 495.186 782.895 495.917C782.697 496.541 782.844 501.194 783.223 506.257C783.601 511.321 783.831 521.707 783.734 529.338L783.559 543.212L784.441 544.277C784.926 544.863 786.228 545.34 787.333 545.337C788.439 545.337 791.079 545.062 793.2 544.73V544.731ZM798.568 531.187C797.985 530.847 797.208 529.193 796.841 527.511C796.474 525.83 795.992 522.87 795.77 520.935C795.548 518.999 795.064 517.051 794.693 516.604C794.323 516.158 794.188 515.356 794.393 514.821C794.598 514.286 795.463 513.849 796.315 513.849C797.166 513.849 798.152 514.21 798.505 514.652C798.858 515.094 799.348 517.118 799.594 519.151C799.84 521.184 800.295 522.847 800.605 522.847C800.915 522.847 801.962 521.806 802.933 520.534C803.903 519.262 805.361 517.969 806.173 517.66C806.986 517.351 808.069 517.259 808.581 517.455C809.092 517.652 809.696 518.656 809.923 519.687C810.149 520.718 810.647 521.561 811.029 521.561C811.41 521.561 813.391 519.971 815.429 518.026C817.467 516.082 819.663 514.457 820.308 514.415C820.952 514.373 821.914 514.397 822.444 514.467C822.974 514.537 824.462 515.612 825.751 516.857L828.094 519.12L836.035 520.061C840.402 520.579 845.422 520.816 847.189 520.587C848.957 520.358 860.237 520.19 872.256 520.213C884.275 520.236 897.869 519.965 902.465 519.61C907.06 519.256 913.279 518.706 916.283 518.388C919.288 518.07 923.337 517.328 925.281 516.739C927.226 516.149 930.385 515.391 932.302 515.053C934.218 514.715 936.191 514.594 936.685 514.783C937.185 514.975 937.492 515.769 937.378 516.571L937.172 518.015L934.061 518.458C932.35 518.701 928.88 519.529 926.35 520.298C923.719 521.097 920.157 521.672 918.03 521.643C915.984 521.614 912.512 521.984 910.315 522.466L906.321 523.342L880.29 523.459C865.973 523.523 851.512 523.617 848.154 523.669C844.795 523.72 839.067 523.512 835.425 523.206L828.802 522.649L825.277 520.18L821.752 517.71L817.798 521.885L813.844 526.06H812.15C811.188 526.06 809.823 525.386 808.99 524.5C808.184 523.642 807.13 523.091 806.648 523.276C806.165 523.461 804.601 525.465 803.171 527.729C801.741 529.993 800.359 531.836 800.099 531.825C799.84 531.815 799.15 531.528 798.568 531.187V531.187ZM1466.03 490.658C1465.64 490.276 1462.04 489.844 1458.02 489.698C1454 489.553 1442.89 489.194 1433.33 488.902C1423.76 488.609 1415.6 488.159 1415.18 487.901C1414.76 487.643 1397.86 487.426 1377.61 487.417C1357.37 487.409 1336.47 487.137 1331.17 486.811C1325.87 486.486 1318.78 486.04 1315.42 485.82C1312.06 485.601 1303.95 485.364 1297.4 485.294C1290.84 485.224 1285.17 484.975 1284.79 484.74C1284.41 484.505 1283.93 483.076 1283.73 481.566C1283.53 480.055 1283.17 478.182 1282.94 477.403L1282.51 475.986L1284.98 476.339C1286.35 476.534 1288.37 477.098 1289.48 477.593L1291.5 478.493L1296.23 478.111C1298.83 477.901 1307.32 478.083 1315.1 478.516C1322.88 478.95 1330.54 479.381 1332.13 479.475C1333.72 479.569 1350.06 479.702 1368.45 479.769C1386.83 479.837 1402.59 479.726 1403.48 479.523C1404.36 479.319 1410.02 479.665 1416.05 480.292C1423.14 481.028 1427.91 481.241 1429.55 480.893C1430.94 480.596 1433.38 480.574 1434.97 480.843C1436.56 481.111 1439.45 481.263 1441.4 481.179C1443.34 481.095 1449.27 481.438 1454.57 481.941L1464.21 482.855L1465.24 481.948L1466.28 481.04L1470.39 482.009C1472.65 482.542 1475.28 482.983 1476.23 482.988C1477.18 482.994 1478.13 482.715 1478.35 482.369C1478.56 482.023 1478.73 477.901 1478.72 473.21C1478.71 468.518 1479 459.039 1479.37 452.146C1479.74 445.253 1480.04 430.358 1480.04 419.045C1480.04 407.733 1480.33 392.404 1480.7 384.981C1481.07 377.557 1481.43 364.397 1481.5 355.736C1481.58 347.075 1481.39 332.325 1481.09 322.957C1480.79 313.589 1480.16 303.9 1479.71 301.425C1479.25 298.951 1478.98 296.799 1479.11 296.643C1479.24 296.487 1479.74 296.776 1480.22 297.286C1480.71 297.795 1481.61 301.538 1482.24 305.603C1482.95 310.229 1483.45 317.804 1483.58 325.849C1483.7 332.919 1483.79 345.79 1483.78 354.451C1483.77 363.112 1483.65 376.271 1483.49 383.695C1483.33 391.119 1483.03 411.076 1482.82 428.044C1482.61 445.012 1482.39 462.366 1482.33 466.608C1482.26 470.85 1482.44 477.72 1482.72 481.874L1483.23 489.428L1481.57 490.182L1479.92 490.935L1474.78 490.1L1469.63 489.265L1468.48 490.309C1467.85 490.883 1467.19 491.353 1467.02 491.353C1466.86 491.353 1466.41 491.04 1466.03 490.658V490.658ZM1233.28 484.292C1232.11 484.015 1230.98 483.613 1230.77 483.399C1230.55 483.184 1230.06 483.259 1229.68 483.564C1229.28 483.877 1225.88 483.859 1221.9 483.523C1218.01 483.195 1213.18 482.938 1211.17 482.952C1209.15 482.966 1207.33 482.693 1207.11 482.345C1206.9 481.997 1205.86 481.712 1204.79 481.712C1203.69 481.712 1203.03 481.982 1203.26 482.347C1203.49 482.712 1203.22 482.818 1202.65 482.596C1202.09 482.384 1201.2 482.577 1200.66 483.025L1199.68 483.839L1188.72 483.408C1182.69 483.171 1177.22 482.691 1176.57 482.343L1175.38 481.708L1174.93 482.444L1174.47 483.179L1167.47 482.753C1163.61 482.519 1159.92 481.99 1159.26 481.576L1158.06 480.825L1157.01 481.691L1155.97 482.557L1155.22 481.813C1154.82 481.404 1153.84 481.069 1153.06 481.069C1152.27 481.069 1151.48 481.43 1151.3 481.872L1150.98 482.676L1150.31 481.712L1149.64 480.748L1144.64 480.933C1141.9 481.035 1139.37 481.397 1139.03 481.736C1138.69 482.076 1136.9 482.354 1135.06 482.354C1133.03 482.354 1131.61 482.051 1131.45 481.585L1131.19 480.815L1129.09 481.687L1126.98 482.56L1126.44 481.679L1125.89 480.799L1124.73 481.839L1123.56 482.879L1116.49 482.949C1112.61 482.987 1104.49 482.846 1098.46 482.634L1087.49 482.25L1086.65 483.266L1085.81 484.283H1081.75C1079.51 484.283 1077.51 483.993 1077.29 483.64C1077.07 483.286 1074.88 482.997 1072.43 482.997C1069.96 482.997 1067.97 483.277 1067.97 483.624C1067.97 484.03 1067.38 484.028 1066.31 483.618C1065.39 483.271 1064.41 483.132 1064.12 483.309C1063.84 483.487 1059.5 483.356 1054.49 483.019L1045.37 482.406L1042.89 479.691L1040.41 476.977L1040.85 475.005C1041.1 473.921 1041.29 467.972 1041.29 461.785C1041.29 455.599 1041.2 420.602 1041.09 384.015C1040.96 340.51 1040.62 314.156 1040.13 307.851C1039.71 302.548 1039.37 295.462 1039.37 292.104V285.998L1043.54 286.067C1045.84 286.105 1053.36 286.468 1060.26 286.874C1067.15 287.28 1082.48 287.892 1094.32 288.235C1106.16 288.579 1122.22 289.149 1129.99 289.502C1137.77 289.856 1156.86 290.446 1172.41 290.814C1187.97 291.181 1206.04 291.793 1212.58 292.173C1219.12 292.553 1229.17 293.055 1234.91 293.288L1245.35 293.711L1245.7 302.066C1245.89 306.662 1246.19 315.628 1246.36 321.991C1246.53 328.354 1246.92 336.308 1247.22 339.666C1247.52 343.024 1247.65 353.87 1247.51 363.769C1247.36 373.667 1247.13 382.633 1246.99 383.693C1246.85 384.754 1246.43 387.502 1246.06 389.799C1245.69 392.097 1245.38 396.468 1245.38 399.513C1245.37 402.558 1245.05 406.607 1244.67 408.511C1244.29 410.416 1244 413.494 1244.03 415.352C1244.05 417.211 1243.78 420.781 1243.43 423.287C1243.07 425.793 1242.62 440.036 1242.43 454.938C1242.23 469.839 1241.96 482.393 1241.81 482.835C1241.67 483.277 1240.83 483.638 1239.96 483.638C1239.08 483.638 1238.19 483.928 1237.97 484.281C1237.75 484.635 1237.09 484.894 1236.49 484.858C1235.89 484.822 1234.45 484.566 1233.28 484.29V484.292ZM1067.65 476.91C1072.6 476.693 1085.33 476.394 1095.94 476.244C1106.56 476.095 1118.56 475.674 1122.62 475.31C1126.69 474.944 1138.49 474.774 1148.95 474.93C1159.38 475.086 1182.09 475.515 1199.41 475.884C1216.73 476.252 1232.25 476.737 1233.89 476.96L1236.88 477.366L1237.51 476.164C1237.86 475.504 1238.34 472.36 1238.58 469.179C1238.81 465.997 1239.12 455.296 1239.26 445.397C1239.4 435.499 1239.82 424.509 1240.2 420.974C1240.58 417.439 1241.17 412.088 1241.51 409.083C1241.86 406.078 1242.14 401.41 1242.14 398.71C1242.14 396.009 1242.62 391.381 1243.21 388.426L1244.26 383.052L1244.33 359.593C1244.37 346.69 1244.16 327.169 1243.86 316.214C1243.56 305.259 1243.18 296.072 1243.01 295.798C1242.84 295.524 1238.89 295.313 1234.23 295.328C1229.57 295.343 1219.69 295.093 1212.26 294.772C1204.84 294.451 1189.36 293.998 1177.88 293.765C1166.39 293.533 1150.77 293.224 1143.17 293.08C1135.57 292.936 1123.13 292.518 1115.53 292.151C1107.93 291.783 1094.92 291.343 1086.61 291.172C1078.3 291.001 1065.72 290.567 1058.65 290.208C1051.58 289.849 1044.78 289.48 1043.54 289.388L1041.3 289.22L1041.48 293.073C1041.58 295.192 1041.98 300.397 1042.36 304.639C1042.74 308.881 1043.13 316.835 1043.21 322.314C1043.3 327.793 1043.56 357.439 1043.8 388.194C1044.04 418.949 1044.52 449.981 1044.89 457.153C1045.25 464.326 1045.36 470.768 1045.14 471.469C1044.92 472.169 1044.92 473.57 1045.14 474.582L1045.54 476.421L1051.13 477.036C1054.21 477.375 1057.15 477.573 1057.68 477.478C1058.22 477.382 1062.7 477.127 1067.65 476.91H1067.65ZM1172.41 466.241C1171.35 464.835 1169.62 462.594 1168.56 461.262C1167.5 459.929 1165.42 457.55 1163.95 455.975C1162.48 454.399 1160.64 452.307 1159.87 451.324C1159.1 450.342 1156.11 447.502 1153.23 445.014C1150.35 442.525 1147.31 439.929 1146.49 439.245C1145.66 438.561 1144.79 438.088 1144.56 438.195C1144.32 438.301 1143.41 438.697 1142.53 439.075C1141.64 439.453 1140.12 440.09 1139.15 440.491C1138.18 440.892 1136.73 441.479 1135.94 441.797C1135.14 442.114 1133.33 442.851 1131.92 443.435C1130.51 444.018 1128.92 444.712 1128.39 444.977C1127.86 445.241 1125.83 445.938 1123.89 446.525C1121.94 447.112 1118.62 448.03 1116.49 448.565C1114.37 449.1 1109.82 449.868 1106.36 450.271C1102.91 450.675 1098.14 450.89 1095.76 450.749L1091.43 450.494L1087.57 448.012C1085.45 446.647 1082.45 444.344 1080.89 442.893C1079.34 441.443 1073.85 435.986 1068.68 430.768C1063.52 425.549 1058.16 420.054 1056.77 418.556C1055.38 417.057 1053.64 415.491 1052.91 415.075L1051.58 414.318L1052.86 413.845C1053.57 413.586 1054.87 412.877 1055.76 412.27C1056.64 411.664 1061.22 408.963 1065.93 406.269C1070.65 403.575 1074.62 401.37 1074.75 401.37C1074.89 401.37 1077.25 400.038 1080 398.41C1082.75 396.782 1086.74 394.587 1088.86 393.532C1090.98 392.477 1094.96 390.137 1097.69 388.331C1100.43 386.526 1102.68 384.821 1102.68 384.542C1102.68 384.264 1101.94 381.503 1101.04 378.406C1100.15 375.31 1098.74 371.301 1097.91 369.497C1097.09 367.693 1095.22 364.239 1093.76 361.821C1092.3 359.403 1091.11 357.189 1091.11 356.901C1091.11 356.614 1091.53 356.379 1092.05 356.379C1092.57 356.379 1094 357.953 1095.23 359.878C1096.47 361.803 1098.54 365.316 1099.84 367.685C1101.14 370.054 1102.89 374.481 1103.72 377.523C1104.63 380.877 1105.74 383.472 1106.52 384.119C1107.37 384.82 1107.82 385.963 1107.82 387.45V389.714L1106.4 390.164C1105.54 390.437 1104.89 390.327 1104.74 389.886C1104.61 389.486 1104.16 389.158 1103.74 389.158C1103.32 389.158 1098.06 391.795 1092.06 395.017C1086.06 398.239 1078.73 402.216 1075.79 403.855C1072.84 405.493 1068.31 407.99 1065.73 409.404C1063.15 410.818 1060.22 412.594 1059.22 413.351L1057.41 414.727L1059.73 417.529C1061 419.07 1066.36 424.669 1071.63 429.972C1076.9 435.274 1082.69 440.829 1084.48 442.316C1086.28 443.803 1088.86 445.594 1090.23 446.297C1091.6 447 1093.44 447.658 1094.32 447.76C1095.2 447.861 1098.68 447.714 1102.03 447.433C1105.39 447.151 1110.6 446.351 1113.6 445.653C1116.61 444.956 1119.79 444.131 1120.67 443.82C1121.56 443.509 1126.1 441.753 1130.78 439.916C1135.45 438.08 1139.89 436.049 1140.64 435.402L1141.99 434.226L1143.7 434.966C1144.65 435.373 1147.15 436.853 1149.27 438.256C1151.4 439.659 1158.11 445.811 1164.2 451.926L1175.26 463.044L1176.91 460.885C1177.81 459.697 1179.44 456.894 1180.53 454.656C1181.61 452.418 1183.04 448.465 1183.7 445.871C1184.37 443.278 1185.07 440.904 1185.26 440.597C1185.44 440.29 1186.29 437.629 1187.13 434.684C1187.97 431.739 1188.98 426.581 1189.36 423.223C1189.74 419.865 1189.94 416.539 1189.79 415.832C1189.65 415.125 1188.9 410.931 1188.12 406.512C1187.35 402.093 1186.32 397.837 1185.83 397.054L1184.95 395.631L1186.23 394.943L1187.52 394.255L1188.76 394.92C1189.44 395.285 1190.14 396.091 1190.31 396.71C1190.48 397.329 1190.81 399.571 1191.04 401.692C1191.27 403.813 1191.9 407.174 1192.44 409.162L1193.43 412.776L1192.74 422.66C1192.36 428.213 1191.6 433.951 1191.01 435.756C1190.42 437.524 1189.55 439.881 1189.05 440.995C1188.56 442.109 1188.16 443.608 1188.16 444.326C1188.16 445.044 1187.28 448.026 1186.2 450.952C1185.12 453.879 1183.99 456.574 1183.7 456.942C1183.4 457.309 1182.29 459.2 1181.24 461.144C1180.18 463.089 1178.78 465.618 1178.12 466.764C1177.38 468.045 1176.42 468.839 1175.63 468.823C1174.9 468.809 1173.5 467.688 1172.41 466.241V466.241ZM1188.53 391.162C1188.3 390.792 1189.26 389.765 1190.66 388.879C1192.07 387.993 1194.66 386.03 1196.42 384.517C1198.19 383.005 1201.6 380.561 1204.02 379.088C1206.43 377.615 1210.72 375.2 1213.55 373.722C1216.38 372.244 1219.69 370.058 1220.91 368.863L1223.14 366.692L1220.12 360.732C1218.46 357.454 1216.28 353.83 1215.27 352.678L1213.45 350.585L1211.46 351.277C1210.37 351.658 1209.31 352.383 1209.12 352.889C1208.93 353.394 1208.3 353.808 1207.73 353.808C1207.17 353.808 1204.65 355.006 1202.14 356.471C1199.63 357.936 1196.69 359.36 1195.6 359.636C1194.51 359.911 1190.88 361.197 1187.52 362.493C1184.16 363.789 1181.27 365.07 1181.09 365.341C1180.91 365.612 1179.61 366.21 1178.2 366.671C1176.78 367.131 1174.87 368.07 1173.94 368.756L1172.25 370.004L1170.83 369.246L1169.41 368.488L1170.53 367.254L1171.65 366.02H1170.58C1170 366.02 1169.52 365.711 1169.52 365.334C1169.52 364.957 1168.8 363.701 1167.91 362.542C1167.03 361.383 1166.31 360.118 1166.31 359.729C1166.31 359.341 1164.64 357.058 1162.61 354.656C1160.58 352.255 1158.54 349.852 1158.08 349.317C1157.63 348.782 1156.1 346.826 1154.7 344.97L1152.14 341.596H1153.63H1155.12L1157.66 344.945C1159.06 346.788 1161.81 350.042 1163.77 352.176C1165.74 354.311 1168.01 357.207 1168.82 358.613C1169.63 360.018 1170.84 361.553 1171.51 362.023C1172.18 362.494 1172.73 363.441 1172.73 364.128C1172.73 364.815 1173.02 365.377 1173.37 365.377C1173.73 365.377 1176.11 364.399 1178.68 363.205C1181.24 362.01 1186.1 359.982 1189.48 358.698C1192.85 357.414 1198.41 354.848 1201.83 352.997L1208.04 349.63L1208.06 348.184L1208.09 346.738H1211.61H1215.13L1215.56 348.505C1215.8 349.478 1217.21 351.864 1218.7 353.808C1220.19 355.752 1222.17 358.851 1223.1 360.694C1224.03 362.536 1225.66 365.033 1226.72 366.242C1227.78 367.45 1228.65 368.907 1228.65 369.479C1228.65 370.136 1228.11 370.519 1227.17 370.519C1226.36 370.519 1225.42 370.782 1225.09 371.103C1224.75 371.424 1220.49 373.738 1215.62 376.246C1210.75 378.753 1205.55 381.591 1204.05 382.551C1202.56 383.512 1199.3 385.804 1196.81 387.645C1194.33 389.486 1191.54 391.182 1190.62 391.413C1189.68 391.649 1188.76 391.539 1188.53 391.162H1188.53ZM1074.72 355.247C1074.01 355.106 1071.7 354.466 1069.58 353.825C1067.45 353.185 1064.09 351.889 1062.1 350.945C1060.11 350.001 1057.9 348.596 1057.21 347.823C1056.51 347.049 1055.61 345.433 1055.2 344.232C1054.8 343.03 1054.47 341.78 1054.47 341.454C1054.47 341.113 1055.91 341.041 1057.85 341.283L1061.24 341.706L1067.33 340.345C1070.69 339.597 1074.48 338.705 1075.76 338.362C1077.03 338.02 1078.24 337.74 1078.44 337.74C1078.64 337.74 1079.26 338.654 1079.81 339.772C1080.37 340.89 1080.76 341.847 1080.67 341.899C1080.58 341.951 1076.89 342.777 1072.47 343.735C1068.05 344.692 1063.9 345.47 1063.26 345.464C1062.6 345.458 1062.19 345.806 1062.34 346.256C1062.49 346.698 1064.92 347.829 1067.74 348.769L1072.87 350.478L1078.61 350.692C1081.77 350.81 1089.85 350.378 1096.57 349.732C1103.29 349.087 1111.67 347.868 1115.21 347.024C1118.74 346.18 1124.21 344.895 1127.36 344.167C1130.51 343.44 1135.43 342.012 1138.29 340.994C1141.15 339.976 1146.53 337.709 1150.24 335.957C1153.95 334.204 1158.68 331.997 1160.76 331.052C1162.83 330.107 1166.12 327.971 1168.07 326.306C1170.02 324.641 1172.83 322.204 1174.31 320.891C1175.79 319.577 1177.46 317.553 1178.02 316.391C1178.57 315.23 1179.65 312.834 1180.4 311.066C1181.16 309.299 1182.13 306.406 1182.56 304.639L1183.34 301.425H1184.62C1185.41 301.425 1185.91 301.856 1185.92 302.525C1185.93 303.13 1186.26 303.964 1186.68 304.377L1187.43 305.129L1186.19 307.445C1185.5 308.719 1184.95 310.177 1184.95 310.685C1184.95 311.192 1184.56 312.064 1184.09 312.622C1183.62 313.18 1182.87 314.939 1182.42 316.529C1181.97 318.12 1180.45 320.937 1179.03 322.788C1177.61 324.64 1175.53 326.719 1174.42 327.408C1173.3 328.097 1171.69 329.402 1170.84 330.308C1169.99 331.214 1168.96 331.955 1168.54 331.955C1168.13 331.955 1167.29 332.507 1166.68 333.182C1166.07 333.856 1164.65 334.764 1163.53 335.198C1162.41 335.632 1159.99 336.671 1158.15 337.506C1156.32 338.342 1154.58 339.033 1154.3 339.043C1154.01 339.053 1152.64 339.916 1151.26 340.961C1149.88 342.006 1147.71 343.049 1146.44 343.279C1145.17 343.51 1143.07 344.23 1141.78 344.879C1140.49 345.529 1138.18 346.498 1136.64 347.032C1135.1 347.567 1133.06 348.009 1132.09 348.014C1131.12 348.02 1127.8 348.785 1124.7 349.715C1121.6 350.646 1117.33 351.847 1115.21 352.384C1113.09 352.922 1109.72 353.435 1107.72 353.526C1105.72 353.617 1102.54 354.001 1100.65 354.381C1098.76 354.76 1092.44 355.168 1086.61 355.287C1080.77 355.406 1075.42 355.388 1074.72 355.247V355.247ZM1089.16 345.492C1087.93 344.453 1086.21 343.032 1085.32 342.334C1084.44 341.635 1083.89 340.886 1084.11 340.669C1084.32 340.452 1085.3 340.58 1086.29 340.953C1087.27 341.327 1088.19 341.518 1088.33 341.378C1088.46 341.239 1088.13 339.792 1087.57 338.164C1087.02 336.536 1085.28 332.376 1083.7 328.92C1082.13 325.463 1080.04 321.045 1079.06 319.1L1077.29 315.565L1076.15 315.758C1075.37 315.889 1074.72 315.271 1074.11 313.834L1073.22 311.718L1074.16 309.473C1074.68 308.238 1075.71 306.573 1076.47 305.772L1077.83 304.317L1083.02 304.337L1088.21 304.357L1092.05 306.265L1095.89 308.173L1099.45 308.163C1101.4 308.157 1105.74 307.574 1109.09 306.867C1112.44 306.16 1115.59 305.175 1116.09 304.679C1116.58 304.183 1117.6 302.246 1118.35 300.375C1119.27 298.066 1120.43 296.484 1121.96 295.451L1124.21 293.93L1126.78 294.323C1128.19 294.54 1130.51 295.539 1131.92 296.543C1133.33 297.548 1135.3 299.78 1136.28 301.504C1137.26 303.228 1139.21 307.096 1140.61 310.101C1142.02 313.106 1143.87 316.866 1144.73 318.457L1146.29 321.349L1147.94 321.553C1148.85 321.664 1149.9 322.318 1150.26 323.005L1150.93 324.254L1149.44 325.694C1148.62 326.486 1147.44 327.927 1146.83 328.896C1146.22 329.866 1144.2 331.421 1142.35 332.353C1140.5 333.285 1138.27 334.545 1137.38 335.152C1136.5 335.76 1135.2 336.424 1134.49 336.628C1133.78 336.831 1130.89 337.854 1128.06 338.901C1125.24 339.948 1122.05 341.246 1120.99 341.784C1119.93 342.323 1116.9 343.21 1114.25 343.756C1111.59 344.301 1105.98 345.043 1101.76 345.405C1097.54 345.766 1093.8 346.359 1093.44 346.721C1093.07 347.083 1092.47 347.38 1092.09 347.38C1091.7 347.38 1090.39 346.53 1089.16 345.491V345.492ZM1111.03 341.218C1113.68 340.672 1117.3 339.638 1119.07 338.921C1120.83 338.203 1123.87 337.111 1125.81 336.493C1127.76 335.876 1131.65 334.17 1134.46 332.703C1137.27 331.235 1140.67 328.961 1142.01 327.65C1143.36 326.339 1144.45 324.942 1144.45 324.545C1144.45 324.148 1143.77 323.184 1142.94 322.403C1142.11 321.622 1141.07 319.764 1140.63 318.274C1140.18 316.784 1138.5 312.818 1136.88 309.459C1135.27 306.101 1133.11 302.196 1132.08 300.782C1131.06 299.368 1129.84 297.996 1129.37 297.733C1128.9 297.47 1127.62 297.432 1126.53 297.65C1125.45 297.867 1124.31 298.372 1124.01 298.771C1123.7 299.17 1122.8 301.149 1122 303.167C1121.2 305.186 1120.18 307.143 1119.73 307.516C1119.28 307.889 1115.52 308.912 1111.37 309.791C1107.22 310.669 1102.15 311.388 1100.09 311.388H1096.35L1091.66 309.138L1086.97 306.888H1082.4H1077.83L1076.97 308.495L1076.11 310.103L1078.05 312.834C1079.12 314.336 1082.17 320.048 1084.83 325.528C1087.49 331.007 1089.84 336.213 1090.05 337.097C1090.26 337.981 1091.04 339.68 1091.78 340.873L1093.11 343.042L1099.66 342.626C1103.26 342.398 1108.38 341.764 1111.03 341.218V341.218ZM1151.78 320.655C1151.99 320.095 1152.17 319.094 1152.17 318.43V317.222L1154.9 316.503C1156.4 316.107 1159.37 314.692 1161.49 313.357C1163.61 312.023 1167.08 309.98 1169.2 308.817C1171.32 307.655 1174.57 305.411 1176.42 303.831L1179.79 300.958L1180.4 302.477L1181.02 303.996L1176.99 307.902C1174.77 310.05 1171.53 312.482 1169.79 313.307C1168.05 314.132 1165.33 315.737 1163.74 316.873C1162.14 318.009 1159.63 319.554 1158.14 320.305C1156.65 321.056 1154.52 321.671 1153.41 321.671H1151.39L1151.78 320.655ZM781.149 476.145C779.956 475.517 779.381 474.703 779.381 473.643C779.381 472.778 779.134 472.071 778.832 472.071C778.53 472.071 777.548 471.389 776.648 470.556L775.014 469.041L775.6 465.902C775.922 464.176 776.029 462.353 775.836 461.851C775.643 461.349 775.51 454.838 775.539 447.383C775.568 439.928 775.709 428.622 775.852 422.259C775.994 415.896 776.421 403.893 776.8 395.586C777.179 387.278 777.786 375.131 778.149 368.591C778.512 362.051 779.057 354.82 779.36 352.522C779.664 350.225 780.089 344.295 780.306 339.346C780.523 334.397 780.91 327.456 781.166 323.921C781.421 320.386 781.624 311.275 781.617 303.675L781.603 289.856L789.008 289.697C793.081 289.609 801.186 289.232 807.018 288.859C812.851 288.486 822.974 287.927 829.514 287.617C836.054 287.307 845.241 286.69 849.929 286.246L858.454 285.438L874.032 286.549L889.61 287.66L908.892 287.497L928.174 287.334L939.1 288.473C945.791 289.17 954.387 289.577 961.274 289.521C967.461 289.472 972.811 289.463 973.165 289.502C973.518 289.541 973.295 289.872 972.669 290.236C972.043 290.601 971.659 291.106 971.816 291.359C971.972 291.612 972.255 298.11 972.445 305.799C972.635 313.488 972.93 320.006 973.102 320.284C973.274 320.562 973.606 336.1 973.841 354.813C974.076 373.526 974.227 391.151 974.177 393.979L974.086 399.121L975.343 400.988L976.599 402.855L975.654 404.297L974.709 405.74L974.746 420.211C974.766 428.171 974.926 435.503 975.101 436.505C975.276 437.507 975.852 444.371 976.381 451.759C976.91 459.146 977.657 465.568 978.041 466.031C978.425 466.494 978.545 467.187 978.307 467.572C978.07 467.956 978.207 468.67 978.612 469.158L979.348 470.045L978.011 472.665C977.276 474.105 976.444 475.284 976.161 475.284C975.879 475.284 974.222 474.883 972.479 474.392C970.736 473.901 967.69 473.539 965.712 473.589C963.734 473.637 961.709 473.987 961.213 474.364C960.717 474.742 959.299 474.952 958.061 474.83C956.824 474.709 954.366 474.633 952.598 474.663C950.831 474.693 944.688 474.812 938.947 474.928L928.509 475.14L928.924 474.468C929.195 474.03 928.801 473.951 927.793 474.241C926.942 474.485 925.161 474.78 923.836 474.895C922.51 475.01 921.426 474.828 921.426 474.49C921.426 474.117 919.08 474.014 915.48 474.228C912.21 474.422 907.366 474.866 904.715 475.214C902.063 475.563 895.845 475.853 890.896 475.859C885.416 475.866 881.018 475.563 879.648 475.083C878.349 474.629 872.975 474.207 866.932 474.087L856.466 473.878L855.502 474.678L854.538 475.478L846.581 475.053L838.625 474.627L838.372 475.386C838.202 475.896 835.718 476.197 830.77 476.305C825.941 476.411 823.27 476.224 822.983 475.758C822.685 475.276 818.354 475.063 809.479 475.092C802.293 475.116 794.245 475.287 791.593 475.472C788.942 475.657 785.959 476.124 784.964 476.51C783.968 476.897 783.101 477.182 783.035 477.144C782.97 477.107 782.121 476.657 781.149 476.145L781.149 476.145ZM857.152 468.484C871.822 468.338 900.745 468.004 921.425 467.743C942.105 467.481 962.322 467.339 966.351 467.426L973.677 467.586L973.247 462.276C973.011 459.356 972.548 454.219 972.218 450.861C971.888 447.502 971.415 437.018 971.167 427.562C970.919 418.105 970.487 410.368 970.208 410.368C969.929 410.368 968.376 411.994 966.758 413.981C965.139 415.968 962.05 419.005 959.892 420.73C957.734 422.455 955.627 423.866 955.21 423.866C954.792 423.866 953.966 423.504 953.375 423.062C952.783 422.621 951.749 420.09 951.077 417.439C950.405 414.787 949.253 411.244 948.518 409.565C947.782 407.886 946.908 406.512 946.576 406.512C946.243 406.512 945.223 407.788 944.309 409.348C943.395 410.908 941.896 413.077 940.977 414.169C940.059 415.26 938.921 416.153 938.45 416.153C937.978 416.153 936.686 415.391 935.579 414.459C934.472 413.528 933.709 412.394 933.883 411.941C934.057 411.487 933.802 408.706 933.317 405.761C932.832 402.816 931.68 397.803 930.756 394.621C929.832 391.44 928.372 386.722 927.511 384.137C926.651 381.552 925.527 378.515 925.013 377.388C924.5 376.261 923.333 373.17 922.419 370.519C921.505 367.868 920.056 362.517 919.2 358.628C918.343 354.74 917.171 349.678 916.595 347.381C916.019 345.083 915.155 341.178 914.675 338.704C914.195 336.229 913.363 332.678 912.825 330.813C912.288 328.947 911.543 325.23 911.17 322.552C910.798 319.874 910.319 317.402 910.107 317.058C909.894 316.714 908.636 318.695 907.311 321.462C905.987 324.228 904.725 326.998 904.507 327.617C904.29 328.235 903.858 328.741 903.548 328.741C903.239 328.741 902.517 328.223 901.944 327.59C901.294 326.872 900.664 324.347 900.27 320.872C899.922 317.81 899.219 314.496 898.708 313.507C898.197 312.518 897.448 310.48 897.044 308.977C896.64 307.475 896.022 306.246 895.671 306.246C895.32 306.246 894.877 306.752 894.687 307.37C894.496 307.989 893.669 309.941 892.848 311.709C892.028 313.476 890.58 316.586 889.631 318.618C888.682 320.651 887.71 322.316 887.472 322.319C887.234 322.319 886.712 322.973 886.313 323.765C885.913 324.558 884.211 327.954 882.529 331.312C880.848 334.671 878.789 338.339 877.953 339.464C877.117 340.59 876.434 341.653 876.434 341.828C876.434 342.003 875.369 343.975 874.067 346.21C872.765 348.444 871.302 350.748 870.816 351.328C870.331 351.908 869.091 354.078 868.062 356.149C867.033 358.22 866.181 360.124 866.17 360.382C866.159 360.639 865.174 362.953 863.982 365.524C862.789 368.094 861.449 371.355 861.005 372.769C860.56 374.183 859.366 377.43 858.352 379.985C857.339 382.539 856.509 384.945 856.509 385.33C856.509 385.714 855.18 388.686 853.555 391.932C851.93 395.179 850.508 397.931 850.396 398.048C850.284 398.165 849.578 397.932 848.828 397.531C848.078 397.13 846.416 394.575 845.133 391.855C843.851 389.135 842.307 385.33 841.702 383.401C841.097 381.471 840.309 379.795 839.95 379.675C839.591 379.556 838.932 380.99 838.484 382.862C838.037 384.734 837.457 386.7 837.195 387.23C836.933 387.76 835.46 391.154 833.92 394.771L831.121 401.347L830.011 401.359C829.401 401.365 828.494 400.72 827.996 399.924C827.498 399.129 826.734 396.02 826.298 393.015C825.862 390.01 824.926 385.238 824.218 382.41C823.51 379.582 822.364 373.797 821.672 369.555C820.98 365.313 819.981 360.618 819.452 359.121C818.922 357.624 817.961 355.747 817.314 354.949L816.139 353.498L814.802 354.709C814.066 355.374 812.621 357.686 811.59 359.845C810.56 362.004 809.106 365.072 808.359 366.663C807.612 368.253 806.615 370.278 806.142 371.162C805.669 372.046 804.634 374.07 803.842 375.661C803.05 377.252 800.838 381.529 798.926 385.167C797.014 388.804 795.449 392.166 795.449 392.637C795.449 393.108 794.847 394.905 794.111 396.629C793.375 398.353 792.321 400.776 791.769 402.013C791.216 403.25 789.321 407.3 787.558 411.011C785.794 414.723 783.252 419.658 781.908 421.978L779.465 426.196L778.838 438.627C778.494 445.464 778.35 451.417 778.518 451.857C778.687 452.296 778.912 454.493 779.018 456.739C779.125 458.985 779.25 462.763 779.297 465.134L779.381 469.446L804.929 469.098C818.981 468.907 842.481 468.631 857.151 468.485L857.152 468.484ZM967.181 408.302L970.838 404.136L970.572 389.416C970.426 381.321 970.119 362.983 969.889 348.666C969.66 334.349 969.291 315.838 969.069 307.531L968.666 292.427L953.24 292.01C944.756 291.78 935.356 291.272 932.352 290.88C928.973 290.439 919.653 290.265 907.928 290.424C897.499 290.565 885.352 290.415 880.933 290.09C876.514 289.766 870.44 289.259 867.436 288.965C864.431 288.671 858.502 288.662 854.26 288.946C850.017 289.229 842.787 289.906 838.191 290.449C833.596 290.993 827.037 291.443 823.616 291.45C820.195 291.457 815.278 291.746 812.689 292.093C810.101 292.439 804.367 292.871 799.948 293.052C795.53 293.233 790.324 293.545 788.379 293.746C786.435 293.946 784.675 294.31 784.467 294.554C784.26 294.798 784.308 298.179 784.574 302.068C784.84 305.956 784.948 310.729 784.814 312.673C784.679 314.617 784.282 322.427 783.932 330.027C783.581 337.627 783.139 345.147 782.95 346.738C782.761 348.329 782.181 355.849 781.66 363.449C781.14 371.049 780.568 381.895 780.388 387.551C780.208 393.208 779.861 402.463 779.616 408.119L779.171 418.403L780.199 417.555C780.764 417.089 782.148 414.486 783.275 411.77C784.402 409.055 786.154 405.181 787.17 403.162C788.185 401.143 789.9 397.238 790.979 394.485C792.059 391.732 797.233 380.803 802.476 370.198C807.719 359.593 812.165 350.447 812.354 349.874C812.544 349.3 813.496 348.631 814.471 348.387L816.242 347.942L816.756 348.861C817.038 349.366 818.442 351.336 819.876 353.24C821.309 355.143 822.907 358.127 823.427 359.87C823.947 361.613 824.372 363.833 824.372 364.802C824.372 365.771 824.691 368.105 825.08 369.988C825.47 371.871 826.501 376.593 827.372 380.481C828.243 384.37 829.238 388.636 829.581 389.962C829.925 391.287 830.471 392.372 830.794 392.372C831.118 392.372 831.976 391.031 832.701 389.391C833.426 387.752 835.03 383.884 836.266 380.795C837.502 377.707 838.513 374.679 838.513 374.066C838.513 373.315 838.843 373.079 839.529 373.343C840.088 373.557 840.885 373.733 841.301 373.733C841.716 373.733 842.402 374.528 842.826 375.5C843.25 376.472 843.913 378.714 844.3 380.481C844.687 382.249 845.604 385.353 846.339 387.38C847.074 389.407 848.044 391.372 848.495 391.746L849.314 392.425L850.632 390.573C851.357 389.555 853.121 386.376 854.551 383.51C855.982 380.644 857.152 377.884 857.152 377.378C857.152 376.871 857.868 374.554 858.743 372.229C859.618 369.904 860.92 366.909 861.635 365.574C862.351 364.239 862.939 362.853 862.942 362.494C862.942 362.136 864.121 359.528 865.555 356.7C866.99 353.872 868.656 350.691 869.258 349.63C869.86 348.57 871.324 345.967 872.512 343.846C873.699 341.725 877.453 334.493 880.854 327.775C884.256 321.057 887.816 313.827 888.766 311.707C889.715 309.587 890.978 306.334 891.571 304.478L892.65 301.104H894.392C895.374 301.104 896.735 301.743 897.51 302.568C898.267 303.374 899.33 305.29 899.872 306.827C900.414 308.364 900.858 310.25 900.858 311.018C900.858 311.787 901.097 312.691 901.389 313.027C901.681 313.362 902.294 314.939 902.752 316.529C903.21 318.12 903.639 319.69 903.705 320.018C903.771 320.345 904.532 319.485 905.395 318.106C906.258 316.727 907.405 314.434 907.943 313.011C908.601 311.275 909.368 310.359 910.276 310.228L911.629 310.033L912.7 314.727C913.289 317.309 914.172 322.025 914.663 325.206C915.154 328.388 915.99 332.204 916.521 333.686C917.051 335.168 918.095 338.784 918.84 341.72C919.584 344.657 920.634 348.787 921.173 350.9C921.713 353.012 922.722 357.573 923.416 361.036C924.211 365.004 926.247 371.187 928.922 377.763C931.341 383.71 934.324 392.615 935.861 398.478C937.688 405.451 938.84 408.762 939.437 408.762C939.922 408.762 941.057 407.305 941.959 405.524C942.861 403.743 943.985 401.357 944.457 400.221L945.314 398.157H947.51C948.717 398.157 949.742 398.374 949.787 398.639C949.832 398.904 949.935 399.719 950.016 400.451C950.096 401.182 950.361 402.846 950.606 404.148C950.85 405.451 951.923 408.569 952.991 411.078C954.059 413.587 954.78 415.792 954.594 415.978C954.408 416.164 954.713 417.2 955.272 418.28L956.287 420.245L959.906 416.357C961.896 414.219 965.17 410.594 967.181 408.302V408.302ZM1284.95 474.287L1283.89 473.226L1284.21 468.31C1284.39 465.606 1284.7 455.151 1284.91 445.076C1285.12 435.001 1285.42 418.37 1285.57 408.119C1285.72 397.867 1286.03 387.021 1286.26 384.016C1286.49 381.012 1286.76 365.393 1286.87 349.309C1286.97 333.224 1286.78 317.317 1286.45 313.958C1286.11 310.6 1285.54 305.394 1285.18 302.389C1284.82 299.384 1284.4 296.131 1284.24 295.158L1283.96 293.391H1284.85C1285.35 293.391 1285.84 293.678 1285.96 294.028C1286.08 294.379 1289.64 294.797 1293.89 294.959C1298.13 295.121 1306.09 295.557 1311.56 295.929C1317.04 296.301 1326.59 296.984 1332.77 297.448L1344.02 298.29L1361.05 297.849C1370.42 297.607 1387.92 297.69 1399.94 298.034C1411.96 298.379 1432.93 298.734 1446.54 298.825C1460.45 298.917 1472.49 299.276 1474.04 299.643C1475.56 300.003 1477 300.495 1477.24 300.736C1477.48 300.977 1477.25 301.453 1476.73 301.795C1476.21 302.137 1474.87 302.258 1473.75 302.063C1472.63 301.869 1466.62 301.446 1460.38 301.122C1452.78 300.729 1447.08 300.76 1443.12 301.216C1439.16 301.674 1430.89 301.716 1417.94 301.346C1407.33 301.042 1388.1 300.824 1375.2 300.862C1362.29 300.899 1347.42 300.966 1342.14 301.011C1336.87 301.056 1330.07 300.794 1327.04 300.43C1324.01 300.066 1317.79 299.487 1313.22 299.144C1308.64 298.8 1300.73 298.402 1295.63 298.259L1286.36 297.998L1286.79 301.64C1287.03 303.643 1287.76 309.042 1288.43 313.637L1289.64 321.993L1289.66 335.49C1289.67 342.914 1289.84 352.314 1290.03 356.379C1290.22 360.444 1290.09 367.675 1289.73 372.447C1289.38 377.219 1288.89 398.044 1288.65 418.724C1288.42 439.404 1288.19 460.512 1288.16 465.631L1288.11 474.938L1287.06 475.143C1286.48 475.256 1285.53 474.871 1284.95 474.287H1284.95ZM1351.09 457.177C1346.5 456.865 1341.35 456.154 1339.65 455.599C1337.95 455.043 1335.49 454.597 1334.18 454.608C1332.88 454.619 1330.08 454.195 1327.95 453.665C1325.83 453.136 1323.05 452.016 1321.76 451.177C1320.47 450.338 1318.49 448.279 1317.36 446.601C1316.23 444.924 1314.99 442.072 1314.61 440.264L1313.92 436.977L1315.66 433.153L1317.4 429.329L1324.26 422.434L1331.12 415.539L1329.67 412.564C1328.88 410.927 1327.3 408.397 1326.16 406.942C1325.03 405.486 1322.07 401.953 1319.6 399.09C1317.12 396.228 1313.94 392.474 1312.53 390.749C1311.11 389.024 1309.4 386.731 1308.72 385.654C1308.05 384.576 1306.03 380.947 1304.25 377.589C1302.47 374.231 1300.08 369.59 1298.95 367.275C1297.81 364.961 1296.28 361.283 1295.55 359.101L1294.21 355.134V349.886C1294.21 346.999 1294.52 343.447 1294.9 341.992C1295.29 340.537 1295.92 338.189 1296.3 336.775C1296.69 335.361 1297.57 333.048 1298.26 331.634C1298.94 330.22 1299.95 328.557 1300.49 327.938C1301.03 327.319 1302.32 326.813 1303.34 326.813C1304.36 326.813 1305.98 326.41 1306.94 325.918C1307.89 325.425 1311.42 324 1314.78 322.751C1318.14 321.501 1322.76 319.999 1325.05 319.413C1327.34 318.827 1329.68 318.097 1330.25 317.791C1330.82 317.486 1334.92 316.788 1339.37 316.24C1343.81 315.692 1351.16 315.252 1355.7 315.263C1360.23 315.273 1367.56 315.553 1371.98 315.885C1376.43 316.219 1382.74 317.192 1386.12 318.063C1389.48 318.929 1394.95 320.608 1398.28 321.795L1404.32 323.953L1406.31 326.411L1408.3 328.869L1408.22 333.144C1408.17 335.907 1407.68 338.472 1406.83 340.4C1406.1 342.041 1405.18 343.586 1404.78 343.834C1404.38 344.082 1403.04 346.355 1401.81 348.886C1400.58 351.416 1398.79 354.809 1397.83 356.425C1396.87 358.041 1394.71 361.128 1393.03 363.285C1391.35 365.443 1389.98 367.408 1389.98 367.654C1389.98 367.899 1389.18 369.04 1388.21 370.19C1387.24 371.339 1385.29 373.925 1383.87 375.937C1382.46 377.948 1379.71 381.242 1377.77 383.255C1375.82 385.269 1372.53 388.93 1370.46 391.39C1368.39 393.85 1365.34 397.898 1363.68 400.384C1362.02 402.871 1360.14 406.207 1359.49 407.798C1358.85 409.388 1357.83 412.048 1357.23 413.708C1356.63 415.367 1355.22 417.664 1354.1 418.811L1352.06 420.896V422.978C1352.06 424.123 1352.51 425.514 1353.07 426.07C1353.62 426.625 1354.53 427.08 1355.08 427.08H1356.09L1355.73 430.583L1355.37 434.087L1358.93 435.122C1360.89 435.691 1364.7 436.426 1367.4 436.754C1370.09 437.083 1375.63 437.655 1379.69 438.025C1383.76 438.395 1388.99 438.918 1391.31 439.186L1395.54 439.675L1402.35 438.588C1406.63 437.905 1417.66 437.191 1431.96 436.671L1454.76 435.841L1456.36 436.892L1457.96 437.942L1458.74 443.277C1459.17 446.211 1459.41 450.036 1459.29 451.777L1459.07 454.943L1455.22 455.832L1451.36 456.721L1444.93 456.294C1441.4 456.059 1435.61 455.849 1432.08 455.827C1428.54 455.804 1412.78 456.001 1397.05 456.264C1381.32 456.527 1367.43 457.008 1366.2 457.333C1364.96 457.658 1362.93 457.884 1361.7 457.835C1360.46 457.786 1355.69 457.49 1351.09 457.177H1351.09ZM1370.05 452.372C1375.18 452.228 1396.2 452.03 1416.76 451.932L1454.14 451.753L1455.16 450.907L1456.18 450.061V446.04V442.02L1455.2 441.204C1454.64 440.74 1452.35 440.36 1449.89 440.325C1447.52 440.29 1437.77 440.626 1428.22 441.071C1418.68 441.516 1407.83 442.359 1404.12 442.944L1397.37 444.008L1387.41 443.216C1381.93 442.78 1373.97 442.023 1369.73 441.533C1365.49 441.043 1360.52 440.318 1358.68 439.922L1355.35 439.202L1352.54 435.872C1351 434.041 1349.39 431.356 1348.97 429.906L1348.21 427.269L1349.45 420.391L1350.69 413.513L1352.56 411.595C1353.59 410.541 1354.73 409.038 1355.09 408.255C1355.44 407.473 1356.57 404.953 1357.59 402.656C1358.6 400.358 1361.02 396.453 1362.95 393.979C1364.89 391.504 1367.76 388.033 1369.33 386.266C1370.9 384.498 1374.38 380.738 1377.08 377.91C1379.77 375.082 1382.85 371.467 1383.93 369.876C1385 368.285 1387.28 364.959 1389 362.485C1390.72 360.01 1392.82 357.145 1393.67 356.117C1394.51 355.089 1396.36 352.052 1397.76 349.368C1399.16 346.684 1401.49 342.515 1402.94 340.104L1405.56 335.72L1405.64 332.251L1405.72 328.782L1404.44 327.549C1403.73 326.871 1399.97 325.444 1396.08 324.379C1392.2 323.313 1386.99 322.002 1384.51 321.465C1382.04 320.928 1376.83 320.18 1372.95 319.803C1369.06 319.426 1361.97 319.065 1357.2 319C1352.43 318.936 1347.94 319.06 1347.24 319.277C1346.53 319.494 1342.64 319.99 1338.59 320.381C1334.54 320.771 1330.92 321.328 1330.55 321.619C1330.18 321.909 1328.73 322.354 1327.31 322.608C1325.9 322.862 1322.05 323.93 1318.77 324.98C1315.49 326.03 1310.9 327.74 1308.59 328.78C1306.27 329.82 1304.12 330.515 1303.82 330.326C1303.51 330.136 1302.68 331.115 1301.97 332.501C1301.27 333.886 1300.12 336.717 1299.43 338.79C1298.74 340.864 1297.84 344.495 1297.41 346.86C1296.98 349.307 1296.84 352.563 1297.1 354.415C1297.34 356.205 1298.55 360.055 1299.78 362.97C1301.01 365.885 1302.37 368.703 1302.81 369.234C1303.24 369.764 1304.85 372.801 1306.38 375.982C1307.91 379.164 1310.64 383.791 1312.45 386.266C1314.25 388.74 1317.07 392.211 1318.73 393.979C1320.38 395.746 1324.07 400.085 1326.92 403.62C1329.96 407.382 1332.65 411.456 1333.41 413.446C1334.12 415.315 1334.7 417.259 1334.7 417.766C1334.7 418.273 1331.5 421.929 1327.59 425.891C1322.81 430.737 1320.36 433.716 1320.1 434.993C1319.9 436.042 1319.22 437.024 1318.6 437.187C1317.98 437.349 1317.3 438.106 1317.1 438.869C1316.89 439.676 1317.33 441.465 1318.17 443.148L1319.6 446.04L1322.53 447.442C1324.14 448.213 1327.76 449.281 1330.56 449.815C1333.37 450.348 1338.13 451.229 1341.13 451.772C1344.13 452.314 1347.75 452.876 1349.16 453.02C1350.58 453.164 1353.76 453.136 1356.23 452.958C1358.71 452.779 1364.93 452.516 1370.05 452.372V452.372ZM912.427 207.018C911.19 206.216 909.31 205.096 908.249 204.527C907.189 203.959 904.441 202.572 902.143 201.445C899.845 200.319 896.519 198.982 894.752 198.476C892.984 197.969 889.513 196.959 887.039 196.231C884.564 195.503 880.081 194.101 877.077 193.115C874.072 192.13 868.576 190.85 864.865 190.272C861.153 189.693 852.621 188.671 845.904 188.001L833.692 186.781L830.729 187.55C829.099 187.973 827.277 188.724 826.681 189.219C826.084 189.715 825.682 190.714 825.787 191.439C825.893 192.165 826.962 193.42 828.163 194.227L830.347 195.695H834.45C836.707 195.695 839.608 195.255 840.896 194.717L843.239 193.738L842.548 193.047C842.128 192.627 840.505 192.499 838.417 192.72C836.525 192.92 833.965 193.166 832.728 193.265L830.478 193.446V192.49C830.478 191.965 831.346 191.112 832.406 190.594C833.548 190.037 836.237 189.647 838.998 189.639L843.661 189.625L845.353 191.317L847.044 193.009L845.589 195.363C844.789 196.658 843.376 198.007 842.448 198.361C841.521 198.715 839.539 199.234 838.043 199.514C836.548 199.795 833.819 199.75 831.979 199.416C830.14 199.082 827.386 197.949 825.861 196.9L823.087 194.991V192.205V189.418L825.526 187.214C826.895 185.977 829.361 184.619 831.144 184.12L834.323 183.23L850.395 185.023C859.492 186.039 868.84 187.456 871.933 188.288C874.939 189.098 881.736 190.995 887.039 192.504C892.739 194.126 899.307 196.534 903.107 198.393C906.642 200.122 911.537 202.614 913.984 203.931C916.431 205.247 918.54 206.644 918.67 207.034C918.8 207.425 918.244 207.921 917.434 208.138C916.625 208.355 915.673 208.52 915.319 208.504C914.966 208.488 913.664 207.819 912.427 207.018V207.018ZM794.485 194.049C792.718 193.56 788.823 192.987 785.831 192.776C782.839 192.564 779.079 192.107 777.476 191.758C775.872 191.41 772.102 190.735 769.097 190.259C766.093 189.782 759.956 188.648 755.46 187.738C750.964 186.828 744.601 185.776 741.32 185.4C738.038 185.024 734.052 184.393 732.461 183.998C730.871 183.603 727.834 183.076 725.713 182.827C723.592 182.578 717.124 181.736 711.34 180.957C705.556 180.178 700.114 179.271 699.247 178.941C698.38 178.611 696.838 178.342 695.822 178.342C694.805 178.342 693.826 178.104 693.647 177.813C693.467 177.523 689.907 177.226 685.735 177.153C681.564 177.081 674.969 176.743 671.08 176.402C667.192 176.061 662.075 175.779 659.71 175.776C657.344 175.776 655.246 175.507 655.047 175.184C654.843 174.854 650.691 174.721 645.529 174.879C640.493 175.034 632.757 175.108 628.339 175.045C623.92 174.981 614.086 174.922 606.486 174.912C598.885 174.902 591.482 175.088 590.035 175.324L587.402 175.754L586.66 174.125C586.252 173.23 585.918 172.388 585.918 172.255C585.918 172.123 586.858 171.713 588.007 171.345C589.156 170.977 594.145 170.485 599.094 170.253C604.043 170.02 612.286 169.751 617.412 169.654C622.538 169.557 631.649 169.439 637.658 169.391C643.668 169.344 652.345 169.419 656.94 169.559C661.536 169.699 669.779 170.171 675.258 170.608C680.737 171.045 686.3 171.445 687.62 171.498C688.939 171.55 690.145 171.918 690.3 172.316C690.483 172.785 692.96 173.052 697.341 173.076C701.059 173.095 704.707 173.436 705.448 173.832C706.188 174.229 709.46 174.778 712.718 175.053C715.977 175.328 719.221 175.853 719.928 176.22C720.635 176.587 724.279 177.037 728.027 177.219C731.774 177.401 735.415 177.859 736.118 178.235C736.821 178.611 738.817 178.965 740.553 179.022C742.289 179.078 745.589 179.391 747.887 179.716C750.185 180.041 754.089 180.717 756.564 181.217C759.039 181.717 763.811 182.574 767.169 183.122C770.527 183.67 775.444 184.439 778.096 184.831C780.747 185.223 784.796 185.985 787.094 186.524C789.392 187.063 792.494 187.455 793.988 187.393C795.482 187.332 797.821 187.583 799.186 187.95C800.788 188.382 801.917 189.166 802.371 190.164C802.759 191.014 802.924 192.291 802.738 193C802.552 193.71 801.776 194.459 801.014 194.663C800.251 194.868 799.193 195.013 798.663 194.986C798.133 194.959 796.253 194.538 794.485 194.049V194.049ZM257.1 129.562C256.007 128.896 254.11 127.089 252.884 125.548C251.658 124.006 250.166 121.96 249.569 121C248.972 120.041 248.483 118.916 248.483 118.5C248.483 118.085 248.046 117.424 247.511 117.031C246.977 116.639 245.826 114.293 244.954 111.819C244.082 109.344 243.362 106.307 243.355 105.07C243.345 103.832 242.912 100.795 242.388 98.3211C241.849 95.7768 241.43 90.4124 241.424 85.9739C241.414 81.6574 241.733 75.185 242.124 71.591C242.515 67.9969 243.399 62.8518 244.088 60.1572C244.778 57.4628 245.732 53.2336 246.209 50.759C246.686 48.2845 248.275 42.0661 249.741 36.9403C251.209 31.8073 253.729 24.9273 255.351 21.6251C256.97 18.3275 259.614 13.8749 261.226 11.7303C262.839 9.58572 265.46 7.00529 267.051 5.996C268.643 4.98665 270.467 4.16086 271.105 4.16086C271.742 4.16086 272.264 4.57524 272.264 5.08165C272.264 5.58806 271.744 6.16768 271.107 6.36956C270.471 6.57151 268.498 8.18199 266.722 9.94842C264.946 11.7148 262.028 15.7277 260.236 18.8658C258.444 22.0039 256.613 25.6913 256.166 27.0601C255.72 28.4289 254.775 30.8504 254.067 32.4411C253.36 34.0319 252.704 35.9119 252.61 36.6189C252.516 37.3259 251.983 39.4859 251.425 41.4188C250.868 43.3517 250.404 45.9548 250.396 47.2034C250.386 48.452 250.098 50.5582 249.753 51.8838C249.408 53.2095 248.817 55.3787 248.441 56.7043C248.064 58.03 247.155 62.2961 246.42 66.1847L245.085 73.2547L245.016 84.1812C244.976 90.6272 245.299 97.2162 245.805 100.25C246.276 103.078 246.953 106.982 247.31 108.926C247.666 110.871 248.72 113.763 249.652 115.354C250.584 116.945 252.076 119.579 252.967 121.207C253.859 122.836 255.4 125.118 256.391 126.279L258.193 128.39L261.968 128.336C264.407 128.302 266.65 127.82 268.308 126.974C269.719 126.254 272.143 124.808 273.695 123.761C275.247 122.713 277.812 120.466 279.395 118.766C280.978 117.066 283.589 113.795 285.198 111.498C286.807 109.2 289.172 105.412 290.454 103.08C291.736 100.747 293.217 98.4806 293.745 98.0423C294.273 97.604 295.334 95.1737 296.103 92.6416C296.871 90.1096 297.863 86.8809 298.306 85.4669C298.749 84.0529 299.311 81.5944 299.554 80.0037C299.797 78.4129 300.138 76.6052 300.313 75.9866C300.519 75.2586 300.275 74.8618 299.623 74.8618C299.069 74.8618 298.616 74.4136 298.616 73.8657C298.616 73.3179 298.177 72.0213 297.641 70.9844C297.105 69.9474 295.875 68.6903 294.909 68.1908C293.943 67.6913 292.286 67.1803 291.227 67.0552L289.302 66.8276L288.532 69.0772C288.108 70.3145 287.746 72.1412 287.726 73.1365C287.706 74.1319 287.398 75.4903 287.042 76.1552C286.687 76.8201 285.979 79.4765 285.47 82.0582C284.96 84.64 283.925 89.6447 283.168 93.1797C282.412 96.7147 280.822 101.632 279.636 104.106C278.449 106.581 277.293 109.373 277.066 110.312C276.84 111.251 276.117 112.159 275.46 112.331C274.783 112.508 273.797 112.127 273.187 111.452L272.109 110.261L273.7 108.369C274.576 107.329 276.087 104.498 277.06 102.078C278.032 99.6585 279.386 95.5531 280.07 92.9551C280.754 90.3569 281.748 85.8739 282.279 82.9927C282.81 80.1114 283.835 75.3487 284.555 72.4087C285.276 69.4688 285.697 66.6231 285.491 66.0851L285.115 65.1068L281.421 65.3967C279.389 65.5562 275.992 66.1839 273.871 66.7915C271.75 67.3991 269.074 68.0491 267.925 68.2357L265.836 68.5751V67.3478C265.836 66.6729 266.184 65.7735 266.608 65.3493C267.032 64.9251 268.261 64.5764 269.339 64.5745C270.418 64.5745 272.457 64.2408 273.871 63.8374C275.285 63.4339 278.755 63.074 281.583 63.0375L286.725 62.9712L287.489 59.4362C287.908 57.4919 288.742 53.4427 289.34 50.4379C289.939 47.4331 290.669 42.8054 290.963 40.1542C291.257 37.5029 291.791 34.1767 292.149 32.7627C292.507 31.3487 292.808 28.4366 292.816 26.2914C292.826 24.1461 292.386 20.8923 291.842 19.0606C291.298 17.2289 290.471 15.7303 290.005 15.7303C289.538 15.7303 287.539 16.5933 285.562 17.6481C283.585 18.7029 281.819 19.3257 281.638 19.0319C281.456 18.7382 282.093 17.7636 283.052 16.8661C284.012 15.9686 285.752 14.7526 286.918 14.1637C288.085 13.5749 289.577 13.264 290.235 13.4728C290.893 13.6816 292.173 14.8238 293.078 16.0111C293.984 17.1983 294.991 19.4285 295.316 20.9671C295.642 22.5056 295.765 25.2106 295.591 26.9781C295.416 28.7456 295.196 31.2041 295.1 32.4414C295.004 33.6786 294.581 37.1494 294.159 40.1542C293.738 43.1589 292.854 47.9312 292.195 50.7593C291.535 53.5873 290.813 57.998 290.589 60.5609L290.183 65.2208H291.167C291.709 65.2208 293.74 65.9232 295.681 66.7817L299.211 68.3426L299.626 69.9954C299.854 70.9044 300.267 71.6481 300.544 71.6481C300.821 71.6481 301.226 70.9368 301.444 70.0674C301.662 69.198 302.272 64.2088 302.798 58.9803C303.324 53.7517 303.756 46.3479 303.756 42.5273C303.756 38.0259 303.296 33.3531 302.446 29.2519C301.725 25.7709 300.596 21.8107 299.937 20.4514C299.278 19.092 296.903 15.932 294.66 13.4292C292.417 10.9263 288.899 7.81708 286.841 6.51979C284.784 5.22249 282.782 4.16107 282.392 4.16107C282.002 4.16107 280.584 3.65493 279.241 3.0363C277.898 2.41767 276.892 1.62227 277.005 1.26877C277.119 0.915271 278.195 0.711015 279.398 0.814945C280.6 0.918805 282.451 1.33665 283.512 1.7435C284.572 2.15035 286.308 3.07762 287.368 3.80416C288.429 4.53071 289.393 5.34211 289.51 5.60723C289.628 5.87236 290.138 6.08927 290.643 6.08927C291.148 6.08927 293.776 8.40286 296.484 11.2306C299.191 14.0583 302.048 17.4567 302.833 18.7827C303.618 20.1086 304.601 22.8566 305.018 24.8892C305.436 26.9219 306.008 28.585 306.29 28.585C306.572 28.585 306.873 31.1157 306.958 34.2089C307.043 37.302 307.122 42.002 307.134 44.6533C307.146 47.3046 306.964 52.3661 306.729 55.9011C306.495 59.4362 306.001 65.1904 305.631 68.6884C305.261 72.1863 304.545 76.0909 304.041 77.3653C303.537 78.6396 303.021 80.8684 302.895 82.318C302.77 83.7676 302.492 85.2372 302.277 85.5835C302.063 85.93 301.463 87.4915 300.944 89.0538C300.424 90.616 299.668 93.1577 299.262 94.702C298.857 96.2463 297.372 98.9687 295.963 100.752C294.553 102.535 293.247 104.742 293.061 105.657C292.874 106.571 290.215 110.627 287.152 114.67L281.583 122.02L276.763 125.444C274.112 127.327 271.012 129.298 269.874 129.824C268.685 130.374 265.954 130.779 263.447 130.777H259.088L257.1 129.565L257.1 129.562Z" fill="white"/>
</g>
<defs>
<clipPath id="clip0_18_892">
<rect width="1484" height="871" fill="white"/>
</clipPath>
</defs>
</svg>
