<svg width="1281" height="736" viewBox="0 0 1281 736" fill="none" xmlns="http://www.w3.org/2000/svg">
<g clip-path="url(#clip0_18_895)">
<path d="M1250.37 735.267C1245.69 734.694 1237.43 734.129 1222.13 733.335C1218.89 733.167 1214.83 732.882 1213.11 732.703C1211.38 732.522 1202.03 731.969 1192.32 731.472C1182.61 730.976 1174.14 730.347 1173.49 730.076C1172.84 729.804 1154.66 729.464 1133.09 729.319C1096.95 729.076 1089.38 728.74 1078.07 726.876C1075.86 726.511 1073.41 726.434 1072.64 726.706C1071.87 726.977 1069.44 726.903 1067.25 726.542C1062.63 725.78 1031.73 724.899 1004.03 724.741C981.334 724.611 939.922 723.111 927.153 721.956C922.191 721.508 913.365 720.811 907.54 720.408C901.715 720.005 892.36 719.263 886.751 718.758C881.142 718.254 875.846 717.868 874.983 717.901C874.12 717.934 858.234 718.114 839.68 718.3C821.127 718.487 801.342 718.911 795.714 719.244C788.596 719.664 783.82 719.555 780.024 718.884C777.022 718.354 770.33 717.818 765.152 717.692C754.889 717.443 745.796 715.266 744.463 712.739C742.901 709.775 744.624 663.524 746.747 651.454C747.222 648.751 747.219 646.885 746.737 646.305C745.65 644.995 746.719 639.56 748.174 639.002C748.851 638.742 751.441 637.177 753.93 635.524C756.419 633.871 762.433 630.52 767.295 628.079C772.157 625.637 779.247 621.754 783.052 619.45C786.857 617.145 792.069 614.2 794.635 612.905C797.201 611.61 801.164 609.358 803.441 607.901L807.583 605.252L825.592 605.107C835.498 605.028 855.605 604.783 870.275 604.562C931.493 603.643 945.765 603.944 948.269 606.211C949.655 607.465 949.881 607.247 953.252 601.405C955.195 598.04 958.678 592.447 960.992 588.977C964.96 583.029 966.774 579.683 972.674 567.436C974.025 564.632 975.667 561.741 976.322 561.013C976.978 560.285 977.298 559.339 977.033 558.91C976.768 558.481 976.919 557.903 977.369 557.625C977.818 557.347 980.779 551.939 983.947 545.607C987.115 539.275 990.455 532.682 991.37 530.957C992.285 529.231 994.095 525.524 995.392 522.719C996.689 519.915 999.981 513.288 1002.71 507.993C1005.43 502.699 1007.57 498.271 1007.45 498.154C1007.16 497.865 997.757 498.911 991.482 499.929C988.677 500.385 984.333 501.081 981.828 501.478C979.323 501.874 976.491 502.711 975.535 503.338C974.579 503.964 972.215 504.724 970.283 505.025C968.351 505.326 964.475 506.23 961.67 507.034C958.866 507.838 954.453 509.01 951.864 509.638C949.275 510.266 945.039 511.31 942.45 511.958C939.861 512.605 935.095 513.567 931.859 514.096C918.208 516.324 899.514 520.365 895.146 522.031C894.155 522.41 892.372 522.719 891.183 522.719C889.994 522.719 883.744 523.623 877.295 524.728C870.845 525.833 863.45 527.045 860.861 527.423C858.272 527.801 853.506 528.634 850.27 529.276C847.034 529.917 838.738 530.852 831.834 531.353C824.931 531.855 816.811 532.813 813.791 533.483C810.755 534.156 804.125 534.746 798.964 534.801L789.628 534.901L788.511 532.227C787.608 530.066 787.587 529.432 788.401 528.929C789.192 528.44 789.121 527.989 788.067 526.824C786.04 524.585 786.017 524.655 792.305 514.09C794.836 509.836 807.122 482.528 807.122 481.155C807.122 480.642 808.534 476.843 810.26 472.713C811.986 468.582 813.398 464.87 813.398 464.464C813.398 464.058 813.905 462.614 814.523 461.254C815.142 459.894 817.136 454.192 818.953 448.583C820.771 442.974 823.44 435.141 824.883 431.177C827.662 423.547 827.964 422.758 830.639 416.146C831.572 413.839 832.223 411.838 832.085 411.7C831.875 411.491 821.833 417.829 819.282 419.781C817.807 420.91 812.223 422.253 803.984 423.462C799.454 424.127 793.452 425.023 790.648 425.454C774.814 427.886 729.704 429.386 686.7 428.909C661.586 428.631 627.598 428.606 579.223 428.832C570.593 428.872 558.855 428.601 553.138 428.228L542.743 427.552L542.805 430.222C542.84 431.744 543.843 434.413 545.136 436.424C546.384 438.365 549.026 443.205 551.008 447.178C552.989 451.151 557.853 458.747 561.817 464.058C565.781 469.37 570.313 475.651 571.888 478.016C573.463 480.382 575.67 483.173 576.791 484.219C577.913 485.265 578.831 486.546 578.831 487.065C578.831 487.584 579.36 488.448 580.007 488.986C580.655 489.523 581.184 490.496 581.184 491.149C581.184 492.364 590.461 505.287 592.618 507.078C593.276 507.624 594.476 509.513 595.285 511.276C596.094 513.039 598.195 516.528 599.953 519.028C601.712 521.528 603.15 523.769 603.15 524.009C603.15 524.248 604.121 525.403 605.308 526.575C609.228 530.448 614.121 536.706 614.964 538.924C615.697 540.851 615.559 541.279 613.793 542.566C612.125 543.781 611.932 544.287 612.633 545.599C613.589 547.384 613.524 547.513 611.252 548.375C608.273 549.506 592.555 565.385 588.503 571.359C586.132 574.853 579.051 582.223 572.858 587.642C563.423 595.898 553.854 605.914 541.571 620.391C529.96 634.077 516.843 653.161 516.604 656.716C516.474 658.657 516.721 658.847 519.6 659.02C525.397 659.368 534.433 660.889 544.705 663.245C559.701 666.685 560.815 666.915 565.493 667.535C567.91 667.856 571.414 669.072 573.55 670.332C575.629 671.557 577.652 672.561 578.045 672.561C579.007 672.561 579.899 677.598 579.335 679.846C579.039 681.024 577.716 682.145 575.522 683.077C573.674 683.862 570.221 685.383 567.848 686.457C560.539 689.764 555.2 691.389 551.642 691.389C548.591 691.389 548.235 691.197 548.235 689.549C548.235 688.537 547.617 687.165 546.862 686.5C544.886 684.761 538.339 681.629 533.329 680.028C530.956 679.269 526.298 676.926 522.978 674.82C519.658 672.714 516.436 670.992 515.817 670.992C515.199 670.992 514.251 670.459 513.711 669.808C513.17 669.157 511.341 667.844 509.645 666.891C507.216 665.526 506.659 664.82 507.02 663.564C507.272 662.687 507.894 660.205 508.402 658.047C509.953 651.465 525.212 629.478 540.85 611.293C548.738 602.122 564.524 586.107 573.282 578.393C576.918 575.189 583.742 568.149 588.445 562.746C596.331 553.687 601.765 548.412 607.535 544.216L609.798 542.57L607.273 539.695C605.885 538.113 604.22 535.797 603.574 534.547C602.928 533.298 602.113 532.155 601.763 532.008C601.413 531.862 600.434 530.621 599.589 529.251C598.743 527.882 596.198 524.057 593.932 520.752C591.667 517.447 589.814 514.577 589.814 514.375C589.814 514.172 587.94 511.466 585.65 508.36C583.359 505.255 580.8 501.479 579.962 499.969C579.124 498.459 578.25 497.046 578.019 496.831C577.788 496.615 576.241 494.32 574.582 491.731C572.922 489.143 571.077 486.318 570.482 485.455C569.887 484.592 568.497 482.531 567.393 480.874C566.289 479.218 563.253 475.688 560.645 473.029C558.038 470.371 555.191 466.608 554.319 464.666C552.647 460.944 548.06 455.375 537.551 444.308C534.049 440.619 530.438 436.365 529.528 434.855C528.619 433.344 525.057 428.755 521.614 424.656C518.171 420.557 513.819 415.261 511.944 412.888C510.045 410.487 507.776 408.463 506.826 408.325C505.887 408.188 503.351 406.093 501.19 403.669C497.575 399.612 497.36 399.153 498.487 397.907C499.615 396.66 499.425 396.289 496.072 393.198C490.888 388.419 489.03 385.641 490.131 384.314C490.731 383.591 490.771 382.662 490.255 381.4C488.559 377.251 487.79 361.651 488.171 339.145C488.386 326.416 488.9 314.236 489.314 312.079C489.727 309.922 490.137 305.862 490.224 303.057C490.311 300.253 491.008 292.309 491.774 285.406C492.539 278.502 493.565 268.97 494.054 264.224C494.542 259.478 495.458 252.417 496.089 248.534C496.72 244.651 497.549 239.532 497.93 237.159C498.312 234.785 499.521 229.845 500.617 226.179C501.713 222.513 502.512 219.416 502.392 219.296C501.583 218.488 498.876 221.052 493.201 228.001C489.617 232.39 483.676 238.998 479.999 242.683C476.322 246.369 470.706 252.547 467.517 256.412C464.328 260.277 458.15 266.983 453.788 271.313C436.259 288.715 418.007 307.828 418.007 308.781C418.007 309.336 416.418 311.35 414.476 313.256C412.535 315.161 410.946 317.177 410.946 317.734C410.946 318.291 408.828 320.866 406.239 323.454C403.65 326.043 401.532 328.43 401.532 328.757C401.532 329.085 400.815 329.801 399.94 330.348C399.064 330.894 397.118 333.264 395.615 335.613C394.112 337.962 392.1 340.304 391.142 340.816C390.185 341.328 388.762 342.56 387.981 343.554C387.2 344.547 381.544 349.737 375.414 355.088C369.284 360.438 362.503 366.86 360.345 369.358C358.188 371.856 352.485 377.995 347.673 383C342.861 388.004 337.418 394.017 335.578 396.36C333.738 398.704 326.202 406.798 318.831 414.345C303.05 430.506 304.856 428.752 294.917 437.569C290.559 441.436 286.994 444.861 286.994 445.182C286.994 445.502 284.434 447.945 281.306 450.611C278.178 453.276 273.147 457.794 270.127 460.65C267.106 463.506 263.296 466.725 261.658 467.804C259.384 469.303 258.756 470.18 258.999 471.525C259.396 473.729 258.565 474.407 253.652 475.884C251.495 476.533 241.433 481.2 231.294 486.256C221.154 491.311 209.927 496.892 206.345 498.658C202.762 500.423 199.454 502.323 198.992 502.88C198.53 503.436 197.86 503.891 197.503 503.891C197.146 503.891 195.336 504.906 193.48 506.146C191.625 507.385 187.812 509.543 185.008 510.939C182.203 512.336 178.496 514.303 176.77 515.311C172.461 517.826 157.869 525.067 157.044 525.1C156.675 525.114 154.961 525.808 153.235 526.642C151.509 527.476 149.783 528.17 149.399 528.184C149.016 528.199 147.074 529.2 145.084 530.408C143.095 531.617 139.672 533.367 137.477 534.297C135.283 535.228 131.629 537.24 129.357 538.768C127.086 540.297 124.89 541.548 124.477 541.548C123.48 541.548 113.848 548.221 110.872 550.974C108.523 553.146 101.359 558.085 97.1324 560.445C94.2242 562.069 91.5595 565.405 84.0271 576.851C82.1813 579.655 80.6705 582.238 80.6696 582.591C80.6688 582.943 79.8215 584.355 78.7868 585.729C77.7521 587.102 75.5262 590.874 73.8404 594.11C72.1546 597.346 69.3242 602.288 67.5507 605.093C61.5563 614.572 61.1926 615.192 60.6819 616.801C60.1843 618.369 59.4943 619.198 52.6307 626.471C48.4593 630.892 43.7649 637.67 43.0326 640.33C42.6392 641.759 42.0332 642.28 40.978 642.095C38.7046 641.698 38.0375 640.705 37.972 637.624L37.9123 634.812L20.6229 635.36C4.90502 635.859 3.21144 635.786 1.99084 634.566C0.2707 632.846 0.301827 632.323 2.2283 630.579C3.16472 629.732 3.63132 628.591 3.37374 627.78C3.0471 626.751 5.82261 623.937 14.5419 616.457C20.9234 610.983 29.322 604.096 33.2053 601.151C41.1627 595.118 51.3462 586.234 71.6266 567.633C79.9578 559.991 86.1575 554.884 87.1032 554.884C88.2415 554.884 88.5438 555.242 88.1886 556.168C87.7328 557.355 87.8286 557.355 89.4775 556.168C90.4573 555.463 93.024 553.953 95.1814 552.813C99.2843 550.646 109.464 543.795 114.738 539.653C116.433 538.322 119.081 536.452 120.622 535.498C124.421 533.145 150.525 520.191 156.373 517.755C158.962 516.677 165.14 513.87 170.102 511.516C175.064 509.162 179.49 507.102 179.937 506.937C180.692 506.658 200.431 495.321 203.051 493.661C203.699 493.251 214.011 488.151 225.969 482.329C242.464 474.297 248.135 471.167 249.473 469.357C250.444 468.044 253.016 465.834 255.19 464.445C267.83 456.369 315.713 410.745 343.086 380.697C354.571 368.089 368.452 353.898 383.488 339.393C392.088 331.096 404.361 317.548 412.496 307.372C419.526 298.578 445.38 271.297 455.735 261.748C458.147 259.523 462.374 255.11 465.128 251.941C467.881 248.773 475.453 240.708 481.954 234.02C488.455 227.333 495.695 219.621 498.043 216.883C500.392 214.146 503.29 211.401 504.485 210.783C505.679 210.166 506.656 209.14 506.656 208.504C506.656 206.558 508.865 207.215 510.708 209.708C512.199 211.724 517.157 214.566 525.876 218.403C528.43 219.526 550.584 224.422 555.688 224.99C558.277 225.279 563.219 226.172 566.671 226.976C588.826 232.133 597.672 233.384 614.186 233.694C625.703 233.911 632.102 233.684 636.545 232.903C639.968 232.302 643.666 231.981 644.762 232.191C646.462 232.516 647.331 231.839 650.646 227.609C652.786 224.879 657.021 219.645 660.059 215.977C678.078 194.221 681.794 189.816 687.48 183.468C690.935 179.612 696.271 173.61 699.339 170.132C702.407 166.653 709.595 158.865 715.312 152.824C721.03 146.783 727.152 139.899 728.917 137.526C740.075 122.529 761.431 100.669 777.311 87.9888C798.677 70.9296 805.417 66.4743 813.96 63.7647C815.593 63.2467 817.794 62.2784 818.85 61.6132C820.204 60.7607 820.86 60.6707 821.073 61.3083C821.239 61.806 821.875 62.2132 822.486 62.2132C824.083 62.2132 823.859 65.3166 822.224 65.8393C821.469 66.0806 819.969 66.6463 818.89 67.0964C817.812 67.5464 816.223 68.1745 815.36 68.492C810.987 70.1013 805.631 73.4674 797.266 79.8646C792.188 83.7479 787.121 87.6153 786.007 88.4586C784.892 89.3019 781.508 91.9663 778.488 94.3793C775.468 96.7924 771.971 99.2795 770.717 99.9064C769.463 100.533 764.967 104.93 760.725 109.676C752.521 118.854 751.885 119.528 746.351 124.892C744.394 126.788 742.793 128.917 742.793 129.623C742.793 131.076 734.97 139.924 724.187 150.664C720.181 154.654 716.897 158.185 716.889 158.509C716.879 158.834 713.88 162.267 710.221 166.139C706.561 170.01 703.568 173.445 703.568 173.773C703.568 174.101 700.479 177.476 696.703 181.272C692.928 185.068 688.361 189.928 686.554 192.073C681.448 198.135 680.1 199.689 677.386 202.64C675.997 204.15 673.994 206.611 672.936 208.109C671.877 209.607 669.658 212.312 668.006 214.12C666.353 215.928 663.94 218.851 662.642 220.615C661.345 222.379 659.972 223.822 659.591 223.822C659.21 223.822 657.649 225.675 656.122 227.941C654.595 230.206 651.142 234.782 648.449 238.11C637.841 251.218 631.97 259.038 629.682 263.107C626.427 268.894 623.028 272.384 621.128 271.887C619.331 271.417 619.164 270.236 620.806 269.606C621.455 269.356 623.918 265.749 626.279 261.589C628.64 257.429 633.216 250.502 636.45 246.196C639.683 241.889 642.032 238.07 641.671 237.709C641.31 237.348 636.168 237.44 630.244 237.912C615.344 239.102 597.263 237.545 580.008 233.586C577.419 232.992 573.359 232.172 570.986 231.764C545.299 227.349 525.714 222.415 517.015 218.168C509.584 214.541 509.39 214.606 507.497 221.353C506.935 223.358 505.968 226.564 505.349 228.477C504.73 230.39 503.889 234.273 503.48 237.106C503.072 239.94 502.377 244.023 501.936 246.18C500.69 252.277 499.607 261 498.819 271.285C498.422 276.462 497.721 283.346 497.261 286.583C496.8 289.819 496.241 296.804 496.018 302.106C495.795 307.407 495.319 312.526 494.96 313.481C494.309 315.217 493.77 335.423 493.785 357.581C493.793 365.663 494.239 371.682 495.217 376.801C497.26 387.487 496.826 386.803 507.282 395.801C518.81 405.723 526.67 411.583 536.86 417.853C546.556 423.82 552.564 424.882 576.869 424.927C632.373 425.028 743.712 424.302 752.207 423.782C777.914 422.21 789.408 420.942 808.805 417.541C813.524 416.714 817.881 414.553 825.778 409.124C830.264 406.04 830.981 405.134 834.16 398.533C837.481 391.637 839.18 385.658 841.006 374.447C842.143 367.465 842.175 367.387 843.914 367.387C845.105 367.387 845.761 366.368 846.821 362.876C847.575 360.395 848.122 358.078 848.037 357.726C847.952 357.375 848.29 355.61 848.788 353.804C849.285 351.998 849.964 348.402 850.296 345.813C851.316 337.861 852.673 330.22 853.432 328.161C855.031 323.82 860.036 279.401 861.254 258.732C861.636 252.26 862.34 240.61 862.818 232.844C863.697 218.572 863.2 191.787 861.979 187.526C861.626 186.299 859.787 182.931 857.89 180.042C855.993 177.154 853.553 173.201 852.467 171.26C851.381 169.318 849.689 166.317 848.707 164.592C845.172 158.38 829.089 126.503 829.089 125.71C829.089 125.002 819.911 106.123 817.48 101.831C816.676 100.41 815.545 97.8683 812.069 89.671C811.429 88.1608 810.376 85.9361 809.73 84.7272C808.345 82.137 808.837 80.2569 810.899 80.2569C812.707 80.2569 814.272 82.0284 816.097 86.1407C819.434 93.6602 821.821 98.6671 827.69 110.46C831.125 117.364 834.823 125.131 835.908 127.72C836.993 130.308 838.551 133.908 839.369 135.718C840.187 137.528 840.857 139.414 840.857 139.909C840.857 140.404 841.563 141.706 842.425 142.803C843.288 143.901 843.995 145.225 843.995 145.748C843.995 146.27 844.637 147.278 845.422 147.989C846.208 148.7 848.87 153.256 851.338 158.113C853.807 162.971 856.547 167.828 857.427 168.906L859.028 170.868L858.557 167.73C858.298 166.004 857.737 161.767 857.309 158.315C855.982 147.594 853.699 138.406 848.925 124.582C847.436 120.267 845.912 115.279 845.539 113.497C845.167 111.715 844.117 108.185 843.206 105.652C842.295 103.119 840.675 98.4331 839.606 95.239C836.187 85.0279 830.952 77.2029 825.496 74.1495C823.652 73.1178 824.869 71.4349 826.998 72.0719C829.056 72.6878 835.365 78.6373 835.365 79.9626C835.365 80.484 835.796 81.0543 836.323 81.23C838.365 81.9107 845.304 96.1248 848.294 105.753C852.21 118.364 856.756 131.62 857.485 132.556C857.877 133.059 858.51 135.883 858.893 138.832C859.847 146.177 863.26 158.793 864.501 159.56C867.732 161.557 882.261 161.37 887.143 159.269C889.506 158.252 895.85 156.551 902.833 155.063C908.066 153.948 916.213 151.096 920.092 149.02C930.465 143.469 930.461 143.47 931.61 145.041C932.179 145.819 932.644 146.706 932.644 147.013C932.644 147.676 927.101 151.198 925.975 151.249C925.543 151.269 923.703 152.06 921.886 153.007C918.968 154.528 905.105 158.5 900.872 159.027C900.009 159.135 898.773 159.412 898.126 159.643C890.497 162.364 879.381 163.916 871.761 163.323C867.924 163.025 864.488 162.964 864.125 163.188C863.32 163.685 863.996 167.661 866.012 174.284C866.847 177.027 867.553 180.733 867.582 182.522C867.616 184.61 868.448 187.177 869.908 189.696C871.158 191.853 873.26 195.737 874.579 198.325C877.855 204.76 885.278 218.901 887.138 222.253C887.977 223.763 889.69 227.293 890.947 230.098C896.409 242.292 901.174 251.184 903.862 254.198L905.415 255.939L903.143 256.819C901.375 257.504 900.437 257.459 898.91 256.62C896.532 255.312 894.791 252.167 883.36 228.529C881.169 223.998 878.847 219.409 878.2 218.33C877.553 217.252 875.518 213.104 873.679 209.112C869.788 200.673 867.782 199.426 868.628 205.974C869.996 216.56 869.951 225.397 868.428 245.396C867.541 257.046 866.597 270.637 866.332 275.599C866.066 280.561 865.364 287.622 864.772 291.29C863.748 297.631 862.774 306.493 862.444 312.471C862.361 313.981 862.016 316.072 861.678 317.116C861.34 318.161 860.965 320.456 860.846 322.216C860.464 327.839 858.067 340.845 856.714 344.636C856.483 345.283 856.229 347.755 856.149 350.128C856.017 354.088 853.79 363.17 849.514 377.193C848.593 380.214 847.545 383.744 847.186 385.038C846.413 387.825 845.387 390.457 843.228 395.196C842.355 397.113 841.641 399.209 841.641 399.855C841.641 400.5 841.315 401.23 840.917 401.476C840.519 401.722 839.965 403.067 839.686 404.464C838.726 409.272 834.375 421.912 833.225 423.234C832.592 423.962 832.319 424.955 832.619 425.44C832.92 425.926 832.644 426.919 832.007 427.647C831.37 428.375 830.665 430.03 830.439 431.324C830.214 432.619 829.323 435.619 828.46 437.993C827.596 440.366 826.457 443.896 825.928 445.838C825.399 447.779 824.129 451.67 823.105 454.484C822.081 457.298 821.244 460.5 821.244 461.601C821.244 463.437 819.686 469.082 818.124 472.903C816.166 477.697 814.314 482.731 813.364 485.848C812.771 487.789 811.656 490.437 810.884 491.731C810.113 493.026 809.481 494.537 809.479 495.09C809.479 495.642 808.064 498.586 806.338 501.632C804.612 504.678 803.2 507.801 803.2 508.573C803.2 509.344 802.693 510.396 802.074 510.91C801.454 511.424 800.701 512.968 800.399 514.34C800.098 515.713 799.016 518.065 797.996 519.567C796.975 521.07 796.137 522.659 796.135 523.098C796.135 523.537 795.623 524.867 795.004 526.054L793.879 528.211H799.676C802.865 528.211 809.11 527.532 813.555 526.703C818 525.873 824.46 524.972 827.912 524.7C834.503 524.181 846.11 522.583 857.331 520.651C860.999 520.02 866.118 519.189 868.707 518.804C879.741 517.167 889.317 515.589 892.242 514.926C893.968 514.535 898.557 513.512 902.44 512.652C906.324 511.792 911.972 510.535 914.993 509.86C918.013 509.184 924.897 507.908 930.29 507.024C935.684 506.141 942.921 504.529 946.373 503.443C949.825 502.356 953.733 501.13 955.058 500.718C956.383 500.306 958.123 499.969 958.925 499.969C959.727 499.969 961.467 499.613 962.792 499.178C964.991 498.456 970.458 497.069 983.245 493.992C985.834 493.369 990.618 492.38 993.877 491.795C997.136 491.21 1002.55 490.118 1005.92 489.37L1012.04 488.009L1015.95 479.672C1021.53 467.772 1028.35 453.035 1029.96 449.368C1036.75 433.941 1065.63 376.049 1073.61 361.895C1074.46 360.385 1075.65 357.473 1076.25 355.423C1076.85 353.374 1077.57 351.697 1077.86 351.697C1078.15 351.697 1078.63 350.738 1078.93 349.567C1079.61 346.844 1081.31 343.065 1088.4 328.554C1091.56 322.082 1095.24 314.138 1096.59 310.902C1097.94 307.666 1099.86 303.253 1100.85 301.096C1101.84 298.939 1103.31 295.32 1104.1 293.055C1104.9 290.789 1105.83 288.936 1106.18 288.936C1106.52 288.936 1106.8 288.286 1106.8 287.492C1106.8 286.698 1107.82 283.962 1109.05 281.412C1112.22 274.869 1114.5 269.766 1116.33 265.109C1117.21 262.898 1118.21 260.736 1118.57 260.303C1119.1 259.655 1123.8 249.205 1126.32 243.042C1126.68 242.179 1127.98 239.355 1129.22 236.766C1130.47 234.177 1131.62 231.766 1131.78 231.408C1132.21 230.471 1121.06 231.199 1111.9 232.706C1107.59 233.416 1101.59 234.172 1098.57 234.386C1095.55 234.601 1091.31 235.094 1089.15 235.482C1087 235.87 1082.41 236.61 1078.95 237.127C1075.5 237.644 1070.03 238.744 1066.8 239.572C1063.56 240.399 1058.09 241.226 1054.64 241.409C1048.04 241.758 1043.8 242.17 1033.45 243.47C1030 243.903 1022.59 244.791 1016.98 245.444C1003.4 247.022 998.055 247.865 996.834 248.62C995.467 249.465 985.369 251.094 973.438 252.395C963.572 253.47 956.656 254.737 944.485 257.698C940.858 258.58 933.092 260.123 927.226 261.126C921.361 262.129 913.269 263.744 909.246 264.714C901.337 266.621 901.087 266.559 899.986 262.422C899.344 260.012 899.755 259.737 904.581 259.353C906.855 259.172 909.952 258.539 911.462 257.947C912.972 257.355 918.444 256.301 923.622 255.605C932.755 254.377 936.835 253.546 955.003 249.214C959.749 248.083 967.692 246.87 972.654 246.519C982.705 245.809 988.832 244.808 993.749 243.073C995.561 242.433 998.882 241.697 1001.13 241.436C1003.37 241.175 1009.8 240.315 1015.41 239.526C1021.02 238.737 1029.14 237.696 1033.45 237.213C1037.77 236.729 1043.59 235.996 1046.4 235.583C1057.81 233.901 1061.75 233.381 1062.87 233.409C1064.01 233.438 1066.77 232.971 1080.92 230.357C1084.58 229.679 1090.94 228.816 1095.04 228.438C1099.14 228.06 1104.26 227.38 1106.41 226.926C1113.47 225.442 1119.63 224.609 1126.81 224.17C1130.69 223.932 1134.25 223.616 1134.71 223.468C1135.96 223.064 1143.72 207.107 1149.99 192.049C1153.05 184.714 1158.38 172.535 1161.83 164.984C1165.29 157.433 1168.83 149.49 1169.71 147.332C1170.59 145.175 1171.62 142.88 1171.99 142.233C1172.37 141.586 1173.42 139.468 1174.33 137.526C1175.24 135.584 1176.97 131.878 1178.18 129.289C1179.4 126.7 1180.6 123.319 1180.87 121.777C1181.35 118.986 1181.32 118.952 1175.01 114.842C1168.92 110.872 1166.18 107.815 1161.72 99.9936C1161.07 98.8585 1159.4 96.0648 1157.99 93.7852C1156.59 91.5057 1155.44 89.3607 1155.44 89.0186C1155.44 88.6766 1154.77 87.0065 1153.95 85.3074C1149.43 75.9339 1148.37 61.5337 1151.17 47.6199C1152.14 42.8297 1153.54 37.7107 1154.29 36.2445C1155.74 33.4019 1161.96 26.0077 1168.39 19.4731C1171.79 16.0158 1181.32 8.86665 1182.52 8.86665C1182.75 8.86665 1184.27 8.02174 1185.91 6.98901C1189.17 4.92975 1202.09 1.40754 1209.31 0.608365C1215.83 -0.112755 1233.97 2.13198 1237.87 4.14157C1239.57 5.01441 1242.28 6.39938 1243.9 7.21927C1245.52 8.03908 1248.17 9.4512 1249.81 10.3573C1251.44 11.2633 1253.2 12.0047 1253.73 12.0047C1255.16 12.0047 1263.05 19.7195 1265.92 23.9335C1267.31 25.9638 1269.09 28.082 1269.88 28.6406C1270.68 29.1992 1272.11 32.1273 1273.08 35.1477C1274.04 38.168 1275.34 42.0514 1275.97 43.7773C1277.94 49.204 1280.18 62.099 1280.17 67.9586C1280.15 72.1705 1279.56 75.2587 1277.81 80.2192C1276.53 83.866 1275.47 87.7509 1275.47 88.8523C1275.47 90.2138 1274.21 92.1093 1271.53 94.7738C1269.36 96.9293 1267.1 99.5754 1266.5 100.654C1264.08 105.037 1244.66 117.843 1240.37 117.893C1239.4 117.904 1238.6 118.253 1238.6 118.668C1238.6 119.082 1237.1 119.807 1235.27 120.278C1233.43 120.748 1229 122.174 1225.42 123.446C1221.84 124.718 1217.56 125.758 1215.91 125.758C1210.32 125.758 1208.24 126.551 1206.95 129.175C1206.28 130.532 1204.63 133.937 1203.28 136.741C1201.93 139.546 1200.56 142.37 1200.24 143.018C1199.91 143.665 1199.04 145.395 1198.3 146.863C1197.56 148.33 1196.26 151.684 1195.39 154.316C1194.53 156.947 1193.1 160.689 1192.21 162.63C1190.41 166.565 1189.28 169.19 1187.15 174.398C1186.35 176.34 1184.09 180.929 1182.12 184.597C1180.15 188.264 1177.7 193.383 1176.67 195.972C1175.65 198.561 1174.51 201.014 1174.15 201.424C1173.79 201.834 1173.49 202.762 1173.49 203.486C1173.49 204.209 1172.96 205.241 1172.31 205.778C1171.66 206.315 1171.13 207.57 1171.13 208.567C1171.13 209.563 1170.11 212.432 1168.86 214.943C1167.61 217.453 1165.98 221.096 1165.25 223.037C1164.51 224.979 1162.71 229.111 1161.25 232.219C1159.78 235.327 1158.58 238.151 1158.58 238.495C1158.58 238.839 1158.08 240.057 1157.49 241.201C1156.89 242.346 1155.98 244.641 1155.47 246.301C1154.96 247.96 1154.08 250.378 1153.51 251.672C1150.73 258.008 1149.1 261.578 1146.51 267.052C1144.95 270.333 1143.68 273.42 1143.68 273.911C1143.68 275.365 1134.82 295.535 1133.81 296.389C1133.29 296.82 1131.94 299.645 1130.8 302.665C1129.65 305.685 1128.38 308.686 1127.96 309.333C1127.54 309.981 1126.98 311.04 1126.71 311.687C1126.28 312.745 1124.19 317.045 1122.11 321.14C1121.69 321.982 1121.07 322.67 1120.74 322.67C1120.41 322.67 1120.14 323.233 1120.14 323.922C1120.14 324.61 1119.51 326.111 1118.74 327.256C1117.97 328.401 1116.97 330.221 1116.52 331.299C1115.59 333.52 1109.42 345.978 1108.36 347.774C1107.14 349.839 1099.74 365.807 1099.74 366.383C1099.74 366.687 1098.38 369.773 1096.7 373.241C1095.03 376.709 1093.23 380.782 1092.69 382.293C1091.11 386.753 1089.41 390.448 1088.37 391.707C1087.84 392.354 1087.15 393.942 1086.84 395.237C1086.54 396.531 1085.83 398.65 1085.26 399.944C1084.7 401.238 1083.8 403.533 1083.27 405.043C1082.18 408.146 1080.48 412.19 1078.87 415.559C1078.27 416.811 1077.78 418.15 1077.78 418.533C1077.78 418.916 1076.74 421.447 1075.47 424.157C1074.21 426.867 1072.93 430.032 1072.64 431.192C1072.35 432.352 1071.8 433.494 1071.42 433.732C1071.03 433.969 1070.72 434.732 1070.72 435.427C1070.72 436.123 1069.71 438.838 1068.47 441.461C1064.92 448.978 1062.87 453.626 1062.87 454.136C1062.87 454.394 1061.87 456.781 1060.64 459.44C1059.42 462.098 1058.17 465.283 1057.86 466.518C1057.31 468.742 1056.69 470.232 1051.98 480.64C1050.63 483.601 1049.54 486.69 1049.54 487.505C1049.54 488.319 1049.18 488.986 1048.75 488.986C1048.32 488.986 1047.97 489.847 1047.97 490.901C1047.97 491.954 1047.6 493.043 1047.15 493.32C1046.7 493.598 1045.27 496.178 1043.96 499.054C1042.66 501.93 1041.2 504.99 1040.71 505.853C1040.22 506.716 1039.14 508.834 1038.3 510.56C1037.46 512.286 1035.76 515.173 1034.52 516.977C1033.29 518.781 1032.28 520.493 1032.28 520.782C1032.28 521.69 1021.15 541.824 1019.28 544.294C1018.31 545.588 1016.55 549.118 1015.39 552.139C1012.91 558.596 1011.79 560.969 1008.76 566.26C1007.53 568.417 1004.69 573.713 1002.47 578.027C997.199 588.221 995.822 590.701 994.633 592.133C994.095 592.781 992.421 595.875 990.913 599.006C989.405 602.138 987.626 605.318 986.959 606.074C985.819 607.365 986.067 607.447 991.164 607.457C994.144 607.465 999.935 608.171 1004.03 609.031C1008.13 609.891 1016.78 610.947 1023.25 611.377C1029.73 611.807 1038.02 612.519 1041.69 612.959C1045.36 613.398 1053.65 614.094 1060.13 614.505C1066.6 614.916 1076.13 615.78 1081.31 616.424C1086.49 617.069 1094.78 617.607 1099.74 617.621C1104.71 617.636 1111.31 618.177 1114.42 618.825C1126.11 621.264 1137.18 622.039 1187.22 623.922C1200.59 624.426 1212.07 625.109 1212.71 625.44C1213.36 625.772 1214 626.889 1214.13 627.924C1214.46 630.465 1216.54 634.904 1217.41 634.904C1217.8 634.904 1222.1 638.704 1226.98 643.348C1241.31 656.984 1250.56 664.129 1255.15 665.106C1257.9 665.692 1260.57 667.529 1260.57 668.842C1260.57 669.253 1261.49 670.681 1262.61 672.017L1264.66 674.446L1264.19 692.92C1263.93 703.08 1263.51 713.512 1263.26 716.101C1262.99 718.792 1263.19 722.32 1263.71 724.338C1265.47 731.081 1265.54 732.946 1264.07 734.572C1262.55 736.251 1259.62 736.4 1250.37 735.267L1250.37 735.267ZM1257.51 710.609C1258.72 697.102 1259.22 683.777 1258.63 680.621C1258.35 679.163 1257.41 677.65 1256.42 677.087C1255.12 676.348 1246.49 676.07 1221.74 675.968C1203.61 675.894 1184.9 675.613 1180.16 675.345C1175.41 675.076 1164.29 674.862 1155.44 674.87C1146.6 674.878 1137.39 674.533 1134.99 674.104C1127.83 672.829 1121.85 672.493 1094.25 671.813C1079.8 671.457 1064.27 670.79 1059.73 670.331C1055.2 669.873 1048.67 669.311 1045.22 669.083C1041.77 668.854 1035.24 668.342 1030.71 667.944C1026.18 667.546 1014.35 667.348 1004.43 667.505C986.427 667.788 968.71 666.965 961.279 665.501C954.737 664.211 944.525 663.16 934.748 662.77C929.649 662.566 921.353 661.885 916.312 661.257C910.999 660.595 896.105 659.918 880.867 659.646C857.229 659.225 829.109 657.46 827.197 656.278C826.795 656.03 819.378 655.546 810.715 655.203C784.628 654.169 770.91 653.123 765.712 651.772C763 651.066 760 650.565 759.044 650.658C758.089 650.751 756.665 650.552 755.881 650.214C755.097 649.877 754.169 649.913 753.82 650.294C752.388 651.852 751.269 664.709 750.856 684.337C750.475 702.444 750.574 705.264 751.624 706.135C753.714 707.87 786.968 708.945 802.808 707.789C810.144 707.254 823.382 706.892 832.227 706.984C858.494 707.258 865.339 707.109 869.884 706.165C875.659 704.966 884.77 705.229 888.893 706.713C890.735 707.377 895.155 708.063 898.715 708.238C902.275 708.413 905.524 708.763 905.934 709.017C907.304 709.864 923.697 710.229 927.602 709.499C929.722 709.103 931.636 709.066 931.854 709.417C932.543 710.52 936.194 710.707 935.979 709.628C935.657 708.022 939.241 708.51 940.308 710.217C941.126 711.527 942.159 711.791 946.576 711.82C949.485 711.839 953.377 712.146 955.225 712.504C957.191 712.884 960.101 712.83 962.239 712.374C964.874 711.812 966.302 711.85 967.36 712.511C968.167 713.015 970.483 713.409 972.506 713.385C974.529 713.362 980.421 713.402 985.599 713.473C990.777 713.546 998.19 713.548 1002.07 713.481C1005.96 713.412 1011.96 713.384 1015.41 713.419C1018.86 713.453 1021.95 713.453 1022.27 713.419C1022.6 713.385 1023.09 713.387 1023.36 713.427C1023.64 713.464 1024.15 713.025 1024.51 712.452C1025.18 711.365 1029.79 711.422 1030.95 712.532C1031.3 712.867 1033.23 712.834 1035.23 712.459C1038.91 711.773 1044.81 711.847 1044.57 712.576C1044.3 713.383 1045.28 713.573 1046.95 713.042C1047.99 712.711 1049.39 712.942 1050.48 713.627C1051.51 714.277 1055.47 714.986 1059.73 715.287C1063.83 715.576 1068.47 716.146 1070.04 716.554C1071.63 716.968 1074.23 717.017 1075.92 716.665C1077.94 716.245 1079.97 716.383 1081.99 717.079C1085.06 718.136 1093.3 717.769 1095.84 716.463C1096.55 716.1 1098.27 716.421 1100.06 717.25C1103.34 718.763 1105.65 718.586 1106.35 716.77C1106.72 715.819 1108.53 715.696 1117.13 716.038C1122.81 716.264 1127.83 716.813 1128.28 717.258C1129.46 718.447 1133 718.246 1136.66 716.783C1140.36 715.301 1151.53 715.658 1153.53 717.321C1154.38 718.025 1156.02 718.107 1159.58 717.623C1167.41 716.559 1185.33 717.052 1206.05 718.902C1211.22 719.364 1219.22 719.703 1223.82 719.654C1228.43 719.605 1232.39 719.887 1232.63 720.281C1232.88 720.676 1238.09 721.048 1244.21 721.108C1250.34 721.169 1255.55 721.414 1255.79 721.653C1256.43 722.296 1256.52 721.733 1257.51 710.615V710.609ZM562.591 681.858C568.232 679.67 572.555 677.331 572.555 676.467C572.555 676.044 570.658 675.698 568.339 675.698C566.02 675.698 562.578 675.135 560.69 674.446C556.787 673.022 552.672 672.044 536.182 668.622C519.252 665.109 519.497 666.097 537.645 674.521C550.306 680.398 553.898 682.292 554.282 683.293C554.731 684.461 556.803 684.103 562.591 681.858ZM1226.36 663.698L1241.19 664.08L1231.85 655.082C1221.18 644.789 1214.56 639.344 1213.52 639.987C1213.13 640.232 1212.23 639.225 1211.53 637.749C1209.97 634.449 1209.32 634.335 1188.79 633.704C1180.59 633.452 1171.96 632.913 1169.62 632.506C1167.27 632.099 1161.45 631.768 1156.67 631.771C1148.4 631.779 1130.46 630.282 1117.79 628.533C1114.55 628.087 1106.8 627.404 1100.56 627.017C1094.32 626.63 1088.67 626.096 1088.01 625.83C1087.34 625.565 1082.74 625.195 1077.78 625.009C1072.82 624.823 1067.34 624.346 1065.62 623.948C1063.89 623.551 1058.55 623.025 1053.74 622.78C1048.93 622.535 1041.34 621.689 1036.87 620.9C1032.4 620.112 1026.98 619.406 1024.82 619.333C1017.51 619.083 1006 617.476 1004.41 616.48C1002.62 615.364 987.612 613.412 984.093 613.837C982.134 614.074 981.374 614.946 978.835 619.872C976.326 624.74 976.013 625.867 976.81 627.164C977.616 628.474 977.468 628.914 975.792 630.187C974.714 631.007 972.371 632.045 970.586 632.495C966.042 633.64 954.876 633.678 950.736 632.563C947.232 631.62 942.843 627.859 942.843 625.799C942.843 625.198 942.274 624.705 941.579 624.705C940.293 624.705 940.309 623.96 941.755 616.668C942.113 614.859 941.838 614.384 940.032 613.698C938.85 613.248 936.087 612.89 933.891 612.902C915.95 612.999 835.671 612.228 826.344 611.869C813.762 611.384 809.092 611.988 805.471 614.566C804.26 615.428 802.116 616.535 800.707 617.027C796.415 618.523 789.185 623.179 784.662 627.359C781.888 629.924 778.672 631.961 775.544 633.137C772.886 634.136 770.139 635.472 769.439 636.106C768.739 636.739 767.592 637.258 766.891 637.258C765.807 637.258 761.622 640.663 761.622 641.544C761.622 641.706 763.299 642.255 765.348 642.766C769.732 643.859 782.948 644.775 809.477 645.825C832.019 646.718 852.406 648.013 853.379 648.614C853.756 648.847 864.642 649.055 877.568 649.074C891.454 649.096 906.166 649.573 913.523 650.242C920.372 650.864 931.978 651.721 939.313 652.146C946.648 652.571 956.356 653.28 960.887 653.721C976.828 655.276 981.874 655.51 1003.64 655.703C1015.72 655.81 1028.96 656.282 1033.06 656.753C1037.16 657.224 1045.76 657.977 1052.18 658.428C1058.59 658.878 1064.11 659.409 1064.43 659.608C1064.75 659.807 1075.39 659.987 1088.07 660.009C1109.85 660.045 1122.06 660.667 1134.66 662.381C1137.68 662.793 1148.97 663.203 1159.76 663.293C1170.55 663.383 1182.73 663.651 1186.83 663.89C1190.92 664.128 1198.16 664.096 1202.91 663.82C1207.65 663.543 1218.21 663.488 1226.36 663.698V663.698ZM37.5206 628.569L43.4044 627.836L48.6951 622.152C54.3942 616.029 64.9603 600.722 70.4889 590.579C74.6047 583.028 86.7401 563.733 87.7759 563.093C88.1816 562.842 88.5136 562.304 88.5136 561.898C88.5136 560.105 86.0428 561.534 80.6194 566.466C77.4103 569.384 73.3726 572.964 71.6467 574.421C69.9208 575.878 63.9193 581.37 58.3101 586.626C43.6247 600.385 41.8624 601.921 33.598 608.163C26.0065 613.897 10.0628 628.438 10.0628 629.627C10.0628 630.38 28.7675 629.659 37.5206 628.569V628.569ZM84.9833 563.514C85.25 563.082 85.6239 562.729 85.8141 562.729C86.0044 562.729 86.1601 563.082 86.1601 563.514C86.1601 563.945 85.7862 564.298 85.3293 564.298C84.8723 564.298 84.7167 563.945 84.9833 563.514ZM967.902 625.209C969.105 624.647 970.078 623.291 970.516 621.567C970.9 620.057 971.847 618.115 972.62 617.253C973.394 616.39 974.476 614.816 975.025 613.756C975.573 612.696 977.843 609.342 980.068 606.303C982.294 603.264 985.098 598.66 986.299 596.071C987.5 593.482 989.843 589.199 991.505 586.553C993.168 583.907 996.782 577.376 999.537 572.04C1002.29 566.703 1005.44 560.748 1006.54 558.807C1007.64 556.865 1009.34 552.982 1010.32 550.177C1011.3 547.372 1013.58 542.783 1015.39 539.978C1018.98 534.398 1021.85 529.371 1026.59 520.366C1030.98 512.04 1032.58 509.393 1033.26 509.388C1033.58 509.388 1033.85 508.955 1033.85 508.432C1033.85 507.91 1036.1 503.056 1038.86 497.645C1041.62 492.235 1044.41 486.208 1045.07 484.251C1045.73 482.295 1047.2 478.588 1048.34 476.014C1049.48 473.44 1050.74 470.54 1051.15 469.569C1051.56 468.598 1052.23 467.009 1052.63 466.039C1053.04 465.068 1053.92 462.602 1054.58 460.56C1055.24 458.518 1057.2 453.847 1058.94 450.181C1060.67 446.515 1062.09 443 1062.09 442.369C1062.09 441.739 1062.4 441.031 1062.78 440.796C1063.16 440.562 1064.07 438.511 1064.8 436.239C1066.1 432.213 1069.84 422.983 1073.57 414.63C1074.59 412.352 1075.43 410.212 1075.43 409.874C1075.43 409.537 1076.13 407.799 1076.99 406.013C1077.86 404.227 1078.56 402.436 1078.56 402.033C1078.56 401.63 1079.09 400.289 1079.73 399.053C1080.38 397.817 1080.91 396.255 1080.91 395.582C1080.91 394.909 1082.12 391.908 1083.58 388.914C1085.05 385.919 1089.24 376.762 1092.9 368.563C1103.72 344.321 1104.4 342.834 1106.46 339.144C1107.54 337.203 1110 332.26 1111.93 328.161C1113.86 324.062 1116.56 318.59 1117.92 316.001C1124.03 304.433 1127.2 298.127 1127.2 297.562C1127.2 297.226 1129.53 292.059 1132.37 286.079C1135.22 280.099 1139.46 270.469 1141.8 264.678C1144.15 258.887 1146.37 253.768 1146.74 253.302C1147.12 252.837 1148.36 249.985 1149.52 246.965C1150.67 243.944 1152.16 240.238 1152.83 238.727C1153.51 237.217 1155.6 232.386 1157.48 227.992C1159.36 223.598 1161.97 217.799 1163.27 215.105C1164.58 212.411 1165.64 209.767 1165.64 209.23C1165.64 207.737 1168.71 200.809 1173.59 191.265C1176.01 186.518 1178.9 180.87 1180 178.712C1182.75 173.329 1186.49 165.001 1187.22 162.63C1187.55 161.551 1188.3 159.972 1188.89 159.121C1189.48 158.27 1189.96 157.035 1189.97 156.376C1189.97 155.716 1192.81 149.204 1196.27 141.904C1199.74 134.604 1202.47 128.078 1202.34 127.4C1202.18 126.561 1200.76 125.976 1197.86 125.559C1195.53 125.224 1193.21 124.606 1192.71 124.187C1192.2 123.768 1190.32 122.908 1188.53 122.276C1185.55 121.226 1185.21 121.242 1184.59 122.461C1184.21 123.196 1184.05 124.229 1184.24 124.758C1184.6 125.762 1180.01 135.712 1178.86 136.424C1178.49 136.65 1178.2 137.448 1178.2 138.2C1178.2 138.951 1177.81 139.952 1177.34 140.424C1176.54 141.218 1174.2 146.621 1169.08 159.492C1167.96 162.297 1165.5 167.811 1163.6 171.747C1161.7 175.682 1160.15 179.146 1160.15 179.444C1160.15 179.742 1159.3 181.818 1158.26 184.056C1155.77 189.383 1151.98 198.925 1148.82 207.817C1147.42 211.744 1145.11 217.039 1143.69 219.585C1138.17 229.472 1133.66 238.428 1133.18 240.462C1132.75 242.31 1127.68 253.817 1125.58 257.741C1125.18 258.49 1124.85 259.59 1124.85 260.185C1124.85 260.78 1123.64 263.698 1122.16 266.668C1120.68 269.638 1118.71 274.011 1117.78 276.384C1116.2 280.44 1113.52 286.272 1108.27 297.116C1107.03 299.674 1106.02 302.223 1106.02 302.783C1106.02 303.342 1105.27 305.486 1104.36 307.547C1103.44 309.608 1102.17 312.53 1101.52 314.04C1100.88 315.55 1099.86 317.723 1099.26 318.868C1098.66 320.013 1098.18 321.447 1098.18 322.054C1098.18 322.662 1097.47 323.916 1096.61 324.842C1095.74 325.769 1095.04 326.84 1095.04 327.223C1095.04 328.35 1092.66 332.958 1089.87 337.25C1088.45 339.444 1086.86 342.892 1086.36 344.912C1085.85 346.932 1085.12 348.776 1084.74 349.01C1084.36 349.244 1084.05 350.296 1084.05 351.348C1084.05 353.014 1082.12 357.798 1078.06 366.21C1077.43 367.504 1075.83 370.329 1074.5 372.486C1073.16 374.643 1071.03 378.88 1069.74 381.9C1068.46 384.92 1066.92 387.949 1066.32 388.63C1065.72 389.311 1065.23 390.316 1065.23 390.863C1065.23 391.82 1062.93 396.392 1062.05 397.198C1061.81 397.414 1058.71 403.592 1055.16 410.927C1051.6 418.262 1048.36 424.793 1047.96 425.44C1046.46 427.861 1044.04 433.53 1043.99 434.758C1043.96 435.458 1042.91 437.796 1041.64 439.954C1040.38 442.111 1039.11 444.406 1038.83 445.053C1038.55 445.7 1037.88 446.759 1037.34 447.406C1036.81 448.054 1035.44 451.231 1034.3 454.467C1033.15 457.703 1031.52 461.307 1030.68 462.477C1029.83 463.646 1029.14 464.784 1029.14 465.007C1029.14 465.229 1028.08 467.723 1026.79 470.549C1025.49 473.376 1024.43 476.036 1024.43 476.461C1024.43 476.887 1023.76 478.731 1022.95 480.56C1022.13 482.39 1021.25 484.416 1020.99 485.063C1020.73 485.71 1020.22 486.769 1019.85 487.416C1017.51 491.546 1017.27 492.334 1018.09 493.157C1019.5 494.569 1019.06 495.609 1016.59 496.706C1015.13 497.35 1014.03 498.546 1013.72 499.839C1013.44 500.989 1009.94 508.284 1005.95 516.051C997.633 532.258 996.392 534.697 993.188 541.155C991.904 543.744 989.224 548.863 987.232 552.531C982.9 560.507 973.439 579.815 973.439 580.677C973.439 581.013 972.427 582.849 971.191 584.757C961.602 599.554 959.239 603.449 954.809 611.761C952.05 616.939 949.464 621.51 949.064 621.92C947.543 623.475 948.458 624.653 952.061 625.776C956.161 627.054 964.602 626.752 967.902 625.209V625.209ZM540.39 436.973C540.39 436.412 540.093 435.617 539.729 435.207C539.365 434.797 538.468 432.49 537.735 430.079C536.033 424.481 534.712 422.639 531.066 420.779C529.447 419.953 526.381 417.907 524.254 416.232C516.948 410.483 515.55 411.21 521.381 417.728C523.438 420.028 525.998 423.025 527.068 424.388C536.92 436.927 540.39 440.205 540.39 436.973ZM1224.87 119.586C1231.8 117.335 1239.32 113.983 1248.86 108.891C1250.47 108.028 1253.15 106.037 1254.81 104.467C1256.47 102.897 1259.33 100.29 1261.17 98.6741C1265.91 94.5174 1268.79 89.9155 1271.99 81.3536C1274.7 74.1281 1274.77 73.6459 1274.51 64.7285C1274.28 57.1926 1273.72 53.6319 1271.37 44.8854C1269.79 39.0228 1268.05 33.1978 1267.5 31.9411C1266.95 30.6842 1263.54 26.3021 1259.93 22.203C1253.66 15.0925 1248.13 11.0166 1242.29 9.19445C1241.34 8.89761 1239.45 7.67911 1238.08 6.48666C1236.7 5.28456 1234.25 4.12514 1232.59 3.88421C1228.9 3.35107 1215.75 2.22097 1214.68 2.3443C1210.69 2.79987 1197.86 5.26605 1196.63 5.81363C1195.77 6.19749 1193.05 7.19139 1190.6 8.02226C1181.28 11.1777 1169.13 21.2988 1160.55 33.0491C1156.36 38.7948 1156.21 39.1326 1153.89 48.4313C1152.39 54.4197 1152.18 56.9302 1152.48 65.6904C1152.8 75.2712 1152.99 76.3011 1155.4 81.4334C1162.01 95.5444 1163.38 98.2053 1165.42 100.876C1166.62 102.45 1168.22 104.603 1168.96 105.66C1170.71 108.132 1178.71 114.212 1183.06 116.38C1184.91 117.305 1189.26 119.058 1192.71 120.276C1198.38 122.277 1199.86 122.473 1208.01 122.314C1215.76 122.162 1218.13 121.778 1224.87 119.586V119.586ZM956.572 159.293C944.823 155.216 943.741 154.317 938.392 144.176L934.676 137.133L934.705 128.896C934.733 120.97 936.021 112.132 937.397 110.428C937.76 109.979 938.439 107.902 938.908 105.814C939.945 101.186 943.143 94.4921 945.567 91.8784C946.551 90.8168 947.583 89.268 947.859 88.4366C948.677 85.9774 964.514 69.1575 970.164 64.7472C971.673 63.5691 974.461 61.2813 976.359 59.6633C978.258 58.0452 980.054 56.7197 980.352 56.7178C980.649 56.7178 981.961 55.7449 983.268 54.5604C986.824 51.3364 992.939 47.3073 994.276 47.3073C994.925 47.3073 995.641 46.822 995.869 46.2288C996.096 45.6357 997.762 44.5403 999.57 43.7948C1001.38 43.0492 1003.42 42.1566 1004.1 41.8112C1006.16 40.7669 1021.39 37.9485 1026 37.7578C1028.37 37.6597 1030.69 37.3085 1031.15 36.9775C1032.15 36.2552 1043.44 35.1844 1049.7 35.2185C1055.65 35.2507 1061.3 38.0778 1061.3 41.0161C1061.3 42.5977 1063.97 45.1398 1067.19 46.6174C1071.39 48.5511 1072.64 52.4865 1072.95 64.8425C1073.13 72.0404 1072.93 76.0002 1072.36 76.5709C1071.89 77.0447 1071.5 78.3915 1071.5 79.5637C1071.5 80.7358 1071.19 81.8126 1070.8 81.9564C1070.42 82.1003 1069.68 85.5717 1069.16 89.6707C1067.94 99.2288 1065.96 103.645 1060.35 109.332C1057.85 111.857 1055.81 114.5 1055.81 115.206C1055.81 119.208 1037.29 136.837 1033.45 136.49C1032.35 136.39 1031.95 136.76 1032.12 137.745C1032.29 138.725 1031.47 139.512 1029.38 140.383C1027.74 141.066 1026.22 141.887 1026 142.207C1025.79 142.527 1022.26 144.433 1018.16 146.442C1014.06 148.452 1010.17 150.416 1009.53 150.808C1006.62 152.565 1000.74 154.785 998.991 154.785C997.933 154.785 996.887 155.076 996.667 155.432C996.447 155.788 993.337 156.696 989.756 157.45C986.176 158.203 981.969 159.147 980.409 159.548C976.654 160.512 959.56 160.329 956.572 159.293H956.572ZM978.931 155.552C980.872 155.17 983.959 154.634 985.791 154.361C987.623 154.088 989.29 153.59 989.497 153.255C989.704 152.921 991.559 152.212 993.62 151.682C998.808 150.346 998.953 150.282 1013.21 143.108C1036.64 131.315 1045 124.176 1054.67 107.702C1055.11 106.938 1055.91 105.797 1056.43 105.166C1058.45 102.732 1061.58 96.1657 1062.51 92.4165C1063.05 90.2591 1064.22 85.8046 1065.12 82.5176C1067.82 72.5987 1068.78 54.6167 1066.72 52.4458C1066.33 52.0359 1066.01 51.0733 1066.01 50.3065C1066.01 49.5398 1065.04 48.3225 1063.85 47.6013C1061.73 46.3107 1055.01 41.8492 1054.24 41.2233C1054.03 41.0471 1054.5 40.4303 1055.29 39.8526C1056.66 38.8477 1056.65 38.7626 1055.01 37.8851C1052.94 36.7743 1048.85 37.11 1036.98 39.3662C1023.99 41.837 1020.82 42.4044 1014.23 43.44C1009.02 44.2603 1003.64 46.0468 1000.11 48.1294C999.465 48.5118 997.032 49.9499 994.706 51.3252C983.208 58.1223 966.271 73.1537 953.708 87.7095C949.462 92.63 944.739 101.349 943.297 106.93C942.573 109.735 941.669 112.735 941.288 113.598C940.474 115.445 938.932 123.916 938.524 128.786C938.174 132.95 941.776 144.138 944.931 148.691C948.302 153.556 953.436 155.747 962.848 156.338C970.909 156.843 972.847 156.749 978.931 155.552V155.552Z" fill="white"/>
</g>
<defs>
<clipPath id="clip0_18_895">
<rect width="1281" height="736" fill="white"/>
</clipPath>
</defs>
</svg>
