<svg width="1824" height="592" viewBox="0 0 1824 592" fill="none" xmlns="http://www.w3.org/2000/svg">
<g clip-path="url(#clip0_18_883)">
<path d="M885.182 590.197C884.565 589.111 883.082 588.119 880.543 587.091C878.49 586.261 873.418 584.193 869.271 582.496C865.125 580.799 861.113 579.458 860.357 579.515C858.471 579.659 845.938 574.984 843.85 573.357C843.478 573.067 841.869 572.521 840.274 572.143C838.679 571.765 834.112 570.444 830.125 569.206C821.985 566.679 816.789 565.381 810.406 564.283C808.014 563.871 805.274 563.254 804.317 562.911C802.164 562.141 794.678 559.965 791.558 559.202C790.282 558.89 786.626 557.864 783.434 556.923C780.242 555.982 776.482 555.107 775.08 554.979C771.158 554.62 766.767 553.401 765.237 552.247C764.476 551.673 763.169 551.204 762.333 551.204C761.497 551.204 759.901 550.933 758.787 550.602C757.672 550.271 754.709 549.757 752.202 549.46C749.695 549.163 747.346 548.686 746.983 548.398C746.117 547.714 735.381 544.219 732.403 543.651C731.127 543.408 729.3 542.941 728.343 542.614C722.204 540.513 713.471 537.865 712.681 537.865C712.167 537.865 709.478 537.106 706.706 536.178C703.933 535.25 698.664 533.661 694.996 532.648C691.328 531.634 687.509 530.438 686.51 529.991C684.044 528.885 674.195 525.686 673.259 525.686C672.844 525.686 671.367 525.17 669.976 524.539C668.586 523.908 666.519 523.386 665.384 523.379C664.249 523.372 662.813 522.983 662.194 522.515C661.575 522.047 659.973 521.655 658.635 521.645C655.502 521.621 641.513 518.009 637.245 516.122C635.436 515.322 633.532 514.665 633.014 514.663C632.495 514.663 631.288 514.141 630.331 513.507C629.374 512.874 628.226 512.353 627.779 512.351C627.333 512.351 625.636 511.716 624.01 510.943C619.523 508.813 615.146 507.128 614.101 507.128C613.586 507.128 612.372 506.718 611.403 506.217C610.434 505.716 607.872 504.841 605.709 504.273C603.546 503.705 601.162 502.811 600.411 502.285C599.66 501.759 598.382 501.328 597.571 501.328C596.76 501.328 595.123 500.806 593.933 500.168C592.742 499.53 591.05 499 590.172 498.99C589.293 498.979 587.139 498.452 585.385 497.819C581.201 496.307 573.445 494.02 570.886 493.543C564.737 492.397 563.459 492.12 561.611 491.533C560.496 491.179 558.318 490.889 556.771 490.889C555.223 490.889 553.264 490.521 552.417 490.071C551.57 489.622 548.398 488.668 545.368 487.952C542.338 487.236 539.467 486.446 538.989 486.196C537.333 485.331 532.397 483.93 531.005 483.93C530.236 483.93 527.608 483.057 525.164 481.991C522.72 480.924 518.241 479.343 515.211 478.477C512.18 477.611 508.918 476.633 507.961 476.304C507.004 475.974 504.003 475.092 501.292 474.342C498.581 473.593 493.331 472.077 489.626 470.973C485.921 469.87 478.874 467.986 473.967 466.787C469.06 465.587 464.262 464.283 463.305 463.888C462.348 463.493 460.13 462.99 458.375 462.77C456.621 462.549 454.272 461.79 453.156 461.082C452.039 460.374 450.343 459.495 449.386 459.128C446.985 458.209 437.635 455.849 431.698 454.664C428.986 454.122 425.985 453.334 425.028 452.912C424.071 452.49 422.766 451.958 422.128 451.731C409.99 447.402 405.469 445.894 400.38 444.475C391.658 442.044 384.728 439.895 382.527 438.94C381.48 438.485 380.114 438.114 379.492 438.114C378.87 438.114 373.724 436.788 368.057 435.168C353.503 431.007 351.667 430.502 349.055 429.951C345.686 429.239 340.844 427.705 325.856 422.602C318.52 420.104 309.908 417.467 306.718 416.744C300.219 415.269 293.714 413.302 292.725 412.513C292.365 412.226 288.972 411.482 285.186 410.859C276.067 409.36 263.488 406.433 241.473 400.69C238.443 399.899 234.137 398.843 231.904 398.343C229.671 397.843 224.713 396.507 220.885 395.374C217.058 394.241 213.143 393.107 212.186 392.853C211.229 392.599 208.489 391.564 206.096 390.551C200.647 388.244 186.107 384.999 178.855 384.471C174.977 384.189 168.749 382.891 157.686 380.06C149.065 377.854 138.228 375.124 133.602 373.993C128.977 372.861 122.714 371.326 119.684 370.582C116.653 369.837 110.912 368.292 106.925 367.149C99.5855 365.045 85.3005 361.431 65.7481 356.732C55.5271 354.276 48.0332 352.878 44.8698 352.839C35.7481 352.726 18.1408 350.326 15.3071 348.809C14.0235 348.122 10.3995 347.977 7.46126 348.494C5.56197 348.829 4.84791 348.674 3.535 347.641C1.62477 346.139 0.00431817 343.223 0.443347 342.079C0.615901 341.63 1.39595 341.262 2.17679 341.262C3.05545 341.262 4.04215 340.654 4.76587 339.667C5.70403 338.387 6.08053 338.215 6.67009 338.797C8.22925 340.335 13.2136 339.259 28.9212 333.992C31.154 333.243 35.8516 331.959 39.3603 331.139C45.4759 329.709 47.8662 328.877 54.579 325.839C57.8605 324.354 68.0874 320.73 76.4772 318.079C79.348 317.172 83.6541 315.768 86.0464 314.96C88.4387 314.152 94.0497 312.322 98.5154 310.892C102.981 309.462 108.983 307.485 111.854 306.498C114.725 305.511 119.227 304.179 121.858 303.539C134.587 300.438 142.339 297.922 155.714 292.551C163.713 289.338 171.209 286.225 172.373 285.633C173.537 285.04 175.663 284.226 177.099 283.822C178.534 283.419 184.07 281.047 189.4 278.55C197.439 274.785 215.248 268.198 217.411 268.19C218.41 268.184 233.722 263.085 243.484 259.503C253.464 255.841 255.114 255.18 261.012 252.479C263.115 251.515 265.647 250.569 266.638 250.375C267.63 250.181 268.977 249.677 269.632 249.254C270.287 248.831 272.245 247.979 273.982 247.359C275.719 246.74 280.011 244.934 283.52 243.347C287.029 241.759 293.945 239.25 298.889 237.77C311.333 234.047 327.326 228.658 332.526 226.434C334.918 225.412 338.18 224.095 339.775 223.509C341.37 222.923 347.242 220.702 352.824 218.574C358.406 216.445 367.41 213.154 372.833 211.259C378.255 209.364 385.693 206.766 389.361 205.485C393.029 204.203 397.205 202.882 398.64 202.547C400.076 202.213 401.511 201.734 401.83 201.484C402.149 201.234 404.237 200.574 406.47 200.017C408.703 199.461 411.704 198.49 413.139 197.86C415.817 196.685 422.699 194.572 429.378 192.876C431.451 192.349 433.409 191.765 433.727 191.577C434.046 191.389 436.265 190.648 438.657 189.93C441.049 189.212 443.529 188.423 444.167 188.177C444.805 187.93 448.719 186.623 452.866 185.272C460.042 182.933 467.708 179.846 476.644 175.696C478.877 174.659 481.747 173.492 483.023 173.103C484.299 172.714 486.257 171.979 487.373 171.47C490.407 170.086 501.674 166.182 505.642 165.139C507.555 164.636 509.774 163.903 510.571 163.509C511.369 163.115 513.456 162.473 515.211 162.083C518.675 161.312 522.775 159.925 525.07 158.748C525.867 158.339 526.884 158.002 527.33 158C528.054 157.994 533.318 156.309 536.379 155.099C537.017 154.846 538.844 154.19 540.439 153.641C543.271 152.665 551.121 149.52 561.027 145.393C563.738 144.263 566.609 143.133 567.406 142.882C568.204 142.631 571.466 141.479 574.656 140.322C577.846 139.166 581.429 137.972 582.618 137.669C584.947 137.076 602.484 130.571 605.459 129.196C606.453 128.737 610.367 127.349 614.159 126.112C617.95 124.874 623.531 122.959 626.561 121.856C631.702 119.985 634.641 119.028 652.079 113.543C655.747 112.389 659.571 111.089 660.576 110.653C661.581 110.217 662.685 109.861 663.028 109.861C663.372 109.861 665.029 109.234 666.71 108.468C671.281 106.385 679.576 103.481 680.956 103.481C681.623 103.481 682.308 103.255 682.479 102.978C682.65 102.702 684.688 101.899 687.008 101.193C689.328 100.488 694.488 98.8947 698.475 97.6524C702.463 96.4102 707.813 94.8512 710.364 94.1881C712.916 93.5251 715.917 92.5024 717.034 91.9156C718.15 91.3288 720.891 90.1887 723.123 89.3819C725.356 88.5751 729.14 87.0984 731.533 86.1004C733.925 85.1024 737.057 84.0295 738.492 83.7162C743.919 82.5314 767.654 74.7256 773.579 72.1766C775.174 71.4905 777.001 70.7116 777.639 70.4458C778.277 70.18 779.752 69.5443 780.916 69.0334C782.081 68.5224 783.319 68.1043 783.667 68.1043C784.015 68.1043 786.586 67.2124 789.379 66.1223C800.11 61.9344 803.987 60.585 806.395 60.2C807.766 59.9807 809.556 59.4528 810.372 59.0268C811.188 58.6008 812.558 58.2507 813.417 58.2487C814.275 58.2467 815.139 57.9842 815.336 57.6652C815.533 57.3462 816.413 57.0853 817.291 57.0853C818.169 57.0853 819.915 56.5958 821.171 55.9976C822.427 55.3995 825.412 54.3359 827.805 53.6343C830.197 52.9326 832.937 52.0084 833.894 51.5804C834.851 51.1525 837.591 50.0286 839.984 49.083C853.741 43.6453 859.571 41.2773 860.862 40.6039C861.659 40.1878 863.181 39.6831 864.243 39.4823C865.305 39.2815 867.001 38.7563 868.013 38.3151C871.708 36.7028 877.042 35.4704 878.802 35.8223C880.157 36.0933 880.58 35.9699 880.58 35.3044C880.58 34.2098 880.4 34.275 891.732 31.2709C896.922 29.8951 902.865 28.3194 904.938 27.7695C907.012 27.2195 909.23 26.5606 909.868 26.3052C910.506 26.0497 911.68 25.676 912.478 25.4747C913.275 25.2734 915.232 24.6362 916.827 24.0587C918.422 23.4813 921.684 22.2989 924.077 21.4312C926.469 20.5635 929.757 19.2269 931.384 18.4611C933.011 17.6952 934.72 17.0686 935.183 17.0686C935.645 17.0686 936.272 16.8349 936.575 16.5493C936.878 16.2637 939.344 15.2503 942.055 14.2974C944.766 13.3445 949.595 11.6265 952.784 10.4797C955.974 9.33281 959.417 8.38881 960.434 8.38188C961.452 8.37488 962.428 8.1384 962.602 7.8562C962.777 7.57401 963.64 7.2004 964.521 7.02596C965.402 6.85151 968.211 6.16252 970.763 5.49487C973.315 4.82723 977.36 3.89476 979.752 3.4227C983.615 2.66052 984.174 2.66213 984.745 3.43701C985.853 4.93749 986.711 4.40824 986.711 2.22536V0.141113L989.466 0.505478C996.433 1.42692 1003.65 1.99626 1008.17 1.98024C1010.88 1.97024 1014.93 2.35578 1017.16 2.83614C1019.39 3.3165 1022.85 3.71405 1024.84 3.71959C1026.91 3.72559 1028.47 3.9834 1028.47 4.32065C1028.47 4.6457 1029.06 4.76709 1029.77 4.59041C1030.49 4.41372 1034.08 4.82306 1037.75 5.50002C1041.42 6.177 1047.05 7.2068 1050.26 7.7885C1053.48 8.37019 1058.7 9.51928 1061.86 10.342C1068.07 11.9553 1076.59 13.4665 1082.02 13.9156C1083.88 14.0697 1086.3 14.5703 1087.4 15.0282C1088.49 15.4861 1090.62 16.0086 1092.13 16.1895C1093.64 16.3704 1096.44 16.7821 1098.35 17.1045C1100.27 17.4269 1104.18 17.9309 1107.05 18.2245C1109.92 18.5182 1113.58 19.0223 1115.17 19.3449C1116.77 19.6674 1120.03 20.194 1122.42 20.515C1126.97 21.1254 1132.11 21.984 1137.5 23.0339C1139.25 23.3756 1141.1 23.5992 1141.61 23.5308C1142.12 23.4624 1143.29 23.7069 1144.22 24.0741C1145.15 24.4412 1147.47 24.9518 1149.39 25.2086C1153.62 25.777 1162.83 27.2847 1166.79 28.0566C1173.45 29.357 1181.13 30.4077 1187.66 30.9112C1196.26 31.5731 1211.66 33.7559 1215.32 34.8291C1216.82 35.2679 1218.77 35.627 1219.67 35.627C1220.57 35.627 1224.04 36.1717 1227.39 36.8374C1230.74 37.5031 1237.4 38.6768 1242.18 39.4455C1246.96 40.2143 1252.18 41.1096 1253.78 41.435C1255.37 41.7604 1260.07 42.5387 1264.22 43.1644C1268.36 43.7902 1274.11 44.8381 1276.98 45.4929C1285.63 47.4663 1287.21 47.7627 1292.35 48.3703C1296.88 48.9072 1303.87 50.1031 1314.96 52.2421C1317.36 52.7033 1320.63 53.3001 1322.25 53.5683C1323.86 53.8365 1327 54.4608 1329.21 54.9557C1331.42 55.4506 1335.45 56.2878 1338.16 56.8163C1340.87 57.3447 1344.01 57.9887 1345.12 58.2473C1353.74 60.2437 1374.27 64.6068 1381.37 65.9518C1386.3 66.8857 1388.31 67.3396 1404.28 71.1329C1409.86 72.4588 1416.51 73.8717 1419.07 74.2726C1426.96 75.5129 1429.32 76.0363 1429.71 76.6335C1429.92 76.9501 1431.52 77.3747 1433.27 77.5771C1439.99 78.3518 1450.61 80.5303 1464.3 83.9393C1468.77 85.0514 1476.07 86.8047 1480.54 87.8354C1485.01 88.8661 1493.1 90.836 1498.52 92.213C1507.76 94.5595 1511.87 95.3008 1522.59 96.5504C1524.98 96.8294 1528.11 97.1996 1529.55 97.3731C1530.98 97.5466 1536.2 98.1058 1541.15 98.6158C1555.76 100.124 1558.01 100.409 1563.18 101.416C1565.89 101.944 1570.98 102.881 1574.49 103.498C1592.9 106.736 1598.32 107.763 1604.94 109.272C1608.93 110.181 1614.67 111.33 1617.7 111.826C1623.56 112.785 1631.84 114.148 1639.45 115.405C1646.62 116.591 1657.29 118.589 1657.67 118.816C1657.85 118.929 1661.14 119.448 1664.96 119.969C1671.83 120.905 1674.79 121.508 1689.03 124.88C1698.34 127.084 1704.84 128.268 1711.36 128.948C1724.63 130.332 1738.48 132.259 1743.84 133.465C1753.22 135.577 1769.42 139.866 1778.35 142.603C1784.98 144.637 1793.26 147.006 1795.74 147.581C1796.86 147.84 1800.12 148.571 1802.99 149.206C1805.86 149.842 1809.39 150.807 1810.82 151.351C1814.71 152.826 1817.99 153.066 1819.1 151.958C1820.4 150.654 1821.56 150.815 1822.63 152.448C1823.95 154.461 1824.02 157.135 1822.78 158.503C1822.2 159.137 1819.08 161.459 1815.84 163.663C1812.6 165.867 1807.81 169.134 1805.19 170.923C1802.57 172.712 1799.31 174.506 1797.94 174.91C1796.57 175.313 1795.11 175.979 1794.69 176.389C1794.27 176.8 1793.55 177.135 1793.09 177.135C1792.64 177.135 1792.26 177.396 1792.26 177.715C1792.26 178.034 1791.71 178.295 1791.04 178.295C1789.97 178.295 1786.89 179.632 1784.15 181.284C1783.67 181.573 1782.82 181.962 1782.26 182.149C1781.7 182.337 1781.25 182.67 1781.25 182.891C1781.25 183.366 1777.39 185.092 1775.74 185.358C1775.1 185.461 1774.26 185.806 1773.87 186.124C1772.15 187.541 1771.56 187.922 1769.65 188.835C1765.78 190.684 1761.6 192.214 1760.4 192.214C1759.75 192.214 1759.21 192.415 1759.21 192.661C1759.21 192.907 1757.97 193.755 1756.45 194.546C1754.94 195.337 1753.5 196.245 1753.26 196.564C1752.99 196.927 1752.61 196.819 1752.26 196.274C1751.94 195.795 1751.68 195.702 1751.68 196.066C1751.67 196.43 1751.02 196.892 1750.22 197.092C1749.42 197.292 1748.77 197.696 1748.77 197.989C1748.77 198.282 1747.59 198.698 1746.16 198.914C1744.72 199.129 1743.55 199.536 1743.55 199.819C1743.55 200.102 1743.11 200.333 1742.57 200.333C1742.02 200.333 1740.89 200.992 1740.05 201.798C1738.53 203.253 1737.45 203.678 1733.83 204.232C1732.79 204.391 1731.8 204.753 1731.62 205.037C1731.44 205.321 1730.79 205.553 1730.18 205.553C1729.56 205.553 1729.05 205.788 1729.05 206.076C1729.05 206.364 1728.33 206.89 1727.45 207.245C1726.58 207.6 1724.69 208.518 1723.25 209.285C1720.67 210.663 1718.78 211.499 1714.26 213.258C1709.18 215.239 1708.17 215.713 1708.17 216.134C1708.17 216.375 1707.76 216.572 1707.25 216.572C1706.74 216.572 1704.98 217.3 1703.33 218.19C1701.69 219.08 1699.23 220.167 1697.87 220.606C1696.51 221.044 1695.11 221.751 1694.75 222.177C1694.4 222.603 1693.79 222.951 1693.4 222.951C1692.29 222.951 1689.03 224.715 1689.03 225.314C1689.03 225.609 1688.84 225.809 1688.6 225.758C1688.36 225.706 1687.43 225.967 1686.53 226.337C1685.63 226.708 1684.65 227.011 1684.35 227.011C1684.05 227.011 1683.34 227.245 1682.79 227.531C1677.33 230.35 1671.52 232.795 1669.7 233.038C1668.47 233.201 1666.64 233.961 1665.64 234.726C1663.22 236.561 1659.05 238.402 1653.43 240.106C1650.92 240.87 1648.57 241.724 1648.22 242.005C1647.86 242.286 1646.13 243.051 1644.38 243.704C1642.62 244.358 1639.1 245.836 1636.55 246.988C1631.07 249.459 1630.32 249.788 1627.27 251.048C1625.99 251.574 1624.5 252.254 1623.94 252.557C1623.39 252.861 1622.55 253.109 1622.08 253.109C1621.6 253.109 1620.36 253.857 1619.31 254.771C1617.18 256.636 1605.39 262.968 1604.06 262.968C1603.59 262.968 1603.2 263.181 1603.2 263.441C1603.2 263.701 1601.44 264.532 1599.29 265.287C1597.13 266.042 1594.16 267.265 1592.68 268.004C1591.2 268.743 1589.68 269.348 1589.32 269.348C1587.55 269.348 1573.7 275.016 1561.44 280.763C1559.05 281.884 1555.46 283.418 1553.46 284.172C1549.44 285.689 1547.68 286.454 1540.86 289.665C1538.3 290.866 1534 292.67 1531.29 293.673C1528.57 294.677 1525.05 295.995 1523.46 296.601C1521.86 297.208 1519.64 297.866 1518.51 298.064C1517.39 298.263 1514.65 299.452 1512.43 300.708C1506.79 303.89 1480.27 316.904 1479.43 316.904C1478.57 316.904 1464.86 322.882 1458.21 326.149C1454.54 327.953 1448.28 330.823 1444.29 332.527C1440.31 334.231 1436.78 335.806 1436.46 336.026C1436.15 336.247 1433.64 337.377 1430.89 338.537C1428.15 339.697 1421.89 342.682 1416.98 345.17C1412.06 347.658 1406.22 350.445 1403.99 351.364C1401.75 352.283 1397.71 354.014 1395 355.211C1392.29 356.409 1388.24 358.112 1386.01 358.998C1383.78 359.883 1381.3 361.177 1380.5 361.874C1379.15 363.054 1370.69 367.359 1369.72 367.359C1369.48 367.359 1368.87 367.702 1368.37 368.121C1367.86 368.54 1363.4 370.655 1358.46 372.82C1353.52 374.985 1348.82 377.124 1348.02 377.572C1344.17 379.737 1331.18 385.899 1328.73 386.721C1327.21 387.232 1324.47 388.398 1322.64 389.312C1317.4 391.931 1306.46 396.203 1300.75 397.856C1297.89 398.688 1293.97 400.098 1292.06 400.99C1290.14 401.882 1287.66 402.873 1286.55 403.192C1285.43 403.511 1281.78 405.081 1278.43 406.681C1275.08 408.28 1271.42 409.765 1270.31 409.98C1269.19 410.195 1266.32 411.242 1263.93 412.307C1261.54 413.371 1257.1 415.2 1254.07 416.369C1251.04 417.539 1247.12 419.099 1245.37 419.836C1243.62 420.572 1241.58 421.353 1240.85 421.572C1240.12 421.79 1235.71 423.904 1231.05 426.271C1226.39 428.638 1222.25 430.574 1221.84 430.574C1221.43 430.574 1220.36 431.19 1219.46 431.942C1218.56 432.695 1216.98 433.743 1215.95 434.271C1214.92 434.799 1212.44 436.698 1210.44 438.491C1208.44 440.284 1205.21 442.47 1203.27 443.348C1201.32 444.226 1198.56 445.836 1197.14 446.925C1195.71 448.014 1193.65 449.26 1192.55 449.693C1191.46 450.126 1190.04 450.93 1189.4 451.48C1188.77 452.029 1187.59 452.677 1186.8 452.919C1186.01 453.161 1183.74 454.105 1181.78 455.016C1179.81 455.927 1177.8 456.672 1177.31 456.672C1176.82 456.672 1176.26 456.934 1176.06 457.253C1175.6 457.999 1163.23 464.211 1162.21 464.211C1161.78 464.211 1160.81 464.693 1160.05 465.281C1159.29 465.869 1157.48 466.797 1156.04 467.342C1154.59 467.888 1152.26 469.239 1150.86 470.346C1149.46 471.453 1147.65 472.517 1146.82 472.711C1146 472.904 1144.81 473.503 1144.17 474.04C1143.53 474.578 1141.05 475.748 1138.66 476.642C1133.74 478.477 1130.47 480.079 1127.93 481.896C1126.97 482.579 1124.54 483.993 1122.53 485.037C1119.29 486.719 1116.38 487.966 1106.1 492.078C1104.62 492.67 1102.46 493.803 1101.29 494.596C1100.12 495.389 1098.2 496.322 1097.02 496.669C1095.84 497.017 1092.52 498.459 1089.65 499.875C1086.78 501.29 1082.74 503.229 1080.66 504.183C1074.49 507.026 1068.27 510.644 1064.02 513.867C1062.68 514.883 1060.2 516.169 1058.51 516.725C1054.33 518.1 1041.37 524.311 1039.09 526.031C1038.08 526.799 1037.12 527.426 1036.96 527.426C1036.81 527.426 1034.7 528.601 1032.27 530.036C1029.84 531.471 1027.71 532.646 1027.54 532.646C1027.36 532.646 1024.57 533.993 1021.32 535.64C1011.85 540.447 1011.58 540.567 1006.72 542.208C1001.99 543.804 1000.65 544.352 986.422 550.505C981.956 552.436 975.431 555.107 971.923 556.441C968.414 557.774 964.269 559.36 962.711 559.964C961.153 560.569 959.351 561.063 958.706 561.063C958.062 561.063 953.986 562.326 949.65 563.87C945.313 565.413 940.33 567.145 938.576 567.719C936.821 568.293 934.603 569.219 933.646 569.776C932.689 570.334 931.254 570.98 930.456 571.212C929.659 571.443 927.44 572.346 925.527 573.218C923.613 574.09 920.178 575.38 917.893 576.085C911.74 577.984 902.985 582.472 895.779 587.42C888.595 592.353 886.692 592.852 885.182 590.197V590.197ZM894.638 576.914C899.974 573.483 906.826 570.256 913.416 568.07C922.163 565.169 929.372 562.429 934.516 560.048C937.227 558.794 940.881 557.298 942.635 556.725C944.389 556.152 947.13 555.233 948.725 554.683C950.32 554.133 953.392 553.248 955.553 552.716C957.713 552.185 962.213 550.584 965.552 549.157C968.89 547.731 971.886 546.565 972.21 546.565C972.533 546.565 975.333 545.355 978.433 543.878C981.533 542.4 986.295 540.345 989.015 539.312C1000.61 534.906 1006.59 532.384 1013.78 528.857C1017.98 526.796 1022.03 524.878 1022.77 524.595C1023.51 524.312 1026.34 522.725 1029.05 521.068C1033.89 518.111 1038.75 515.646 1052.42 509.234C1056.18 507.468 1060.23 505.268 1061.41 504.346C1064.8 501.699 1072.71 497.677 1081.53 494.121C1086 492.321 1091.61 489.851 1094 488.633C1096.39 487.416 1099.92 485.821 1101.83 485.091C1107.56 482.906 1115.55 478.992 1118.85 476.752C1120.56 475.596 1122.26 474.649 1122.62 474.648C1122.99 474.648 1126.16 473.246 1129.67 471.537C1133.18 469.827 1136.7 468.226 1137.5 467.978C1138.3 467.73 1142.99 465.513 1147.94 463.052C1152.88 460.59 1162.39 455.864 1169.08 452.55C1183.57 445.362 1193.03 440.012 1201.33 434.318C1204.7 432.006 1208.35 429.623 1209.45 429.021C1210.54 428.418 1213.76 426.401 1216.6 424.538C1219.43 422.675 1224.78 419.734 1228.49 418.003C1232.19 416.272 1236.4 414.242 1237.83 413.492C1239.27 412.742 1242.27 411.579 1244.5 410.908C1246.73 410.236 1249.21 409.393 1250.01 409.034C1251.58 408.329 1252.66 407.902 1255.81 406.752C1256.93 406.344 1259.14 405.438 1260.74 404.737C1262.33 404.037 1265.99 402.49 1268.86 401.3C1274.64 398.902 1277.18 397.785 1281.91 395.562C1285.56 393.843 1292 391.717 1293.55 391.717C1294.12 391.717 1294.75 391.47 1294.94 391.167C1295.12 390.865 1296.84 390.154 1298.74 389.589C1300.65 389.023 1302.21 388.357 1302.21 388.109C1302.21 387.861 1302.72 387.658 1303.35 387.658C1303.98 387.658 1306 386.984 1307.84 386.16C1309.69 385.337 1312.63 384.13 1314.38 383.479C1316.14 382.828 1317.82 382.066 1318.12 381.787C1318.43 381.507 1319 381.278 1319.39 381.278C1320.28 381.278 1326.96 378.246 1336.71 373.411C1340.86 371.355 1344.51 369.674 1344.82 369.676C1345.14 369.676 1346.7 369.05 1348.3 368.281C1349.9 367.512 1354.51 365.293 1358.55 363.351C1362.58 361.409 1366.13 359.82 1366.43 359.82C1367.02 359.82 1371.82 357.376 1377.31 354.272C1379.22 353.19 1381.18 352.137 1381.66 351.932C1382.14 351.727 1383.82 350.938 1385.4 350.18C1386.97 349.421 1388.61 348.801 1389.02 348.801C1389.44 348.801 1389.78 348.604 1389.78 348.363C1389.78 348.122 1390.63 347.567 1391.66 347.13C1392.7 346.694 1394.31 345.978 1395.23 345.539C1396.16 345.1 1397.27 344.741 1397.7 344.741C1398.13 344.741 1398.48 344.48 1398.48 344.161C1398.48 343.842 1398.91 343.581 1399.44 343.581C1399.97 343.581 1403.03 342.301 1406.25 340.735C1423.41 332.393 1433 327.923 1433.75 327.923C1434.05 327.923 1434.62 327.525 1435.03 327.039C1435.43 326.553 1435.9 326.293 1436.07 326.461C1436.23 326.629 1436.91 326.424 1437.58 326.006C1438.24 325.587 1440.09 324.769 1441.68 324.189C1443.28 323.608 1446.24 322.253 1448.26 321.178C1450.28 320.103 1452.18 319.223 1452.48 319.223C1452.77 319.223 1455.72 317.919 1459.03 316.324C1462.33 314.729 1465.41 313.424 1465.86 313.424C1466.32 313.424 1467.2 313.041 1467.82 312.572C1468.43 312.104 1469.27 311.713 1469.67 311.703C1470.07 311.693 1471.75 311.032 1473.4 310.234C1475.06 309.437 1476.75 308.784 1477.17 308.784C1477.59 308.784 1477.93 308.544 1477.93 308.25C1477.93 307.957 1478.71 307.545 1479.67 307.334C1480.63 307.124 1481.41 306.768 1481.41 306.542C1481.41 306.316 1481.93 306.093 1482.56 306.045C1483.19 305.997 1484.88 305.147 1486.33 304.154C1487.77 303.161 1488.95 302.524 1488.95 302.738C1488.95 302.952 1489.36 302.787 1489.86 302.373C1490.36 301.958 1492.16 301.147 1493.87 300.57C1495.58 299.994 1498.59 298.578 1500.56 297.424C1502.53 296.271 1504.44 295.263 1504.81 295.184C1505.89 294.954 1507.52 294.264 1512.07 292.126C1514.42 291.02 1517.68 289.636 1519.32 289.05C1520.96 288.463 1524.38 287.164 1526.94 286.162C1529.49 285.161 1532.44 284.082 1533.5 283.765C1534.56 283.448 1537.37 282.293 1539.74 281.198C1542.11 280.103 1544.24 279.206 1544.48 279.206C1544.72 279.206 1546.43 278.406 1548.28 277.431C1550.13 276.456 1553.78 274.748 1556.4 273.635C1564.15 270.338 1564.34 270.243 1564.34 269.786C1564.34 269.545 1564.78 269.348 1565.32 269.348C1565.86 269.348 1568.92 268.196 1572.13 266.789C1575.34 265.381 1578.95 264.065 1580.15 263.863C1581.34 263.661 1582.32 263.246 1582.32 262.942C1582.32 262.637 1582.96 262.388 1583.74 262.388C1584.52 262.388 1585.3 262.147 1585.48 261.853C1585.67 261.558 1586.59 261.146 1587.55 260.937C1588.5 260.727 1589.28 260.345 1589.28 260.087C1589.28 259.829 1590.21 259.442 1591.35 259.228C1592.5 259.015 1594.33 258.333 1595.43 257.714C1596.53 257.095 1597.83 256.589 1598.31 256.589C1598.79 256.589 1601.06 255.598 1603.37 254.388C1605.67 253.178 1608.85 251.706 1610.45 251.118C1612.04 250.53 1615.05 248.943 1617.12 247.592C1621.03 245.043 1629.21 240.93 1630.37 240.93C1630.74 240.93 1631.04 240.669 1631.04 240.35C1631.04 240.031 1631.35 239.77 1631.73 239.77C1633 239.77 1643.5 235.565 1644.12 234.809C1644.45 234.401 1645.76 233.881 1647.02 233.653C1648.28 233.425 1649.57 233.043 1649.89 232.802C1650.21 232.561 1651.31 232.183 1652.35 231.962C1653.39 231.74 1654.24 231.343 1654.24 231.079C1654.24 230.815 1654.72 230.726 1655.31 230.88C1655.9 231.035 1656.75 230.789 1657.21 230.335C1657.66 229.881 1659.04 229.321 1660.27 229.09C1661.49 228.86 1662.92 228.45 1663.44 228.18C1665.46 227.128 1668.52 225.922 1670.18 225.524C1671.14 225.295 1672.42 224.597 1673.02 223.973C1673.89 223.061 1674.2 222.991 1674.6 223.619C1675.07 224.353 1675.37 223.873 1675.16 222.732C1675.11 222.452 1675.6 222.364 1676.26 222.536C1676.93 222.71 1677.84 222.467 1678.31 221.989C1678.79 221.516 1679.17 221.31 1679.17 221.531C1679.17 221.752 1679.52 221.645 1679.95 221.293C1680.37 220.94 1682.99 219.737 1685.76 218.62C1688.53 217.502 1691.51 216.078 1692.38 215.454C1693.25 214.83 1695.46 213.894 1697.3 213.375C1699.13 212.855 1700.63 212.188 1700.63 211.891C1700.63 211.595 1701.13 211.352 1701.73 211.352C1702.33 211.352 1702.98 210.961 1703.16 210.482C1703.35 210.004 1703.78 209.613 1704.13 209.613C1704.48 209.613 1704.57 209.939 1704.34 210.338C1704.1 210.736 1704.43 210.606 1705.07 210.048C1705.71 209.489 1706.43 209.033 1706.68 209.033C1706.92 209.033 1707.88 208.495 1708.8 207.837C1709.72 207.18 1711 206.602 1711.65 206.554C1712.29 206.506 1712.81 206.269 1712.81 206.028C1712.81 205.787 1713.18 205.729 1713.62 205.901C1714.07 206.072 1714.63 205.893 1714.87 205.503C1715.17 205.02 1715.07 204.943 1714.55 205.263C1714.04 205.576 1713.93 205.506 1714.21 205.053C1714.44 204.68 1714.87 204.521 1715.16 204.7C1715.45 204.879 1716.45 204.461 1717.38 203.771C1718.32 203.081 1719.36 202.688 1719.7 202.897C1720.04 203.107 1720.64 202.746 1721.05 202.096C1721.46 201.445 1722 200.913 1722.26 200.913C1722.53 200.913 1722.59 201.156 1722.4 201.454C1722.02 202.074 1725.71 200.355 1726.15 199.707C1726.31 199.472 1727.42 199.097 1728.61 198.873C1729.8 198.649 1730.64 198.237 1730.46 197.957C1730.29 197.676 1730.55 197.602 1731.05 197.792C1731.54 197.982 1732.4 197.965 1732.95 197.755C1733.81 197.424 1733.83 197.288 1733.09 196.768C1732.39 196.27 1732.42 196.221 1733.25 196.491C1734.59 196.919 1736.1 196.317 1735.63 195.549C1735.39 195.156 1735.79 195.078 1736.78 195.326C1737.99 195.63 1738.23 195.528 1737.96 194.831C1737.74 194.265 1737.97 193.954 1738.59 193.954C1739.17 193.954 1739.41 194.242 1739.19 194.679C1738.99 195.078 1739.22 194.921 1739.7 194.331C1740.18 193.741 1740.83 193.417 1741.14 193.611C1741.46 193.806 1742.13 193.554 1742.63 193.052C1743.13 192.551 1743.8 192.303 1744.12 192.501C1744.45 192.7 1744.71 192.586 1744.71 192.248C1744.71 191.911 1745.2 191.634 1745.79 191.634C1746.39 191.634 1747.54 191.112 1748.35 190.474C1749.16 189.836 1750.24 189.314 1750.74 189.314C1751.25 189.314 1751.67 189.036 1751.67 188.695C1751.67 188.34 1752.16 188.233 1752.83 188.444C1753.49 188.656 1753.99 188.549 1753.99 188.194C1753.99 187.853 1754.5 187.575 1755.13 187.575C1756.67 187.575 1760.97 185.286 1761.37 184.251C1761.58 183.706 1761.82 183.633 1762.07 184.042C1762.33 184.461 1763.2 184.286 1764.73 183.51C1765.97 182.875 1767.39 182.351 1767.88 182.346C1768.67 182.338 1768.67 182.271 1767.91 181.775C1767.25 181.349 1767.5 181.211 1768.94 181.204C1770.05 181.198 1770.98 180.849 1771.16 180.361C1771.34 179.902 1772.24 179.359 1773.18 179.155C1774.11 178.95 1774.87 178.543 1774.87 178.249C1774.87 177.956 1775.38 177.715 1776 177.715C1776.63 177.715 1777.47 177.363 1777.87 176.933C1778.27 176.503 1779.13 176.265 1779.78 176.403C1780.75 176.611 1780.8 176.546 1780.09 176.035C1779.61 175.693 1779.48 175.379 1779.8 175.338C1780.12 175.296 1780.64 175.201 1780.96 175.127C1781.28 175.053 1781.93 174.952 1782.41 174.904C1782.89 174.855 1783.99 174.163 1784.85 173.366C1785.71 172.568 1787.08 171.916 1787.89 171.916C1788.7 171.916 1789.37 171.655 1789.37 171.336C1789.37 171.017 1789.73 170.756 1790.17 170.756C1791.52 170.756 1797.36 167.869 1797.67 167.044C1797.84 166.616 1798.67 166.09 1799.53 165.875C1801.65 165.341 1803.93 163.786 1803.53 163.139C1803.35 162.847 1803.41 162.666 1803.68 162.737C1803.94 162.808 1804.74 162.667 1805.46 162.422C1807.13 161.855 1807.17 160.317 1805.51 160.317C1804.3 160.317 1804.29 160.284 1805.32 159.153C1805.9 158.513 1806.2 157.821 1805.99 157.615C1805.36 156.976 1801.29 156.927 1800.53 157.549C1800.01 157.973 1799.8 157.891 1799.8 157.26C1799.8 156.279 1798.62 155.677 1796.68 155.677C1795.98 155.677 1795.15 155.443 1794.85 155.157C1794.54 154.87 1793.25 154.503 1791.97 154.341C1787.29 153.745 1786.22 153.476 1786 152.844C1785.89 152.488 1784.79 152.197 1783.58 152.197C1782.25 152.197 1781.25 151.883 1781.07 151.407C1780.87 150.902 1779.28 150.471 1776.66 150.212C1774.4 149.99 1772.55 149.582 1772.55 149.308C1772.55 148.637 1769.29 147.622 1766.6 147.455C1765.41 147.381 1764.43 147.113 1764.43 146.859C1764.43 146.606 1763.27 146.398 1761.85 146.398C1760.44 146.398 1759.11 146.121 1758.9 145.782C1758.28 144.782 1755.66 143.949 1752.25 143.667C1750.33 143.509 1748.87 143.076 1748.59 142.581C1748.28 142.028 1747.09 141.758 1744.97 141.758C1742.9 141.758 1741.81 141.519 1741.81 141.062C1741.81 140.521 1741.65 140.521 1741.11 141.062C1740.73 141.445 1739.88 141.754 1739.23 141.749C1738.25 141.741 1738.19 141.642 1738.91 141.178C1739.64 140.709 1739.59 140.6 1738.62 140.515C1737.98 140.46 1736.97 140.459 1736.37 140.515C1735.77 140.57 1734.95 140.346 1734.56 140.017C1734.16 139.689 1733.41 139.583 1732.89 139.783C1732.37 139.983 1731.95 139.857 1731.95 139.503C1731.95 138.79 1728.69 138.607 1728.27 139.296C1728.12 139.535 1726.54 139.641 1724.76 139.532C1722.97 139.423 1721.64 139.117 1721.81 138.854C1721.97 138.59 1720.34 138.204 1718.18 137.996C1714.57 137.647 1708.23 136.652 1701.79 135.425C1700.36 135.151 1698.41 134.898 1697.48 134.861C1696.54 134.825 1695.56 134.47 1695.31 134.073C1694.97 133.534 1694.85 133.571 1694.83 134.221C1694.82 134.733 1694.64 134.852 1694.39 134.511C1694.15 134.192 1693.31 133.84 1692.51 133.729C1691.72 133.619 1690.74 133.26 1690.34 132.934C1689.94 132.607 1689.61 132.495 1689.61 132.686C1689.61 132.876 1688.9 132.753 1688.02 132.411C1686.58 131.849 1685.27 131.575 1678.59 130.432C1674.43 129.72 1669.02 128.282 1668.72 127.813C1668.55 127.546 1666.69 127.205 1664.57 127.056C1662.46 126.906 1660.23 126.516 1659.62 126.189C1659.01 125.863 1656.7 125.493 1654.49 125.369C1652.28 125.244 1649.47 124.713 1648.26 124.188C1647.05 123.664 1643.71 123.08 1640.85 122.891C1637.99 122.703 1634.29 122.286 1632.62 121.965C1630.95 121.644 1628.94 121.376 1628.14 121.37C1627.34 121.364 1626.4 121.121 1626.05 120.83C1625.7 120.539 1624.78 120.305 1624.02 120.309C1621.72 120.323 1618.29 119.628 1617.95 119.078C1617.77 118.794 1616.48 118.562 1615.06 118.562C1612.94 118.562 1596.84 115.64 1594.36 114.804C1593.52 114.52 1591.13 114.128 1585.8 113.403C1583.73 113.12 1580.47 112.492 1578.55 112.006C1576.64 111.52 1573.25 110.837 1571.01 110.488C1565.15 109.571 1564.72 109.492 1563.76 109.125C1562.42 108.612 1558.5 107.963 1555.93 107.829C1552.75 107.663 1536.15 105.925 1530.13 105.128C1527.42 104.77 1524.4 104.429 1523.42 104.372C1522.45 104.315 1521.3 104.051 1520.87 103.785C1520.44 103.52 1519.22 103.335 1518.17 103.374C1517.12 103.414 1516.1 103.194 1515.91 102.885C1515.72 102.576 1514.34 102.319 1512.84 102.312C1508.56 102.294 1496.61 99.913 1485.18 96.802C1478.86 95.0798 1475.18 94.265 1472.13 93.9095C1470.38 93.7049 1468.42 93.3285 1467.78 93.0732C1467.14 92.8178 1465.91 92.3217 1465.03 91.9706C1464.15 91.6196 1462.69 91.4828 1461.77 91.6669C1460.81 91.8573 1459.92 91.7264 1459.7 91.363C1459.48 91.0119 1458.79 90.7246 1458.15 90.7246C1457.52 90.7246 1455.38 89.9697 1453.4 89.047C1448.96 86.9772 1445.84 86.0924 1442.95 86.0882C1441.73 86.0882 1440.3 85.8509 1439.76 85.5649C1439.22 85.2788 1437.17 84.8687 1435.2 84.6536C1433.23 84.4385 1430.23 83.8874 1428.53 83.429C1426.83 82.9707 1422.62 82.194 1419.18 81.7031C1415.73 81.2122 1412.21 80.5389 1411.35 80.2069C1409.17 79.3638 1401.5 77.4026 1399.06 77.0649C1394.19 76.391 1392.66 76.1221 1387.46 75.0214C1384.43 74.3806 1381.56 73.6563 1381.08 73.4117C1380.6 73.167 1379.17 72.9099 1377.89 72.8402C1376.61 72.7706 1373.09 72.2183 1370.06 71.613C1367.03 71.0077 1362.85 70.2175 1360.78 69.8569C1358.71 69.4964 1356.1 68.9673 1354.98 68.6811C1353.87 68.395 1352.04 68.0125 1350.92 67.8312C1346.76 67.155 1342.8 66.1701 1342.8 65.8098C1342.8 65.6051 1340.78 65.092 1338.31 64.6696C1335.84 64.2472 1330.81 63.1475 1327.15 62.2258C1323.48 61.3042 1319.69 60.5795 1318.74 60.6156C1317.78 60.6516 1316.11 60.402 1315.03 60.0609C1313.94 59.7199 1312.87 59.5606 1312.63 59.707C1312.39 59.8535 1311.45 59.7404 1310.54 59.4557C1305.38 57.8492 1298.27 56.6494 1291.24 56.1977C1289.2 56.0665 1286.65 55.6673 1285.56 55.3105C1284.48 54.9537 1283.24 54.8007 1282.8 54.9703C1282.35 55.1399 1281.68 54.9026 1281.3 54.4432C1280.92 53.9821 1279.61 53.6077 1278.39 53.6077C1277.16 53.6077 1274.65 53.1898 1272.8 52.6789C1269.2 51.6853 1265.57 50.9393 1260.45 50.1433C1258.69 49.8705 1255.3 49.0917 1252.91 48.4126C1250.52 47.7335 1246.47 46.9391 1243.92 46.6473C1241.37 46.3555 1237.46 45.8474 1235.23 45.5181C1233 45.1889 1230.77 45.0463 1230.28 45.2012C1229.79 45.3562 1228.49 45.1922 1227.38 44.8378C1226.27 44.483 1224.06 43.9775 1222.46 43.7146C1220.87 43.4516 1218.13 42.9609 1216.37 42.6241C1214.62 42.2873 1211.26 41.8763 1208.91 41.7109C1206.56 41.5454 1204.41 41.272 1204.14 41.1034C1203.57 40.753 1196.05 39.5608 1187.96 38.5395C1184.93 38.157 1182.05 37.6945 1181.58 37.5116C1181.1 37.3288 1180.58 37.1421 1180.42 37.0967C1180.26 37.0513 1177.52 36.8053 1174.33 36.5501C1171.14 36.2948 1168 35.8054 1167.37 35.4624C1166.3 34.8878 1160.97 33.9208 1152.29 32.7269C1150.37 32.4637 1147.5 31.9539 1145.91 31.5941C1144.31 31.2342 1141.44 30.7002 1139.53 30.4074C1137.62 30.1146 1134.35 29.5621 1132.28 29.1797C1130.21 28.7973 1127.66 28.5075 1126.63 28.5358C1125.59 28.5641 1124.74 28.3449 1124.74 28.0486C1124.74 27.7523 1123.94 27.5099 1122.95 27.5099C1120.37 27.5099 1107.36 25.8081 1105.31 25.2023C1104.36 24.9192 1100.31 24.3877 1096.32 24.0213C1092.34 23.6548 1088.82 23.151 1088.5 22.9017C1088.18 22.6524 1087.52 22.4419 1087.04 22.434C1086.57 22.426 1084.62 21.999 1082.72 21.485C1080.82 20.971 1077.93 20.5505 1076.3 20.5505C1073.65 20.5505 1069.75 19.816 1059.21 17.3379C1057.45 16.9254 1056.02 16.5485 1056.02 16.5003C1056.02 16.3766 1052.14 15.8078 1051.09 15.7777C1050.61 15.764 1049.96 15.563 1049.64 15.3312C1049.32 15.0993 1047.66 14.8681 1045.95 14.8174C1044.24 14.7667 1042.28 14.4259 1041.6 14.0601C1040.92 13.6943 1040.23 13.4277 1040.07 13.4677C1039.91 13.5077 1039.26 13.439 1038.62 13.3151C1037.98 13.1913 1033.93 12.6598 1029.63 12.1341C1025.32 11.6084 1020.36 10.8873 1018.61 10.5315C1014.27 9.65067 1014.18 9.64316 1004.98 9.27789C1000.51 9.10065 995.377 8.73959 993.562 8.47551C991.748 8.21143 989.868 8.21639 989.386 8.48651C988.903 8.75666 987.517 9.08812 986.305 9.22311C985.093 9.35811 982.779 9.61592 981.162 9.79601C977.593 10.1935 966.034 13.1326 964.219 14.1041C963.499 14.4894 962.653 14.6455 962.338 14.451C962.023 14.2566 961.621 14.4739 961.445 14.9341C961.259 15.418 959.955 15.9257 958.352 16.1384C956.828 16.3406 954.508 17.0245 953.196 17.6583C951.884 18.2921 950.342 18.8188 949.768 18.8287C949.194 18.8387 947.42 19.4888 945.825 20.2733C944.231 21.0578 942.465 21.7021 941.903 21.705C941.34 21.708 940.427 21.9326 939.873 22.2043C935.988 24.11 933.332 25.2301 931.327 25.8093C930.051 26.1778 928.485 26.8022 927.847 27.197C927.209 27.5918 925.673 28.1032 924.433 28.3334C923.193 28.5636 921.457 29.2862 920.574 29.9391C919.678 30.6012 918.658 30.9348 918.268 30.6936C917.883 30.4557 917.368 30.5844 917.124 30.9796C916.88 31.3748 915.93 31.7571 915.014 31.8291C914.098 31.9012 912.565 32.2848 911.608 32.6816C908.581 33.937 905.257 35.032 904.446 35.0408C904.016 35.0458 902.842 35.43 901.837 35.8955C900.832 36.3609 897.53 37.2496 894.5 37.8705C891.469 38.4913 888.02 39.4154 886.834 39.924C885.648 40.4326 884.078 40.8488 883.346 40.8488C882.613 40.8488 881.04 41.3707 879.849 42.0087C878.659 42.6466 876.803 43.1686 875.724 43.1686C874.646 43.1686 873.439 43.56 873.041 44.0385C872.644 44.517 871.974 44.9084 871.551 44.9084C871.129 44.9084 869.542 45.5684 868.025 46.3751C866.507 47.1817 864.902 47.7021 864.457 47.5313C863.374 47.1158 858.742 48.7274 856.936 50.1478C856.139 50.7749 855.053 51.2879 854.523 51.2879C853.993 51.2879 851.353 52.1965 848.656 53.3071C845.96 54.4177 843.288 55.3311 842.719 55.3369C842.149 55.3429 841.078 55.7442 840.338 56.229C839.025 57.0892 830.116 60.4857 828.385 60.7861C827.907 60.8691 826.341 61.5005 824.905 62.1892C823.47 62.8779 821.8 63.4472 821.195 63.4541C820.589 63.4611 816.935 64.5005 813.075 65.7638C801.212 69.6466 800.348 69.907 797.358 70.5014C795.763 70.8186 794.197 71.3881 793.878 71.7671C793.208 72.5629 788.436 74.4235 785.469 75.0457C782.885 75.5874 778.5 77.8955 778.106 78.9207C777.941 79.3523 777.188 79.7055 776.433 79.7055C775.678 79.7055 773.945 80.1953 772.58 80.7939C769.284 82.2405 765.349 83.603 759.371 85.3682C756.66 86.1688 753.658 87.1486 752.701 87.5455C751.745 87.9425 749.918 88.4347 748.642 88.6392C745.649 89.1191 735.482 92.2767 732.113 93.7725C730.678 94.4098 728.916 95.1591 728.198 95.4377C725.604 96.4447 724.246 97.0022 722.166 97.9148C721.002 98.4258 719.823 98.8439 719.548 98.8439C719.272 98.8439 718.08 99.3624 716.898 99.996C715.715 100.63 712.849 101.442 710.527 101.8C708.205 102.159 706.175 102.642 706.015 102.873C705.707 103.318 701.292 104.649 699.346 104.882C698.708 104.959 697.403 105.335 696.446 105.718C695.489 106.101 694.031 106.682 693.206 107.01C692.38 107.338 691.467 107.552 691.176 107.485C690.885 107.419 689.676 107.796 688.49 108.324C687.305 108.851 686.065 109.283 685.736 109.283C685.406 109.283 685.137 109.534 685.137 109.841C685.137 110.381 681.499 111.614 678.963 111.934C678.278 112.02 676.973 112.472 676.063 112.937C675.153 113.402 673.521 113.974 672.437 114.208C671.354 114.441 668.483 115.632 666.058 116.855C663.471 118.158 660.331 119.245 658.459 119.483C656.705 119.706 653.834 120.525 652.08 121.303C649.211 122.574 644.438 124.022 637.88 125.609C636.608 125.917 635.173 126.508 634.69 126.922C634.207 127.337 632.767 127.96 631.492 128.307C628.887 129.015 622.907 130.943 619.133 132.291C617.759 132.782 616.193 133.643 615.654 134.205C615.114 134.767 613.705 135.402 612.523 135.616C611.34 135.829 609.644 136.384 608.753 136.849C607.862 137.313 606.782 137.695 606.353 137.697C604.447 137.706 599.149 139.646 597.698 140.867C595.958 142.331 589.117 144.66 586.556 144.66C585.673 144.66 583.455 145.321 581.629 146.129C579.802 146.937 576.964 147.88 575.322 148.225C571.74 148.978 567.775 150.7 565.33 152.564C564.346 153.315 562.714 154.095 561.704 154.297C560.694 154.499 559.867 154.851 559.867 155.079C559.867 155.307 558.758 155.83 557.403 156.241C556.047 156.653 554.116 157.347 553.11 157.784C552.105 158.221 550.539 158.587 549.631 158.597C548.722 158.607 547.472 158.999 546.853 159.467C546.234 159.936 545.252 160.319 544.672 160.319C544.091 160.319 542.379 160.867 540.868 161.537C539.356 162.206 537.597 162.978 536.959 163.251C536.321 163.524 533.973 164.181 531.74 164.712C529.507 165.242 527.223 166.077 526.665 166.567C526.107 167.057 525.65 167.235 525.65 166.962C525.65 166.689 525.337 166.779 524.954 167.162C524.572 167.545 523.716 167.858 523.054 167.858C522.391 167.858 521.334 168.203 520.705 168.625C520.076 169.047 517.995 169.722 516.081 170.126C514.167 170.53 512.148 171.098 511.594 171.389C511.041 171.68 510.054 171.918 509.401 171.918C508.749 171.918 506.331 172.86 504.029 174.01C501.726 175.161 498.799 176.322 497.523 176.589C491.414 177.867 490.394 178.201 488.039 179.69C486.651 180.568 485.039 181.378 484.458 181.49C483.876 181.602 482.793 182.091 482.052 182.576C481.311 183.061 479.597 183.635 478.245 183.851C476.892 184.067 473.511 185.385 470.731 186.78C467.951 188.175 465.068 189.316 464.323 189.316C463.579 189.316 461.946 189.838 460.696 190.476C459.445 191.114 458.011 191.636 457.509 191.636C457.006 191.636 455.943 192.064 455.145 192.586C454.348 193.109 453.248 193.584 452.701 193.642C452.154 193.7 451.315 193.916 450.837 194.121C450.358 194.327 447.879 195.049 445.327 195.726C438.545 197.526 438.42 197.564 437.788 198.034C437.469 198.271 436.099 198.647 434.743 198.871C433.387 199.095 432.278 199.527 432.278 199.832C432.278 200.137 431.952 200.334 431.553 200.269C430.704 200.133 429.157 200.643 426.867 201.815C425.964 202.277 424.478 202.655 423.566 202.655C422.654 202.655 421.746 202.916 421.549 203.235C421.352 203.554 420.545 203.815 419.756 203.815C418.966 203.815 417.032 204.468 415.458 205.266C411.536 207.253 407.329 208.663 405.66 208.549C404.896 208.496 403.907 208.756 403.462 209.125C403.018 209.493 401.356 210 399.77 210.251C398.184 210.502 396.479 211.114 395.982 211.611C395.485 212.108 394.771 212.511 394.395 212.507C392.515 212.487 383.088 215.772 381.822 216.888C380.822 217.771 379.313 218.269 376.955 218.497C375.076 218.679 373.262 219.103 372.924 219.441C372.587 219.778 371.987 220.054 371.591 220.054C370.948 220.054 366.197 222.14 357.754 226.128C356.159 226.882 354.225 227.681 353.456 227.905C352.687 228.128 349.61 229.454 346.619 230.852C343.628 232.249 340.865 233.393 340.479 233.393C339.722 233.393 334.311 235.372 332.661 236.251C330.237 237.543 323.293 239.905 315.522 242.083C307.382 244.362 303.448 245.688 293.09 249.641C290.378 250.676 286.94 251.964 285.45 252.503C283.959 253.042 281.48 254.083 279.94 254.817C278.401 255.55 275.575 256.898 273.661 257.811C271.747 258.725 269.399 259.643 268.442 259.852C267.485 260.06 266.441 260.408 266.122 260.626C263.944 262.112 250.917 266.7 246.984 267.366C245.708 267.583 244.011 268.104 243.214 268.526C242.416 268.947 238.632 270.238 234.805 271.393C230.977 272.549 227.323 273.721 226.685 273.998C226.047 274.275 224.612 274.67 223.496 274.875C220.229 275.475 210.822 278.88 205.504 281.386C198.216 284.822 193.59 286.748 192.63 286.748C192.162 286.748 191.327 287.246 190.776 287.855C190.225 288.464 188.945 289.273 187.932 289.654C185.318 290.634 184.017 291.142 182.029 291.956C181.072 292.349 178.071 293.452 175.36 294.409C172.648 295.365 170.14 296.384 169.785 296.673C169.43 296.961 167.66 297.471 165.853 297.805C164.045 298.139 161.334 299.03 159.829 299.785C158.323 300.539 156.373 301.336 155.496 301.555C154.619 301.774 153.901 302.163 153.901 302.419C153.901 302.675 152.856 303.062 151.578 303.278C150.3 303.494 147.755 304.39 145.923 305.269C144.091 306.149 141.679 307.035 140.562 307.24C137.038 307.885 129.268 310.183 128.91 310.685C128.721 310.951 126.773 311.422 124.58 311.732C122.388 312.043 120.007 312.681 119.289 313.151C118.572 313.621 117.65 314.008 117.24 314.01C116.83 314.01 115.83 314.36 115.019 314.783C114.208 315.207 112.642 315.731 111.539 315.949C110.437 316.166 108.23 316.956 106.635 317.705C105.04 318.453 101.974 319.522 99.8208 320.08C97.6677 320.638 95.9061 321.267 95.9061 321.478C95.9061 321.915 91.6583 323.123 87.7868 323.786C86.3514 324.032 84.0782 324.803 82.7353 325.499C81.3924 326.195 79.696 326.773 78.9656 326.783C78.2352 326.793 77.131 327.185 76.5119 327.653C75.8927 328.122 74.7183 328.51 73.9021 328.517C73.0859 328.524 70.5912 329.175 68.3584 329.964C66.1256 330.754 63.9673 331.401 63.5623 331.402C63.1572 331.402 61.7923 332.057 60.5291 332.854C59.2658 333.652 57.8636 334.304 57.4129 334.304C56.9622 334.304 56.4433 334.696 56.2597 335.174C56.0262 335.783 55.0774 336.044 53.1045 336.044C51.5528 336.044 50.1033 336.224 49.8833 336.444C49.6634 336.664 46.6839 337.585 43.2622 338.49C35.4994 340.543 36.2737 340.324 33.7063 341.195C32.5101 341.602 31.5315 342.279 31.5315 342.701C31.5315 343.273 33.2718 343.567 38.3459 343.853C50.3196 344.528 57.1761 345.331 63.7188 346.824C67.2275 347.625 72.4471 348.799 75.3178 349.433C78.1886 350.067 81.7118 350.95 83.1472 351.394C84.5826 351.839 87.8448 352.638 90.3966 353.17C92.9484 353.703 96.9935 354.739 99.3858 355.474C101.778 356.208 105.211 357.109 107.014 357.475C108.817 357.842 111.688 358.664 113.393 359.304C115.099 359.943 117.669 360.698 119.104 360.981C128.453 362.827 140.689 365.935 144.332 367.389C144.97 367.644 149.537 368.786 154.481 369.928C159.425 371.07 164.775 372.386 166.37 372.853C169.185 373.677 174.426 374.371 185.799 375.426C190.767 375.887 203.97 379.239 206.851 380.771C208.114 381.443 214.481 383.661 218.856 384.953C220.61 385.471 224.133 386.532 226.685 387.312C229.237 388.091 232.108 388.856 233.065 389.012C234.022 389.168 236.631 389.812 238.864 390.443C241.097 391.075 244.62 392.024 246.694 392.554C248.767 393.084 250.931 393.774 251.502 394.088C252.073 394.402 252.773 394.515 253.058 394.339C253.343 394.163 257.182 395.027 261.589 396.259C271.018 398.895 279.856 401.192 286.71 402.789C289.422 403.42 293.075 404.304 294.83 404.753C296.584 405.201 299.716 405.989 301.789 406.502C303.862 407.016 306.081 407.657 306.719 407.926C307.357 408.195 310.097 408.862 312.808 409.408C315.519 409.954 318.26 410.622 318.898 410.892C319.536 411.163 321.232 411.708 322.667 412.103C324.103 412.499 325.799 413.134 326.437 413.515C327.075 413.896 328.565 414.377 329.749 414.585C330.933 414.792 334.606 415.965 337.911 417.191C341.217 418.417 346.773 420.103 350.258 420.937C357.17 422.59 359.584 423.25 364.424 424.807C366.178 425.371 369.571 426.39 371.963 427.071C374.355 427.752 376.766 428.559 377.32 428.863C377.874 429.167 379.322 429.416 380.539 429.416C381.755 429.416 382.998 429.632 383.301 429.896C383.604 430.159 384.896 430.677 386.172 431.046C396.113 433.921 399.552 434.962 403.861 436.402C409.259 438.205 415.925 440.175 418.649 440.772C419.606 440.982 420.911 441.463 421.549 441.842C423.073 442.747 431.422 445.117 440.107 447.11C443.935 447.989 452.808 450.602 459.826 452.918C466.843 455.234 475.064 457.705 478.094 458.41C484.901 459.992 486.398 460.408 489.693 461.633C491.129 462.166 494.391 463.075 496.943 463.652C502.439 464.896 510.624 467.374 522.171 471.291C526.796 472.86 531.493 474.36 532.61 474.623C537.456 475.766 542.266 477.068 543.339 477.527C545.045 478.257 550.636 479.631 557.548 481.018C560.897 481.69 565.073 482.603 566.827 483.046C568.581 483.489 571.322 484.147 572.916 484.508C579.384 485.973 585.998 487.764 588.575 488.749C590.522 489.493 590.565 489.506 593.795 490.229C598.718 491.333 601.954 492.208 602.921 492.7C603.475 492.981 604.327 493.211 604.814 493.211C605.301 493.211 606.153 493.447 606.706 493.736C608.601 494.723 618.377 498.506 620.586 499.106C621.8 499.436 623.184 500.023 623.662 500.411C624.141 500.799 627.272 501.978 630.622 503.031C633.971 504.083 638.016 505.452 639.611 506.072C641.206 506.692 643.946 507.561 645.7 508.002C653.047 509.852 656.496 510.796 657.589 511.255C658.227 511.523 660.837 512.282 663.389 512.942C665.941 513.602 669.464 514.677 671.218 515.332C672.973 515.986 676.171 517.02 678.327 517.63C680.482 518.239 683.353 519.148 684.706 519.651C686.06 520.153 687.819 520.693 688.617 520.85C689.414 521.007 690.589 521.369 691.227 521.652C691.865 521.936 694.083 522.709 696.156 523.369C698.23 524.029 700.448 524.801 701.086 525.085C701.724 525.369 702.898 525.733 703.696 525.894C704.493 526.056 706.059 526.458 707.175 526.787C708.292 527.117 711.945 528.075 715.295 528.917C718.644 529.758 721.837 530.681 722.391 530.967C722.945 531.254 723.76 531.488 724.202 531.488C724.644 531.488 727.714 532.37 731.024 533.448C734.335 534.526 739.261 535.863 741.972 536.418C744.684 536.974 748.337 537.917 750.092 538.515C751.846 539.114 755.369 539.988 757.921 540.459C763.898 541.562 773.516 544.111 785.179 547.684C790.282 549.248 795.763 550.797 797.358 551.127C798.953 551.456 802.72 552.541 805.729 553.537C811.38 555.407 820.619 557.553 823.166 557.587C823.963 557.597 827.095 558.396 830.125 559.36C835.843 561.181 840.502 562.358 846.944 563.61C849.017 564.014 852.671 565.291 855.063 566.45C857.455 567.608 861.109 569.123 863.182 569.817C865.256 570.511 867.241 571.306 867.595 571.585C867.949 571.863 869.645 572.588 871.365 573.197C873.084 573.805 875.588 574.848 876.928 575.513C878.268 576.179 879.598 576.724 879.884 576.724C880.169 576.724 881.291 577.167 882.377 577.709C884.242 578.64 887.173 579.409 889.419 579.557C889.974 579.594 892.323 578.405 894.639 576.916L894.638 576.914ZM1003.1 359.173C1001.14 357.922 1000.67 356.673 1001.96 356.178C1002.37 356.021 1003.46 354.754 1004.39 353.362C1005.32 351.97 1006.78 350.048 1007.64 349.091C1009.96 346.512 1011.21 341.432 1011.52 333.421C1011.71 328.288 1011.53 325.186 1010.8 321.651C1009.34 314.51 1007.22 308.77 1005.3 306.774L1003.6 305.015L1004.43 301.535C1004.88 299.621 1005.26 296.719 1005.26 295.086C1005.27 293.454 1005.64 289.93 1006.1 287.257C1006.55 284.584 1007.11 280.601 1007.33 278.406L1007.74 274.415L1004.43 274.828C1002.62 275.055 1000.3 275.582 999.284 276C998.27 276.417 995.744 276.943 993.671 277.168C991.597 277.393 986.117 278.509 981.492 279.647C974.845 281.282 972.049 281.698 968.153 281.631C965.442 281.584 962.792 281.682 962.265 281.848C960.901 282.276 959.648 285.226 957.924 292.062C957.099 295.332 955.41 300.314 954.169 303.132C951.552 309.08 951.377 311.311 953.306 314.153C954.072 315.281 954.882 316.818 955.106 317.569C955.331 318.319 955.879 319.511 956.324 320.217C956.769 320.923 957.379 323.141 957.68 325.146C958.455 330.314 959.164 332.34 960.931 334.441C962.251 336.009 962.429 336.643 962.141 338.745C961.953 340.115 962.054 341.367 962.368 341.561C962.679 341.753 962.933 342.465 962.933 343.143C962.933 343.822 963.494 344.973 964.179 345.702C965.777 347.404 964.976 348.512 961.778 349.023C960.443 349.237 958.643 350.128 957.472 351.156C956.32 352.168 954.516 353.069 953.252 353.264C952.038 353.451 950.367 353.945 949.538 354.361C947.72 355.275 946.739 355.05 941.97 352.619C938.551 350.876 938.272 350.587 938.105 348.611C937.946 346.723 938.078 346.48 939.265 346.47C940.002 346.464 943.085 345.816 946.115 345.031C949.145 344.247 952.098 343.599 952.676 343.593C953.927 343.579 960.034 340.67 960.034 340.088C960.034 339.865 958.965 337.623 957.658 335.107C955.894 331.711 955.139 329.417 954.727 326.204C954.421 323.823 953.794 321.018 953.333 319.969C952.872 318.921 952.092 317.154 951.601 316.042C950.792 314.21 948.976 312.628 947.623 312.575C946.904 312.546 946.21 310.424 946.573 309.364C946.737 308.886 947.19 308.103 947.58 307.624C947.969 307.146 948.618 305.711 949.02 304.435C949.423 303.159 950.327 300.94 951.029 299.505C951.73 298.07 952.874 294.677 953.571 291.966C954.268 289.254 955.508 285.079 956.327 282.686C957.147 280.294 958.811 274.683 960.025 270.218C962.175 262.311 964.88 255.585 967.187 252.415C968.25 250.954 968.281 250.496 967.652 245.456C967.282 242.488 966.713 233.797 966.388 226.141C966.063 218.486 965.672 211.421 965.519 210.441C965.365 209.461 963.782 206.199 962.001 203.192C960.219 200.184 957.972 196.288 957.007 194.534C956.042 192.779 954.658 190.692 953.931 189.894C952.523 188.35 948.274 179.645 947.639 177.003C946.834 173.651 949.775 154.616 952.307 146.795C954.003 141.557 954.136 139.376 953.065 134.364C952.453 131.502 952.43 129.983 952.958 127.144C953.795 122.645 955.108 121.165 957.805 121.683C959.528 122.014 959.889 122.434 961.049 125.449C961.766 127.315 962.353 129.725 962.353 130.805C962.353 133.241 960.321 138.741 958.828 140.346C958.215 141.004 957.714 141.736 957.714 141.972C957.714 142.209 957.176 143.582 956.519 145.025C955.861 146.468 954.797 149.912 954.152 152.678C953.508 155.444 952.466 159.925 951.836 162.636C951.206 165.348 950.64 169.523 950.578 171.916C950.47 176.062 950.599 176.536 953.331 182.065C954.908 185.255 956.931 188.815 957.826 189.978C958.721 191.14 959.454 192.29 959.454 192.533C959.454 192.776 960.106 193.83 960.904 194.875C961.701 195.921 962.354 197.008 962.354 197.29C962.354 198.456 966.724 202.793 968.956 203.843C970.827 204.722 971.769 204.853 973.223 204.436C974.249 204.142 977.052 204.049 979.45 204.231L983.812 204.56V199.511C983.812 195.246 984.047 193.981 985.323 191.375C986.716 188.529 986.781 188.068 986.161 185.467C984.142 176.996 983.851 175.501 983.832 173.519C983.799 169.996 987.035 161.275 990.204 156.347C993.237 151.63 995.56 149.875 998.765 149.88C1000.84 149.886 1004.01 151.854 1004.65 153.54C1005.64 156.137 1005.94 161.17 1005.26 163.796C1004.9 165.232 1004.47 167.189 1004.32 168.146C1003.85 171.225 1002.81 174.815 1002.4 174.815C1002.18 174.815 1001.39 175.925 1000.64 177.28C998.42 181.297 994.91 185.151 992.768 185.925C989.097 187.253 985.851 196.072 987.573 200.043C987.988 201 988.464 202.205 988.631 202.721C988.863 203.436 990.013 203.74 993.478 204.004C995.976 204.194 1000.1 204.712 1002.63 205.157C1005.17 205.601 1007.66 205.855 1008.16 205.723C1008.67 205.59 1009.54 205.986 1010.1 206.602C1010.95 207.545 1011 207.965 1010.42 209.253C1009.81 210.584 1009.88 210.959 1010.97 212.12C1011.66 212.856 1012.23 213.792 1012.23 214.202C1012.23 215.066 1016.05 222.225 1017.23 223.577C1017.67 224.081 1018.03 224.713 1018.03 224.981C1018.03 225.25 1018.38 225.882 1018.81 226.386C1019.24 226.889 1020.44 229.97 1021.49 233.232C1022.53 236.494 1023.75 239.462 1024.19 239.827C1024.63 240.193 1024.99 241.31 1024.99 242.31C1024.99 243.311 1025.64 245.355 1026.44 246.853C1028.57 250.858 1028.35 252.363 1025.02 256.66C1023.44 258.694 1021.65 261.011 1021.04 261.808C1020.43 262.606 1019.73 263.911 1019.48 264.708C1019.23 265.505 1018.68 266.673 1018.24 267.302C1017 269.097 1017.3 270.402 1019.19 271.377C1020.15 271.872 1020.93 272.466 1020.93 272.697C1020.93 272.928 1021.87 274.161 1023.02 275.437C1025.69 278.41 1026.25 279.815 1025.22 280.985C1024.13 282.223 1020.3 281.974 1018.22 280.53C1017.32 279.903 1015.76 279.037 1014.76 278.608C1013.05 277.87 1012.93 277.612 1012.64 274.022C1012.43 271.422 1012.56 269.942 1013.05 269.348C1013.45 268.869 1015 266.334 1016.49 263.713C1017.98 261.092 1020.24 257.461 1021.51 255.642C1023.97 252.13 1024.31 250.588 1023.04 248.743C1022.6 248.114 1021.94 245.841 1021.57 243.691C1021.2 241.541 1020.4 238.931 1019.8 237.891C1019.2 236.851 1018.41 234.826 1018.05 233.391C1017.12 229.709 1015.21 225.3 1013.64 223.247C1012.91 222.284 1012.04 220.78 1011.7 219.904C1010.45 216.597 1009.57 218.036 1008.51 225.126C1007.95 228.874 1006.99 233.418 1006.39 235.224C1005.79 237.03 1005.13 239.922 1004.92 241.651L1004.55 244.794L1006.68 246.051C1009.66 247.81 1011.01 251.149 1011.45 257.878C1011.71 261.876 1011.58 264.117 1010.92 266.463C1010.43 268.209 1009.86 272.769 1009.65 276.597C1009.45 280.425 1008.9 285.744 1008.43 288.417C1007.97 291.09 1007.59 296.105 1007.59 299.561C1007.59 305.546 1007.67 305.974 1009.33 308.588C1010.29 310.097 1011.07 311.917 1011.07 312.633C1011.07 313.349 1011.32 314.087 1011.62 314.273C1011.92 314.459 1012.35 315.844 1012.57 317.352C1012.79 318.86 1013.34 321.137 1013.79 322.413C1014.4 324.125 1014.61 327.809 1014.6 336.477L1014.58 348.221H1016.21C1017.92 348.221 1018.41 348.883 1019.69 352.902C1020.55 355.61 1020.53 357.802 1019.62 358.493C1018.88 359.061 1009.67 360.408 1006.65 360.39C1005.73 360.384 1004.13 359.837 1003.09 359.173H1003.1ZM1012.52 356.118C1017.15 354.88 1016.7 351.701 1011.88 351.701C1009.14 351.701 1008.07 352.695 1007.26 355.989C1006.87 357.55 1006.94 357.641 1008.23 357.281C1008.99 357.067 1010.92 356.544 1012.52 356.118ZM946.951 350.812C947.57 350.344 948.953 349.961 950.024 349.961C952.542 349.961 955.407 348.47 955.348 347.191C955.321 346.586 955.187 346.477 955.01 346.916C954.843 347.33 953.68 347.647 952.301 347.655C949.311 347.673 944.98 348.639 943.911 349.526C943.24 350.082 943.277 350.312 944.143 350.945C945.417 351.876 945.553 351.87 946.951 350.812V350.812ZM972.213 278.964C974.605 278.525 978.781 277.59 981.492 276.888C984.203 276.186 988.791 275.279 991.687 274.872C1000.46 273.641 1003.5 272.241 1005.38 268.549C1007.35 264.694 1008.18 259.502 1007.62 254.547C1006.79 247.068 1003.94 244.759 1002.98 250.769C1002.71 252.425 1002.36 252.852 1001.17 252.991C1000.28 253.096 999.299 252.721 998.674 252.03C997.71 250.965 997.705 250.728 998.591 248.119C999.11 246.592 1000.03 243.24 1000.63 240.671C1001.24 238.102 1002.14 234.695 1002.64 233.101C1003.44 230.504 1004.31 225.679 1005.86 215.174C1006.48 210.958 1005.53 208.191 1003.12 207.195C1001.04 206.335 976.936 206.072 973.48 206.871C969.527 207.785 969.169 208.777 969.524 217.845C970.318 238.107 971.734 249.895 973.935 254.559C974.537 255.835 975.113 257.662 975.216 258.618C975.386 260.206 975.251 260.358 973.662 260.358C972.256 260.358 971.763 259.997 971.093 258.474C970.637 257.437 969.943 256.589 969.552 256.589C967.992 256.589 963.833 269.021 963.123 275.807C962.821 278.699 962.911 279.126 963.872 279.372C965.826 279.874 967.788 279.778 972.213 278.964H972.213ZM1019.95 276.925C1019.62 275.668 1017.45 273.475 1017.45 274.399C1017.45 274.965 1019.64 278.047 1020.05 278.047C1020.15 278.047 1020.11 277.542 1019.95 276.925H1019.95ZM993.839 179.341C998.73 172.675 1001.45 164.481 1001.1 157.485C1000.95 154.462 1000.69 153.632 999.676 152.959C998.517 152.193 998.259 152.32 995.906 154.823C992.751 158.181 992.153 159.286 989.795 166.116C987.453 172.903 987.197 178.039 989.071 180.67C989.73 181.597 990.579 182.351 990.956 182.346C991.333 182.34 992.63 180.989 993.839 179.341V179.341ZM958.187 132.772C958.955 131.087 958.511 128.162 957.34 127.19C956.115 126.173 955.711 127.004 955.852 130.247C956.037 134.501 956.949 135.488 958.187 132.772ZM920.456 27.0727C920.782 26.0784 919.395 26.1936 917.987 27.2778C916.87 28.1381 916.889 28.164 918.522 27.9842C919.455 27.8816 920.325 27.4715 920.456 27.0727V27.0727ZM933.881 19.6127C933.039 18.5973 932.501 18.9942 932.99 20.2701C933.187 20.7825 933.623 21.0315 933.96 20.8234C934.38 20.5635 934.356 20.1843 933.881 19.6127H933.881ZM1040.86 9.81918C1041.09 9.21683 1040.82 8.94925 1039.98 8.94925C1038.97 8.94925 1038.88 9.09308 1039.49 9.81918C1039.88 10.2976 1040.28 10.6891 1040.37 10.6891C1040.45 10.6891 1040.67 10.2976 1040.86 9.81918Z" fill="white"/>
</g>
<defs>
<clipPath id="clip0_18_883">
<rect width="1824" height="592" fill="white"/>
</clipPath>
</defs>
</svg>
